<?xml version="1.0" standalone="no"?>
<!DOCTYPE svg PUBLIC "-//W3C//DTD SVG 1.1//EN" "http://www.w3.org/Graphics/SVG/1.1/DTD/svg11.dtd" >
<svg xmlns="http://www.w3.org/2000/svg">
<metadata></metadata>
<defs>
<font id="merengue_scriptregular" horiz-adv-x="1062" >
<font-face units-per-em="2048" ascent="1638" descent="-410" />
<missing-glyph horiz-adv-x="614" />
<glyph horiz-adv-x="0" />
<glyph horiz-adv-x="682" />
<glyph unicode="&#xd;" horiz-adv-x="614" />
<glyph unicode=" "  horiz-adv-x="614" />
<glyph unicode="&#x09;" horiz-adv-x="614" />
<glyph unicode="&#xa0;" horiz-adv-x="614" />
<glyph unicode="!" horiz-adv-x="794" d="M143 1313q0 44 66.5 84t145 60t132.5 20q40 0 66 -6.5t50.5 -26t36 -60.5t11.5 -104q0 -59 -56 -395.5t-56 -474.5q0 -36 2 -50q-41 -20 -150 -20q-21 0 -37.5 14t-26.5 43t-17 62t-10 82t-4 92t-1 102v162q0 58 -1 100t-4 89.5t-9.5 80t-16.5 60.5t-25.5 41.5 t-35.5 13.5q-36 0 -48 6t-12 25zM272 78q0 47 14.5 87.5t51.5 70.5t92 30q62 0 110 -27.5t48 -72.5q0 -74 -34.5 -126t-102.5 -52q-75 0 -127 24.5t-52 65.5z" />
<glyph unicode="&#x22;" horiz-adv-x="647" d="M117 1466q0 19 47 19q56 0 118 -23t62 -53q0 -25 -7.5 -73t-21.5 -105.5t-40.5 -99t-59.5 -41.5q-39 0 -63.5 21.5t-24.5 49.5q0 22 -5 157t-5 148zM446 1466q0 19 48 19q56 0 118 -23t62 -53q0 -22 -12 -73.5t-31 -109t-48.5 -100.5t-58.5 -43q-26 0 -47.5 17.5 t-21.5 42.5q0 22 -4.5 166t-4.5 157z" />
<glyph unicode="#" horiz-adv-x="1347" d="M61 440q0 62 34 96.5t132 34.5q51 0 78 -2l6 201q-120 6 -250 6q0 62 34 96.5t132 34.5q53 0 82 -2q-7 299 -90 299q0 34 46 62t105 41.5t111 13.5q133 0 133 -96q0 -69 -28 -332q145 -8 213 -10q-7 321 -90 321q0 34 45.5 62t104.5 41.5t112 13.5q131 0 131 -96 q0 -63 -29 -338q131 6 201 35q10 -33 10 -56q0 -114 -225 -133q-15 -151 -17 -184q157 7 232 37q10 -33 10 -56q0 -123 -254 -135q-8 -104 -8 -207q0 -54 2 -77q-25 -21 -71.5 -32t-94.5 -11q-41 0 -56.5 43t-15.5 129q0 102 2 161l-245 19q-11 -161 -11 -234q0 -45 3 -75 q-25 -21 -71.5 -32t-94.5 -11q-41 0 -56.5 43t-15.5 129q0 50 4 194q-234 6 -240 6zM553 559q158 -8 242 -10l6 188l-230 17z" />
<glyph unicode="$" horiz-adv-x="1032" d="M72 289q0 87 55 149t145 62q61 0 101 -37q-17 -28 -30 -77t-13 -101q0 -77 34 -129t109 -52q76 0 119 56.5t43 148.5q0 45 -26 95.5t-68 98t-92.5 97.5t-101.5 100t-93 98.5t-68 100.5t-26 98q0 61 22.5 120t81 118t146.5 90q-10 154 -68 154q0 32 43 57.5t98.5 38 t104.5 12.5q125 0 125 -90q0 -25 -15 -149q98 -19 146.5 -76.5t48.5 -130.5q0 -79 -47.5 -140t-116.5 -61q-53 0 -100 23q16 66 16 120q0 74 -27.5 122t-89.5 48q-92 0 -92 -151q0 -50 29 -102t75.5 -98t102 -93t111.5 -94.5t102.5 -94.5t75.5 -101t29 -107 q0 -137 -104 -241t-271 -140q-2 -25 -2 -70q0 -33 2 -47q-47 -41 -156 -41q-38 0 -53 37t-15 110q-74 8 -131.5 34.5t-91 64.5t-50.5 81t-17 89z" />
<glyph unicode="%" horiz-adv-x="1138" d="M61 1133q0 93 68 160t188 67q39 0 76.5 -10t71 -30.5t54 -59t20.5 -89.5q0 -25 -8 -54t-28.5 -61t-50 -57.5t-77.5 -42t-107 -16.5q-94 0 -150.5 58t-56.5 135zM88 197q0 67 54 166t134.5 200.5t175 217.5t175 217t134.5 199.5t54 164.5q0 51 -35 86q33 33 76 33 q74 0 147.5 -76.5t73.5 -144.5q0 -51 -25 -103t-67 -100.5t-97 -100.5t-115.5 -109.5t-120.5 -120.5t-115 -141t-97 -163t-67 -194t-25 -228q-52 0 -111.5 25t-104 72t-44.5 100zM244 1139q0 -49 15.5 -85t41.5 -36q33 0 53.5 46.5t20.5 104.5q0 47 -15 80t-43 33 q-35 0 -54 -43t-19 -100zM592 301q0 93 68 160t188 67q54 0 101.5 -16t83.5 -60.5t36 -111.5q0 -25 -8 -54t-28.5 -61t-50 -57.5t-77 -42t-106.5 -16.5q-94 0 -150.5 57.5t-56.5 134.5zM774 307q0 -49 15.5 -85t41.5 -36q33 0 53.5 47t20.5 105q0 48 -14.5 80.5t-42.5 32.5 q-35 0 -54.5 -43.5t-19.5 -100.5z" />
<glyph unicode="&#x26;" horiz-adv-x="1568" d="M63 336q0 74 19 134t46.5 100.5t74.5 76t87.5 57t100.5 46.5q-72 188 -72 344q0 96 48.5 184.5t136.5 144.5t192 56q174 0 268.5 -85t94.5 -223q0 -39 -9.5 -74.5t-22 -62t-38.5 -54t-45 -44.5t-57.5 -40.5t-59.5 -35t-66.5 -35.5t-64.5 -34q70 -137 169 -245.5 t212 -160.5q6 35 6 66q0 58 -15 101t-34 48h-4q-41 0 -72 16.5t-47 39t-26 52t-12.5 49.5t-2.5 38v12q79 0 160 16t136 35t121.5 35t121.5 16q84 0 123 -42.5t39 -92.5q0 -196 -68 -203q-5 50 -119 50q-16 0 -196 -15q12 -40 12 -90q0 -83 -33 -162q48 -10 90 -10 q94 0 135.5 27.5t41.5 70.5q0 10 9.5 18.5t20.5 8.5q33 0 33 -59q0 -29 -10.5 -68.5t-30 -86t-52.5 -91.5t-73 -82t-95.5 -59.5t-117.5 -22.5q-102 0 -215 66q-153 -80 -358 -80q-54 0 -112.5 8.5t-126.5 33t-120.5 62t-87.5 101.5t-35 145zM410 383q0 -119 71 -201t191 -82 q83 0 151 19q-104 82 -197.5 205t-164.5 266q-51 -85 -51 -207zM578 1198q0 -140 77 -324q150 104 150 295q0 39 -3 67.5t-13 62.5t-33.5 52.5t-59.5 18.5q-59 0 -88.5 -46t-29.5 -126z" />
<glyph unicode="'" horiz-adv-x="317" d="M117 1466q0 19 47 19q56 0 118 -23t62 -53q0 -22 -12 -73.5t-31 -109t-48 -100.5t-58 -43q-26 0 -48 17.5t-22 42.5q0 22 -4 166t-4 157z" />
<glyph unicode="(" horiz-adv-x="864" d="M143 750q0 140 25 268.5t66 223t92 172t104 125.5t101 73.5t85 25.5q103 0 103 -51q0 -12 -6 -24q-61 0 -110 -78.5t-78 -201.5t-44.5 -261.5t-15.5 -271.5t15.5 -272.5t44.5 -265t78 -205t110 -79.5q6 -12 6 -24q0 -51 -103 -51q-45 0 -104 36t-124 112t-119.5 179 t-90 253t-35.5 317z" />
<glyph unicode=")" horiz-adv-x="864" d="M145 -96q0 10 7 24q61 0 110 79.5t78 205t44 264.5t15 273q0 133 -15 271.5t-44 262t-78 201.5t-110 78q-7 14 -7 24q0 51 105 51q31 0 70.5 -18t84.5 -56t89.5 -90.5t85.5 -128t72.5 -162.5t50 -199.5t18.5 -233.5q0 -167 -35.5 -317t-90 -253t-119 -179t-123.5 -112 t-103 -36q-105 0 -105 51z" />
<glyph unicode="*" horiz-adv-x="958" d="M104 1042q0 13 2 19q8 29 71 86t128 86q-8 2 -28 5.5t-30 5.5t-28.5 6t-29 7t-25.5 7.5t-23.5 9t-17 9.5t-12.5 11t-5 13q-2 16 -2 47q0 132 72 137h2q33 0 110.5 -40.5t123.5 -90.5q2 17 4 53t4.5 58t6.5 48t12 40.5t20 17.5q62 12 92 12q89 0 100 -57q0 -1 1 -4.5 t1 -5.5q0 -36 -26.5 -106.5t-63.5 -123.5q20 5 64 20t79 24.5t58 9.5q27 0 35 -13q57 -83 57 -137q0 -37 -29 -57q-28 -21 -131 -21q-60 0 -116 12q1 -1 4 -3.5t5.5 -5t4.5 -5.5q94 -98 94 -139q0 -29 -51.5 -79t-85.5 -50q-16 0 -33 10q-28 17 -67 100.5t-43 153.5 q-9 -12 -44.5 -69t-59.5 -84t-44 -27h-6q-150 42 -150 110z" />
<glyph unicode="+" horiz-adv-x="960" d="M82 565q0 58 32 94.5t101 36.5q43 0 117 -4q2 27 2 72q0 82 -11.5 121t-43.5 39q0 50 73.5 83t155.5 33q133 0 133 -96q0 -65 -39 -264h4q146 0 260 31q13 -37 13 -60q0 -40 -23 -68.5t-61 -43t-78 -21t-84 -6.5q-40 0 -60 2q-14 -110 -14 -186q0 -42 2 -62 q-25 -21 -71.5 -32t-92.5 -11q-22 0 -36.5 11.5t-22 36t-10 53t-2.5 71.5q0 105 2 150q-152 20 -246 20z" />
<glyph unicode="," horiz-adv-x="727" d="M227 -113q0 17 15 17q20 0 42.5 56.5t40.5 124.5t43 124.5t48 56.5q38 0 71.5 -4t66 -13.5t52 -28.5t19.5 -46q0 -19 -34.5 -78t-81.5 -122t-100.5 -112.5t-86.5 -49.5q-42 0 -68.5 25.5t-26.5 49.5z" />
<glyph unicode="-" horiz-adv-x="1089" d="M244 354q0 58 32 94.5t101 36.5q71 0 200 -8t191 -8q146 0 260 31q12 -34 12 -60q0 -52 -41 -85t-92 -43.5t-112 -10.5q-74 0 -255 26.5t-296 26.5z" />
<glyph unicode="." horiz-adv-x="686" d="M264 92q0 64 57 119t142 55q54 0 85.5 -35.5t31.5 -85.5q0 -62 -47.5 -109.5t-133.5 -47.5q-67 0 -101 29.5t-34 74.5z" />
<glyph unicode="/" horiz-adv-x="1228" d="M156 102q0 72 79.5 214.5t192.5 304t226 322t192.5 301t79.5 208.5q0 32 -17 49q33 33 76 33q74 0 147.5 -77t73.5 -144q0 -43 -64.5 -136t-160.5 -204.5t-209 -252.5t-209 -275t-160.5 -277t-64.5 -254q-77 0 -129.5 52.5t-52.5 135.5z" />
<glyph unicode="0" horiz-adv-x="1271" d="M72 664q0 153 40.5 298.5t113 260t183.5 184.5t242 70q123 0 228 -70t174 -184.5t108 -259.5t39 -297q0 -189 -66.5 -339t-196 -237.5t-302.5 -87.5q-268 0 -415.5 173.5t-147.5 488.5zM442 729q0 -160 22 -294.5t72 -224t119 -89.5q48 0 86.5 50.5t62 136t36 191.5 t12.5 222q0 122 -13.5 236t-39 206.5t-66 148.5t-90.5 56q-62 0 -109 -95t-69.5 -238.5t-22.5 -305.5z" />
<glyph unicode="1" horiz-adv-x="733" d="M68 1290q39 0 98 29.5t107.5 65t92.5 65t58 29.5q38 0 63.5 -33.5t39 -96.5t19 -136.5t5.5 -170.5q0 -88 -6 -266.5t-6 -255.5q0 -156 18 -240.5t66 -84.5q35 0 47 -5t12 -22q0 -43 -60 -84.5t-140 -64.5t-146 -23q-73 0 -119.5 62t-46.5 186q0 25 17 176t34 356.5 t17 362.5q0 27 -17.5 38t-42.5 13t-50 6.5t-42.5 27t-17.5 66.5z" />
<glyph unicode="2" horiz-adv-x="1128" d="M43 217q0 56 33.5 115t87.5 113.5t119 112.5t130 121t119 128.5t87.5 146.5t33.5 164q0 30 -0.5 46t-2.5 44t-6.5 44t-13 36.5t-21.5 31t-32.5 18.5t-44.5 8q-43 0 -73.5 -35.5t-43 -84t-12.5 -102.5t13.5 -91.5t36.5 -37.5q20 0 20 -22q0 -14 -10 -25.5t-29 -11.5 q-148 0 -236.5 55.5t-88.5 149.5q0 71 30 129t77.5 95.5t108 63.5t119 37t113.5 11q32 0 88.5 -19t123.5 -58.5t126.5 -90.5t99 -123.5t39.5 -149.5q0 -80 -27 -152.5t-72 -128t-104 -105t-124 -87.5t-130 -70.5t-124 -58.5t-104 -48t-72 -42.5t-27 -38.5q0 -12 35 -12 q45 0 267 39t310 39q102 0 156.5 -51t54.5 -123q0 -86 -35 -153t-86 -67q-13 0 -22.5 7t-9.5 20q0 43 -140 43q-67 0 -250 -14.5t-266 -14.5q-30 0 -82 29t-95.5 77.5t-43.5 92.5z" />
<glyph unicode="3" horiz-adv-x="1144" d="M47 336q0 101 84.5 170t233.5 69q21 0 32 -10t11 -24q0 -13 -8 -22t-21 -9q-19 0 -32 -44t-13 -104q0 -45 9 -86t28 -78t54 -59t83 -22q104 0 163.5 88t59.5 207q0 75 -23.5 139t-76 106.5t-125.5 42.5q-61 0 -82 34.5t-21 94.5q63 0 112.5 26.5t78.5 70.5t44 95.5 t15 106.5q0 91 -36 155.5t-97 64.5q-54 0 -88.5 -35.5t-46.5 -81t-12 -98.5q0 -43 8.5 -76t19.5 -33q5 0 10 -8t5 -17q0 -30 -47 -30q-121 0 -189.5 61.5t-68.5 151.5q0 54 27 105t79 94t138 69.5t194 26.5q70 0 173.5 -52.5t184 -135t80.5 -154.5q0 -139 -70 -225 t-180 -124q80 -24 143.5 -60.5t100 -73.5t61 -78t33 -72.5t8.5 -57.5q0 -93 -32.5 -171.5t-99.5 -141t-182 -98t-269 -35.5q-215 0 -334 91.5t-119 246.5z" />
<glyph unicode="4" horiz-adv-x="1171" d="M14 672q0 19 29.5 56.5t76 85.5t103 104.5t113.5 120.5t103.5 126.5t76 128.5t29.5 121q0 29 -19 29q-14 0 -14 18q0 23 37 23q67 0 119 -7.5t97 -26t69 -53.5t24 -85q0 -79 -26.5 -156.5t-69 -139t-93.5 -118t-102.5 -100.5t-94 -78t-69 -57.5t-26.5 -34.5q0 -39 88 -39 q58 0 201 22q8 114 8 193q0 38 70 79.5t120 41.5q43 0 56.5 -70t13.5 -201h6q74 9 90 9q67 0 103 -37t36 -86q0 -46 -28 -74q-67 36 -209 39q0 -71 3.5 -121t13.5 -98t31.5 -72.5t53.5 -24.5q35 0 47.5 -5.5t12.5 -22.5q0 -41 -59 -81t-137 -62.5t-142 -22.5 q-67 0 -115.5 61t-48.5 150q0 21 8.5 59t23.5 102t25 126q-49 -3 -138.5 -10.5t-153.5 -12t-113 -4.5q-30 0 -84 30.5t-100 80.5t-46 94z" />
<glyph unicode="5" horiz-adv-x="1112" d="M33 399q0 99 94 169.5t244 70.5q21 0 32 -10.5t11 -24.5q0 -13 -8 -22t-21 -9q-17 0 -30 -46.5t-13 -110.5q0 -52 9 -100t28.5 -92t56 -70.5t84.5 -26.5q88 0 142.5 91t54.5 212q0 99 -33 166.5t-99.5 105t-152 53t-205.5 15.5q-57 0 -107 49t-50 96q0 16 18.5 72t51 130 t70 144t82 118t81.5 48q27 0 210 20.5t216 20.5q139 0 139 -155q0 -79 -49 -160.5t-90 -81.5q-7 0 -14 7.5t-7 21.5q0 65 -172 65q-174 0 -273.5 -47t-99.5 -129q0 -19 15.5 -25t52.5 -6q13 0 58 1.5t77 1.5q117 0 212.5 -18t158.5 -47t111 -69.5t74 -80t42 -85.5t20.5 -79 t4.5 -66q0 -66 -17.5 -133.5t-59 -135.5t-102 -120.5t-155.5 -85.5t-211 -33q-211 0 -346 116.5t-135 274.5z" />
<glyph unicode="6" horiz-adv-x="1161" d="M78 635q0 131 20 244.5t54 197.5t80 153t97.5 114t108 75.5t109 44t102.5 13.5q160 0 262.5 -64.5t102.5 -177.5q0 -42 -24.5 -79t-58.5 -59t-67 -35t-55 -13q-34 0 -54 18t-20 35q0 10 6 10q12 0 19.5 22.5t7.5 55.5q0 41 -11 78.5t-40 66.5t-72 29q-40 0 -72.5 -23.5 t-54.5 -61t-38 -94.5t-25 -114.5t-14.5 -131t-7 -133.5t-1.5 -132q0 -239 60.5 -397t154.5 -158q66 0 105 72t39 174q0 80 -23.5 150.5t-77.5 119.5t-129 49q-29 0 -29 -20q0 -7 -14 -7q-24 0 -24 29q0 78 89 148.5t169 70.5q111 0 193 -57.5t120.5 -146.5t38.5 -195 q0 -93 -32 -180t-92.5 -159.5t-160 -116.5t-223.5 -44q-237 0 -377.5 169t-140.5 460z" />
<glyph unicode="7" horiz-adv-x="1112" d="M27 1255q0 87 34.5 154.5t85.5 67.5q15 0 25 -7t10 -20q0 -43 146 -43q68 0 251 13.5t265 13.5q29 0 86 -40.5t105 -101t48 -106.5q0 -35 -33.5 -85t-117.5 -147.5t-125 -150.5q131 6 229 47q13 -37 13 -62q0 -62 -50 -95.5t-125 -33.5q-84 0 -167 3q-166 -262 -166 -508 q0 -97 30 -97q10 0 16.5 -5t6.5 -11q0 -10 -11.5 -20.5t-40.5 -18.5t-69 -8q-46 0 -101 14.5t-106.5 41.5t-86 72t-34.5 99q0 213 217 455q-148 4 -249 4q0 62 34 96.5t132 34.5q108 0 210 -6q69 65 170.5 147t151 126.5t49.5 66.5q0 12 -37 12q-46 0 -270 -39t-313 -39 q-104 0 -158.5 51t-54.5 125z" />
<glyph unicode="8" horiz-adv-x="1120" d="M37 391q0 112 99 207t233 104q-111 90 -175.5 186t-64.5 212q0 163 116.5 270t299.5 107q180 0 302 -83t122 -216q0 -103 -67 -196t-183 -124l22 -16q40 -27 56.5 -38t53.5 -37.5t53.5 -40.5t46.5 -40.5t44.5 -45t34 -46t28.5 -52t16 -54t7 -60.5q0 -79 -39 -156 t-106 -137.5t-166.5 -97.5t-212.5 -37q-73 0 -145.5 14.5t-140.5 46t-119.5 76t-83 110.5t-31.5 144zM348 401q0 -148 65.5 -227.5t155.5 -79.5q79 0 136 61.5t57 168.5q0 34 -18 67.5t-58.5 70.5t-75 63.5t-96.5 70.5l-43 31q-16 -3 -35 -16t-40 -38.5t-34.5 -70.5 t-13.5 -101zM420 1219q0 -59 29.5 -115t71.5 -96.5t106 -87.5q41 28 63.5 98t22.5 158q0 71 -41.5 132.5t-112.5 61.5q-60 0 -99.5 -43.5t-39.5 -107.5z" />
<glyph unicode="9" horiz-adv-x="1161" d="M51 977q0 93 32 180t92.5 159.5t160.5 116.5t225 44q237 0 377.5 -169t140.5 -460q0 -180 -38.5 -328t-98 -241t-137 -156.5t-152 -90t-145.5 -26.5q-160 0 -263.5 65.5t-103.5 176.5q0 55 41.5 100.5t88.5 66.5t77 21q34 0 54 -19t20 -36q0 -10 -8 -10q-11 0 -19 -23 t-8 -55q0 -41 11 -78.5t40 -66.5t72 -29q40 0 72.5 23.5t54.5 61t38 94.5t25 114.5t14.5 131t7 133.5t1.5 132q0 157 -26.5 283t-75.5 199t-111 73q-67 0 -106 -72t-39 -174q0 -80 23.5 -150.5t77.5 -119.5t130 -49q27 0 27 20q0 6 14 6q27 0 27 -28q0 -78 -89 -148.5 t-169 -70.5q-111 0 -193.5 57.5t-122 146.5t-39.5 195z" />
<glyph unicode=":" horiz-adv-x="688" d="M266 92q0 63 56.5 118.5t142.5 55.5q54 0 85.5 -35t31.5 -84q0 -63 -48.5 -111t-134.5 -48q-67 0 -100 29t-33 75zM266 621q0 63 56.5 118.5t142.5 55.5q54 0 85.5 -35t31.5 -84q0 -63 -48.5 -111.5t-134.5 -48.5q-67 0 -100 29.5t-33 75.5z" />
<glyph unicode=";" horiz-adv-x="733" d="M233 -113q0 17 15 17q20 0 42.5 56.5t40.5 124.5t43 124.5t48 56.5q38 0 71.5 -4t66 -13.5t52 -28.5t19.5 -46q0 -19 -34.5 -78t-81.5 -122t-100.5 -112.5t-86.5 -49.5q-42 0 -68.5 25.5t-26.5 49.5zM315 621q0 63 56.5 118.5t140.5 55.5q56 0 86.5 -35t30.5 -86 q0 -63 -47 -110.5t-133 -47.5q-67 0 -100.5 29.5t-33.5 75.5z" />
<glyph unicode="=" horiz-adv-x="960" d="M82 434q0 58 32 94.5t101 36.5q71 0 200 -8t191 -8q146 0 260 31q13 -37 13 -60q0 -40 -23 -68.5t-61 -43t-78 -21t-84 -6.5q-74 0 -255 26.5t-296 26.5zM82 702q0 58 32 95t101 37q71 0 200 -8.5t191 -8.5q146 0 260 31q13 -37 13 -60q0 -40 -23 -68.5t-61 -43t-78 -21 t-84 -6.5q-74 0 -255 26.5t-296 26.5z" />
<glyph unicode="?" horiz-adv-x="1146" d="M143 1178q0 73 79 143.5t197.5 113t231.5 42.5q98 0 181.5 -56.5t127.5 -137t44 -159.5q0 -52 -12.5 -106t-41 -108.5t-69.5 -97t-103.5 -69t-136.5 -26.5q-27 0 -27 -53q0 -39 16.5 -125t16.5 -103q-95 -18 -176 -18q-19 0 -34 3t-27 11t-21 16t-16 24t-11.5 27 t-7.5 34.5t-4.5 38t-2.5 44t-1 46v51.5v24q0 20 19 33.5t49 22.5t66.5 20t73 32t66.5 52t49 87t19 130q0 78 -42 136.5t-107 58.5q-37 0 -67.5 -27.5t-48 -68.5t-27 -82.5t-9.5 -75.5q0 -45 14 -45q11 0 11 -17q0 -14 -10.5 -25.5t-30.5 -11.5q-228 0 -228 222zM377 96 q0 77 37.5 134t117.5 57q62 0 110 -28.5t48 -72.5q0 -74 -34 -127t-101 -53q-76 0 -127 24.5t-51 65.5z" />
<glyph unicode="@" horiz-adv-x="2039" d="M27 168q0 101 20 200.5t63.5 196.5t106.5 183.5t153.5 160t200 127t250.5 83.5t301 30q159 0 298 -41t245.5 -117.5t168.5 -197.5t62 -271v-4q-1 -119 -45.5 -226.5t-115 -180.5t-157.5 -115.5t-173 -42.5q-97 0 -176.5 56t-124.5 171q-97 -186 -332 -186 q-105 0 -165 88.5t-60 218.5q0 70 18.5 139t58.5 134.5t97.5 115.5t143 80.5t186.5 30.5h6q115 -2 206 -56t91 -131v-2q0 -28 -6.5 -127t-6.5 -159v-11q0 -129 32 -197.5t77 -68.5q56 0 101 94t46 248v8q0 147 -47 266.5t-126.5 194t-181 114.5t-214.5 40 q-137 0 -253.5 -40.5t-197 -108t-138 -157t-84.5 -187t-27 -197.5q0 -103 30 -195.5t86 -165t146 -115.5t201 -43q87 0 132 10t81 35q43 -43 43 -118q0 -39 -13 -76.5t-44.5 -75t-77.5 -66t-117.5 -46t-159.5 -17.5q-142 0 -258.5 59t-192 158.5t-116.5 228t-41 271.5z M856 295q0 -63 14.5 -103t42.5 -40q56 0 96.5 102t41.5 266q0 119 -39 119h-2q-46 0 -82.5 -57t-54 -134.5t-17.5 -152.5z" />
<glyph unicode="A" horiz-adv-x="2428" d="M43 537q0 115 35.5 224t98 195t158.5 138.5t208 52.5q58 0 104 -13.5t69.5 -34t35.5 -39t12 -32.5q0 -12 -8 -12q-67 0 -124 -68.5t-88.5 -173.5t-31.5 -217q0 -79 17.5 -148t53 -126t97.5 -90t143 -33q122 0 216 89.5t173 250.5q-75 37 -75 114q0 23 14 70 q52 -28 127 -37q26 62 59 149t57 153.5t57 146t61 137.5t65 115.5t73.5 94t82.5 59t96 22.5q61 0 124.5 -28t111.5 -70.5t79 -94.5t31 -98q0 -72 2.5 -166t9.5 -223.5t19.5 -248.5t30 -223.5t45.5 -167.5t63 -63q38 0 50.5 -5t12.5 -23q0 -44 -71.5 -87t-163 -67.5 t-160.5 -24.5q-56 0 -94.5 39.5t-58.5 113.5t-28.5 160t-8.5 199v105q-50 -10 -150 -34t-170 -37t-117 -13h-20q-55 -116 -118 -206.5t-146.5 -167t-192 -118t-235.5 -41.5q-129 0 -235.5 34t-179 91.5t-122 135.5t-72 163.5t-22.5 178.5zM1442 643q68 2 203 14t184 15 q3 73 14.5 260.5t11.5 263.5q0 182 -47 182q-44 0 -82 -38.5t-73.5 -118t-63 -159t-70.5 -206t-77 -213.5z" />
<glyph unicode="B" horiz-adv-x="2091" d="M12 934q0 80 15 159t56 163.5t104 148t168 104.5t239 41q108 0 238.5 -30.5t243.5 -79.5t189 -119.5t76 -142.5q0 -18 -1 -56t-1 -57q30 95 68 173t88 144.5t114 104t136 37.5q84 0 167 -39.5t141 -118t58 -174.5q0 -159 -77.5 -301.5t-202.5 -233.5q170 -43 170 -266 q0 -75 -43.5 -156.5t-113.5 -147t-168 -108t-199 -42.5q-91 0 -164 29t-122 76t-86 120.5t-57.5 146.5t-35 171.5t-21 178t-13.5 182.5q-5 77 -8 115.5t-9 105.5t-13.5 102t-19 84.5t-27 75t-36 52.5t-48 38t-61.5 11q-90 0 -158.5 -36t-108 -98t-58.5 -137.5t-19 -162.5 q0 -127 36 -247t101.5 -197.5t142.5 -77.5q45 0 45 -16q0 -9 -10 -19q-98 -98 -238 -98q-87 0 -171.5 41t-153 115t-110.5 189.5t-42 252.5zM1311 463q0 -95 7.5 -165.5t26.5 -129t55 -89t89 -30.5q75 0 142 94.5t67 202.5q0 82 -43 123t-115 41q-65 0 -91 25.5t-26 93.5 q57 0 107.5 60t83 148t51 181.5t18.5 167.5q0 112 -38 112q-63 0 -126.5 -90t-108 -220t-72 -273.5t-27.5 -251.5z" />
<glyph unicode="C" horiz-adv-x="2131" d="M0 817q0 127 36 233t95 177t137 120.5t160.5 72t167.5 22.5q52 0 106 -10.5t93.5 -22.5t98 -39.5t86.5 -42.5t93.5 -52.5t87.5 -49.5q160 284 649 284q134 0 205.5 -58.5t71.5 -147.5q0 -57 -30.5 -114.5t-86 -105.5t-144.5 -78t-194 -30q-50 0 -116 4q-17 -129 -17 -236 q0 -175 30 -325t96 -251t157 -101q75 0 154.5 79t111.5 187q82 -82 82 -166q0 -98 -112 -163.5t-292 -65.5q-114 0 -218 58t-180 153t-133 215t-85.5 246.5t-28.5 244.5q0 137 31 252l-12 6q-64 33 -101 49.5t-101.5 32.5t-133.5 16q-91 0 -160.5 -31.5t-110.5 -85.5 t-61 -120t-20 -142q0 -109 37.5 -211.5t107.5 -169.5t154 -67q45 0 45 -18q0 -7 -8 -15q-105 -102 -256 -102q-90 0 -177.5 40t-157.5 111t-113.5 180.5t-43.5 237.5zM1534 1087q43 -6 88 -6h2q87 1 152 73.5t65 145.5q0 39 -23.5 62.5t-72.5 23.5q-72 0 -126 -81.5 t-85 -217.5z" />
<glyph unicode="D" horiz-adv-x="2252" d="M-39 1448q0 38 18 62t37 24q21 0 21 -23q0 -45 115 -79.5t282 -34.5q142 0 287.5 21t252 46.5t268.5 46.5t333 21q142 0 262 -54.5t202.5 -149.5t128.5 -226.5t46 -284.5q0 -141 -29 -270t-90.5 -240.5t-149.5 -193.5t-213.5 -129t-275.5 -47q-98 0 -182 16t-134.5 40 t-79 49.5t-28.5 47.5q0 316 -17 633.5t-50 462.5q-146 -73 -260.5 -113.5t-217.5 -40.5q-136 0 -259 61t-195 157.5t-72 197.5zM1354 662q0 -119 10 -223.5t30 -189t54 -134t78 -49.5q62 0 112.5 57.5t81.5 153.5t47.5 214.5t16.5 247.5q0 165 -36 306.5t-110 233t-172 91.5 h-6q-21 -1 -35.5 -16t-28.5 -59t-23 -120.5t-14 -205t-5 -307.5z" />
<glyph unicode="E" horiz-adv-x="2117" d="M0 909q0 76 28.5 158t90.5 163t149 144.5t215 103.5t277 40q111 0 230 -15t213.5 -32.5t259.5 -32.5t356 -15q66 0 113.5 9t71.5 23.5t34 29.5t10 31q0 10 8 16t19 6q20 0 36.5 -18t16.5 -52q0 -67 -24.5 -132.5t-68.5 -119.5t-113.5 -87t-152.5 -33q-162 0 -296 41 q-46 -130 -46 -373v-47h7q45 -4 129 -4q180 0 256 45q14 -38 14 -70q0 -73 -67 -107t-177 -34q-57 0 -151 16q11 -102 31.5 -188.5t52.5 -158t79.5 -112.5t106.5 -41q75 0 152.5 78.5t109.5 188.5q78 -96 78 -174q0 -70 -59.5 -121t-147 -74.5t-188.5 -23.5 q-115 0 -214.5 56.5t-171 153.5t-121.5 219t-75 261q-82 10 -143 10q0 39 21 69.5t67 30.5h41q-8 68 -8 152q0 297 165 371l-22 12q-57 34 -88.5 50.5t-83.5 39t-104.5 32t-112.5 9.5q-104 0 -183 -39t-124.5 -106t-67.5 -147t-22 -171q0 -123 35.5 -237t99 -186.5 t137.5 -72.5q47 0 47 -16q0 -5 -10 -18q-99 -99 -240 -99q-87 0 -171 41t-152 115t-110 189.5t-42 252.5z" />
<glyph unicode="F" horiz-adv-x="1705" d="M-106 909q0 76 28.5 158t90.5 163t149 144.5t215 103.5t276 40q111 0 230 -15t214 -32.5t259.5 -32.5t355.5 -15q66 0 113.5 9t71.5 23.5t34.5 29.5t10.5 31q0 22 26 22q20 0 36.5 -18t16.5 -52q0 -91 -40.5 -174.5t-124 -140.5t-191.5 -57q-219 0 -389 73q4 -16 4 -26 q0 -205 12 -402q82 -4 115 -4q151 0 238 49q14 -41 14 -75q0 -70 -61 -104t-166 -34q-52 0 -126 11q17 -202 49.5 -330.5t82.5 -128.5q35 0 47 -5t12 -22q0 -41 -66.5 -81t-152 -62.5t-150.5 -22.5q-33 0 -59 16t-44 42t-31 67.5t-20.5 85t-12 103t-6 112.5t-1.5 121 q0 49 7 172q-41 6 -78 6q0 38 20 69t66 32q37 451 37 502q0 36 8 55q-158 88 -316 88q-105 0 -184 -39t-124 -106t-67 -147t-22 -171q0 -123 35.5 -237t99 -186.5t137.5 -72.5q45 0 45 -16q0 -8 -10 -18q-99 -99 -237 -99q-87 0 -171.5 41t-153 115t-110.5 189.5t-42 252.5z " />
<glyph unicode="G" horiz-adv-x="2287" d="M-39 825q0 127 35.5 233t94.5 177t137 120.5t161 72t168 22.5q51 0 105 -10.5t93 -22t97.5 -39t85.5 -42t93 -52.5t87 -49q182 285 684 285q111 0 177.5 -66t66.5 -160q0 -56 -27 -109.5t-80 -99t-142.5 -73.5t-203.5 -29q-45 0 -123 4q-22 -154 -22 -307 q0 -143 35 -285.5t94 -235.5t121 -93q46 0 81 48.5t51.5 119t16.5 145.5q0 80 -20 136t-58 65q-71 0 -71 28v4q1 44 62 84t141.5 61t148.5 21q75 0 108 -53t33 -131q0 -15 -28.5 -181.5t-28.5 -260.5q0 -115 39 -154q-21 -25 -60 -42t-81 -17q-53 0 -82.5 40.5t-44.5 114.5 q-101 -157 -263 -157q-123 0 -227.5 59t-175.5 154t-121 217.5t-73 248t-23 246.5q0 148 39 258q-64 33 -101.5 50t-102.5 33t-134 16q-91 0 -160.5 -31.5t-109.5 -85.5t-60 -120t-20 -142q0 -110 37 -212t107 -169.5t155 -67.5q43 0 43 -18q0 -7 -8 -15 q-105 -102 -254 -102q-90 0 -177.5 40t-157.5 111t-113.5 180.5t-43.5 237.5zM1491 1096q47 -6 92 -6q87 0 151 72t64 147q0 41 -23.5 65.5t-70.5 24.5q-73 0 -126.5 -82t-86.5 -221z" />
<glyph unicode="H" horiz-adv-x="2172" d="M-53 961q0 289 154 452.5t425 163.5q97 0 230 -25.5t257.5 -66.5t211 -102.5t86.5 -125.5q0 -31 -9 -120t-24.5 -232t-24.5 -256q21 2 136.5 12.5t173.5 12.5q7 122 30 401.5t23 327.5q0 36 43 66t100 45.5t107 15.5q26 0 34.5 -39t8.5 -117q0 -20 -1 -68t-1 -75 q0 -121 7 -278t23.5 -354t53.5 -328.5t88 -131.5q37 0 49 -5t12 -23q0 -44 -71.5 -87t-163 -67.5t-160.5 -24.5q-40 0 -71 21t-51 63.5t-33 92.5t-19.5 121.5t-9 136.5t-2.5 151v43q-45 -6 -93.5 -16t-127.5 -28.5t-95 -22.5q-4 -132 -4 -195q0 -181 23 -293 q-26 -12 -49 -15t-76 -3q-42 0 -73.5 25.5t-51 67t-32.5 106.5t-19 131t-9 153q-153 27 -153 139q0 34 14 72q48 -27 133 -37q-5 331 -24 467q-39 283 -170 331q-30 11 -64 11q-89 0 -156.5 -36.5t-107 -99t-59 -138.5t-19.5 -164q0 -126 36 -245.5t102 -197t143 -77.5 q45 0 45 -15q0 -10 -10 -20q-103 -103 -240 -103q-69 0 -138 27t-129.5 80.5t-107 125t-73.5 168t-27 202.5z" />
<glyph unicode="I" horiz-adv-x="1581" d="M0 961q0 288 155 452t427 164q96 0 225 -25.5t248.5 -66.5t202.5 -102.5t83 -125.5v-36q0 -15 -1 -73t-1 -101q0 -150 4.5 -283.5t17.5 -287t41.5 -244.5t70.5 -91q22 0 31 -0.5t22 -3t17.5 -9t4.5 -17.5q0 -44 -69 -87t-160 -67.5t-164 -24.5q-44 0 -76 23.5t-51 62.5 t-30 100t-15 123.5t-4 145.5q0 79 5 251t5 257q0 82 -4 147.5t-13.5 131.5t-27.5 114.5t-44.5 87t-66 58.5t-90.5 20q-89 0 -156.5 -36.5t-107 -99t-59 -138.5t-19.5 -164q0 -127 35.5 -246t101 -196.5t142.5 -77.5q47 0 47 -17q0 -6 -12 -18q-103 -103 -240 -103 q-69 0 -138 27t-129.5 80.5t-107 125t-73.5 168t-27 202.5z" />
<glyph unicode="J" horiz-adv-x="1554" d="M0 254q0 132 43 245t112 186.5t154 115t172 41.5q137 0 234 -97q12 -12 12 -18q0 -16 -47 -16q-77 0 -140 -78t-96.5 -197.5t-33.5 -247.5q0 -87 17.5 -163t52.5 -138.5t95 -98.5t138 -36q97 0 176.5 89t128 230t74.5 303.5t26 321.5q0 201 -40.5 333t-114.5 132 q-27 0 -135 -19.5t-169 -19.5q-94 0 -149 43.5t-55 153.5q0 78 44.5 154.5t86.5 76.5q11 0 18.5 -8t7.5 -16q0 -68 279 -68q82 0 194 6t113 6q145 0 213 -144.5t68 -479.5q0 -178 -29 -347.5t-92 -325t-153.5 -272t-223 -186t-291.5 -69.5q-195 0 -350 70.5t-247.5 210.5 t-92.5 327z" />
<glyph unicode="K" horiz-adv-x="2152" d="M25 950q0 289 154 453t425 164q97 0 230 -25.5t257.5 -66.5t211 -102.5t86.5 -125.5q0 -30 -29.5 -299t-38.5 -454q173 160 276 387.5t103 408.5q0 102 -33 158q103 68 182 68q97 0 160.5 -71t63.5 -169q0 -77 -48 -175t-128.5 -197.5t-165 -186.5t-179.5 -170 q67 -5 129.5 -49t107.5 -103.5t82.5 -118t67.5 -99t50 -40.5q77 0 122 56q29 -29 29 -62q0 -70 -101.5 -132t-221.5 -62q-64 0 -118 29t-89 73t-66.5 101t-52 109t-44.5 101.5t-44 73.5q-77 -56 -87 -62v-61q0 -199 23 -303q-27 -14 -51 -17.5t-76 -3.5q-75 0 -116.5 81 t-53.5 210.5t-14.5 285.5t-9 312.5t-26 286t-76 210.5t-150.5 81q-89 0 -156.5 -36.5t-107 -99t-59 -138.5t-19.5 -164q0 -127 35.5 -246t100.5 -197t142 -78q48 0 48 -16q0 -5 -11 -16q-103 -103 -241 -103q-87 0 -171.5 43t-151.5 119t-108.5 191t-41.5 247z" />
<glyph unicode="L" horiz-adv-x="1855" d="M0 932q0 289 155 453.5t427 164.5q96 0 225 -25.5t248.5 -67t202.5 -103t83 -125.5q0 -63 -29 -425t-34 -550q37 -8 133 -32.5t153 -35t103 -10.5q81 0 137 94q49 -28 49 -86q0 -61 -55.5 -138.5t-128.5 -130t-123 -52.5q-53 0 -120.5 23.5t-137 56.5t-146 66.5 t-173.5 57t-195 23.5q0 77 57.5 136t165.5 63q-2 6 -2 18q0 36 7.5 193t7.5 260q0 665 -267 665q-89 0 -156.5 -36.5t-107 -99t-59 -138.5t-19.5 -164q0 -127 35.5 -246t101 -196.5t142.5 -77.5q47 0 47 -14q0 -7 -12 -19q-102 -102 -240 -102q-87 0 -172 43.5t-152.5 120 t-109 191t-41.5 245.5z" />
<glyph unicode="M" horiz-adv-x="2844" d="M-43 256q0 114 35.5 222.5t98.5 194t159 137.5t209 52q56 0 98.5 -12t64 -30t32 -35t10.5 -31q0 -15 -9 -15q-80 0 -146.5 -70t-102 -176.5t-35.5 -220.5q0 -62 11.5 -118t37.5 -106t64 -86t95.5 -57.5t127.5 -21.5q103 0 192.5 47.5t153.5 129t114 185.5t80 221t45 230 t15 219q0 155 -30 253t-83 98q-12 0 -12 24q0 42 34.5 86.5t96.5 44.5q90 0 167.5 -9t148 -28.5t111 -57.5t40.5 -91q0 -130 22 -288t58.5 -274t72.5 -116q17 0 35 72.5t34 181t41.5 235t54.5 235t76 181t103 72.5q62 0 117 -14t104 -45.5t78 -91t29 -140.5 q0 -169 9.5 -341.5t30.5 -352.5t64.5 -293t102.5 -113q38 0 50.5 -6t12.5 -24q0 -44 -71.5 -86.5t-163 -66t-160.5 -23.5q-81 0 -132 86.5t-68.5 215.5t-24.5 281q-5 106 -5 201q0 41 1 79.5t1 73.5q0 82 -5 142q-7 86 -27 86q-24 0 -64.5 -182.5t-71 -408t-30.5 -341.5 q0 -38 -46 -89t-103 -86.5t-88 -35.5q-62 0 -113 26.5t-86 69t-64 108.5t-46 131.5t-33 153.5t-25.5 159.5t-22.5 163t-24 151.5v-18q-1 -103 -11 -211q-12 -117 -40 -242t-71 -238.5t-109 -215.5t-148.5 -176.5t-194.5 -118.5t-241 -44t-235 33.5t-178.5 90.5t-122.5 134.5 t-72.5 162.5t-22.5 177z" />
<glyph unicode="N" horiz-adv-x="2441" d="M2 258q0 114 35.5 222.5t98 194t158.5 137.5t208 52q56 0 98.5 -12t65 -30t33 -35t10.5 -31q0 -15 -11 -15q-80 0 -146.5 -69.5t-102 -176.5t-35.5 -221q0 -78 19 -146t57.5 -124t105.5 -88.5t154 -32.5q99 0 182.5 42t141 114t100.5 161.5t67.5 191.5t36.5 196.5 t12 183.5q0 200 -65 350q-80 103 -158 103q-68 0 -68 67q0 33 50.5 76t125.5 74t138 31q80 0 158.5 -62t142.5 -161t124.5 -218.5t113 -239.5t98.5 -219t89.5 -161t78.5 -62q39 0 39 119q0 202 -89 537t-198 479q71 41 209 41q94 0 165.5 -106.5t71.5 -248.5 q0 -278 -24.5 -653t-24.5 -385q0 -32 -57.5 -81t-134 -85.5t-125.5 -36.5q-38 0 -74.5 15t-70.5 48t-63.5 68.5t-62 93.5t-56.5 105.5t-56 121.5t-52.5 123.5t-53 130.5t-50.5 126q0 -106 -14.5 -214t-45 -217t-75 -207t-108.5 -183.5t-141.5 -147.5t-178.5 -97.5 t-215 -35.5q-129 0 -235.5 33.5t-179 90.5t-122 134.5t-72 162.5t-22.5 177z" />
<glyph unicode="O" horiz-adv-x="1355" d="M102 848q0 112 35.5 200.5t94 145.5t139.5 95t166.5 53.5t179.5 15.5q52 0 80 -42.5t28 -88.5q0 -26 -8 -37q-18 8 -53 8q-76 0 -131 -81t-80 -203t-25 -267q0 -151 27 -282t85.5 -218.5t137.5 -87.5q77 0 134 95t84.5 239.5t27.5 313.5q0 135 -19 259.5t-56.5 227 t-99.5 164t-140 61.5q-55 0 -99 -16q-14 14 -14 31q0 38 61 72t134 34q279 0 410.5 -131.5t131.5 -433.5q0 -175 -44.5 -359.5t-120.5 -337t-188 -250.5t-235 -98q-102 0 -193.5 40.5t-160.5 110.5t-125 161.5t-91 194t-54 207.5t-19 204z" />
<glyph unicode="P" horiz-adv-x="1980" d="M0 934q0 287 155.5 451.5t426.5 164.5q96 0 228.5 -25.5t256.5 -66.5t210.5 -102.5t86.5 -124.5q0 -12 -4 -70q31 79 68 142t82.5 114t101 79t117.5 28q85 0 168.5 -40t141.5 -118.5t58 -175.5q0 -129 -53.5 -272.5t-136.5 -258.5t-192.5 -190.5t-213.5 -75.5 q-96 0 -96 70q57 0 108 75t83.5 184.5t51.5 227t19 209.5q0 139 -39 139q-88 0 -167.5 -186t-122 -421.5t-42.5 -420.5q0 -191 27 -311q-43 -22 -156 -22q-56 0 -91.5 51t-50.5 137t-20.5 197.5t-6 235t-3 247t-15 235t-37.5 197.5t-75.5 137t-124.5 51q-89 0 -156.5 -36.5 t-107 -99t-59 -138.5t-19.5 -164q0 -126 35.5 -245t101 -196t142.5 -77q47 0 47 -16q0 -7 -12 -19q-102 -102 -240 -102q-87 0 -172 43.5t-152.5 120t-109 191.5t-41.5 247z" />
<glyph unicode="Q" horiz-adv-x="1427" d="M102 903q0 98 23 187t74 169t126.5 138.5t188 92.5t250.5 34q108 0 200 -18t176.5 -61.5t144 -111t95 -173.5t35.5 -242q0 -206 -76 -403t-214 -336.5t-304 -170.5q63 -27 209 -97t235 -109t224.5 -74t255.5 -35q92 0 104 49l62 -43q0 -62 -47.5 -122.5t-118 -102 t-149.5 -67t-142 -25.5q-102 0 -199 34t-173.5 88t-148.5 119.5t-133 131t-116 119.5t-109.5 88t-101.5 34q-52 0 -78 16t-26 39q0 21 22 36t60 15q89 0 211 -34q80 2 150 80t116.5 200t73 269.5t26.5 291.5q0 108 -15.5 199.5t-46 164t-82 113.5t-118.5 41 q-70 0 -123 -44.5t-84 -121.5t-46 -170.5t-15 -201.5q0 -153 27.5 -296t78 -236t109.5 -93q33 0 53 8q8 -16 8 -28q0 -32 -28 -59t-82 -27q-117 0 -223.5 66t-179.5 171.5t-116 239.5t-43 268z" />
<glyph unicode="R" horiz-adv-x="2119" d="M0 934q0 288 154.5 452t425.5 164q76 0 178 -15.5t207.5 -45.5t195 -68.5t146.5 -88.5t57 -101q0 -12 -4 -70q31 79 68 142t82.5 114t101 79t117.5 28q85 0 168.5 -40t141.5 -118.5t58 -175.5q0 -139 -60 -292t-159 -276t-211 -184q50 -31 98 -88t76.5 -106t57.5 -86 t49 -37q77 0 123 55q28 -28 28 -61q0 -70 -100.5 -132.5t-220.5 -62.5q-64 0 -116 25.5t-85 66.5t-59.5 90.5t-45 99.5t-36 91t-39 66.5t-47.5 25.5q0 40 21 60.5t79 27.5q62 34 114 160.5t77.5 268.5t25.5 255q0 141 -39 141q-66 0 -129.5 -111t-106.5 -272t-69.5 -336.5 t-26.5 -310.5q0 -198 25 -309q-43 -22 -156 -22q-55 0 -90.5 51t-50.5 137t-20.5 197.5t-6.5 235t-3 247t-15 235t-38 197.5t-75.5 137t-124.5 51q-89 0 -156.5 -36.5t-107 -99t-59 -138.5t-19.5 -164q0 -126 35.5 -245t101 -196t142.5 -77q47 0 47 -16q0 -9 -10 -19 q-102 -102 -240 -102q-87 0 -172 43.5t-152.5 120t-109 191.5t-41.5 247z" />
<glyph unicode="S" horiz-adv-x="1982" d="M0 823q0 127 35.5 233t94.5 177t137 120.5t161 72t168 22.5q64 0 127 -13t126.5 -41t109 -52t112.5 -64q79 103 215 167t326 64q174 0 258 -59t84 -150q0 -115 -113 -217t-264 -102q-73 0 -125 8q48 -71 138.5 -175t160.5 -181t125 -165t55 -149q0 -110 -81 -200.5 t-206.5 -138.5t-263.5 -48q-80 0 -148 30t-111 77.5t-67 103.5t-24 111q0 78 49.5 130t141.5 52q74 0 118 -41q-43 -64 -43 -180q0 -81 33.5 -134.5t104.5 -53.5q62 0 110.5 55t48.5 125q0 49 -34.5 108.5t-89 118t-121 121t-133 124t-121 119t-89 115t-34.5 103.5 q0 66 30 145q-123 53 -239 53q-73 0 -132.5 -20.5t-99.5 -56t-67 -84.5t-39 -103t-12 -114q0 -110 37 -211.5t107 -168.5t155 -67q43 0 43 -18q0 -6 -9 -15q-105 -102 -256 -102q-90 0 -177 40t-156.5 111t-112.5 180.5t-43 237.5zM1372 1192q0 -36 12 -74q98 -31 183 -31 q66 0 102.5 46t36.5 108q0 59 -32.5 103.5t-88.5 44.5q-90 0 -151.5 -63t-61.5 -134z" />
<glyph unicode="T" horiz-adv-x="1753" d="M0 874q0 76 28.5 158t91 163t149.5 144.5t215 103.5t276 40q111 0 230 -14.5t214 -32.5t259.5 -32.5t355.5 -14.5q66 0 113.5 8.5t71.5 23t34 29.5t10 31q0 22 29 22q22 0 37.5 -17t15.5 -52q0 -67 -24.5 -132.5t-69 -119.5t-113.5 -87.5t-151 -33.5q-194 0 -349 59 q14 -98 22.5 -246t13.5 -268t15 -233.5t34.5 -178t66.5 -65.5q36 -2 48.5 -8t12.5 -23q-2 -44 -77 -84.5t-161 -61t-141 -20.5q-38 0 -63.5 7t-48 27t-33 60t-10.5 103q0 2 24.5 350.5t24.5 564.5q0 140 -8 224q-85 48 -162.5 74t-175.5 26q-105 0 -184 -39t-124 -106 t-67 -147t-22 -171q0 -123 35.5 -236.5t99 -186t137.5 -72.5q45 0 45 -17q0 -8 -10 -18q-99 -99 -238 -99q-87 0 -171.5 41t-153 115t-110.5 189.5t-42 252.5z" />
<glyph unicode="U" horiz-adv-x="2320" d="M0 924q0 181 66.5 319t198.5 217.5t315 79.5q106 0 240 -25t258 -67t208 -106.5t84 -135.5q0 -129 -23.5 -394.5t-23.5 -375.5q0 -130 25.5 -207t78.5 -77q60 0 118 87.5t101.5 226t75.5 302.5t45 324v180q0 38 45.5 75t102.5 57.5t100 20.5q45 0 45 -24q0 -247 10 -463 t31 -401t59 -292.5t89 -107.5q39 0 52 -6t13 -25q0 -48 -58.5 -93.5t-139.5 -71t-152 -25.5q-82 0 -134 67.5t-52 206.5q0 16 -0.5 59t-1.5 127.5t-2 147.5q-23 -97 -51.5 -182t-68 -164.5t-84 -135.5t-102 -90t-120.5 -34q-92 0 -183 48.5t-151 135.5t-60 185 q0 51 14.5 257t14.5 330q0 543 -242 543q-88 0 -154.5 -36t-105 -98t-57 -137.5t-18.5 -162.5q0 -127 35 -247.5t99 -198.5t138 -78q51 0 51 -13q0 -8 -14 -22q-105 -105 -238 -105q-88 0 -174.5 47.5t-153.5 127t-108 193t-41 237.5z" />
<glyph unicode="V" horiz-adv-x="2013" d="M0 924q0 175 64 312.5t197 220.5t319 83q151 0 293.5 -30.5t248 -80.5t173.5 -116.5t79 -136.5q16 -109 23.5 -271.5t10.5 -295t12 -256t34 -193.5t70 -70q62 0 107 64t69 176t34.5 238t10.5 276q0 219 -19 430.5t-34 253.5q52 24 172 24q72 0 124 -84.5t52 -212.5 q0 -121 -20 -269t-56 -299t-89 -293.5t-115 -253t-138.5 -177.5t-155.5 -67q-85 0 -174.5 40t-151 111t-61.5 148q0 75 1 153t1 103q0 966 -340 966q-89 0 -156 -34.5t-105.5 -94t-57.5 -133t-19 -158.5q0 -128 37.5 -252.5t102 -205t135.5 -80.5q47 0 47 -17q0 -6 -10 -16 q-109 -109 -240 -109q-120 0 -230 85.5t-177.5 227t-67.5 294.5z" />
<glyph unicode="W" horiz-adv-x="2764" d="M0 926q0 148 46.5 267t127 195t184.5 116t222 40q80 0 181 -13t213 -42.5t204 -70.5t152.5 -104t60.5 -136v-166q0 -922 120 -922q48 0 85.5 36.5t60.5 96.5t38 144t21 171t6 187q0 182 -17 358t-32 217q1 0 3 1.5t3 1.5q80 34 154 34q54 0 100 -19t85 -60.5t61 -115.5 t22 -175q0 -117 1.5 -205.5t6 -197.5t14.5 -186.5t25.5 -147t40 -105t56.5 -35.5q54 0 93.5 45t61 126.5t31.5 178t10 215.5q0 255 -38 515.5t-74 304.5q83 53 264 53q74 0 133 -85.5t59 -211.5q0 -232 -47 -469t-125 -424.5t-189 -306.5t-229 -119q-79 0 -165.5 30.5 t-154.5 88t-85 125.5q-73 -122 -160.5 -191t-181.5 -69q-86 0 -171 41t-141.5 112t-56.5 150q0 33 2 111.5t2 129.5q0 90 -2.5 171t-11.5 183.5t-23.5 186.5t-41 168t-61.5 141.5t-86.5 93t-115.5 35.5q-89 0 -156 -35t-105.5 -96t-57.5 -135t-19 -160q0 -128 36.5 -250.5 t101 -202t137.5 -79.5q16 0 29.5 -6t13.5 -15q0 -6 -6 -12q-104 -104 -242 -104q-87 0 -172 45t-152 122.5t-108 192t-41 242.5z" />
<glyph unicode="X" horiz-adv-x="2304" d="M0 764q0 106 35 213.5t108.5 208t177 178t252 124t320.5 46.5q93 0 179 -20t156 -53.5t135.5 -84t117 -106t101.5 -125.5t88 -135.5t77 -143.5q147 209 147 420q0 107 -34 184q96 54 186 54q57 0 99 -23t64.5 -62t33 -83.5t10.5 -95.5q0 -39 -10.5 -77.5t-26 -70t-45 -68 t-54.5 -62.5t-68 -63t-73 -60.5t-82 -64.5t-82 -65q16 -34 40 -87t38.5 -86t36.5 -79t37 -74.5t36 -64.5t37.5 -58.5t37.5 -46t40.5 -36t42.5 -21t46 -8.5q29 0 56.5 22.5t35.5 22.5q17 0 28 -18.5t11 -36.5q0 -50 -69 -112.5t-155 -104t-137 -41.5q-74 0 -143 35.5 t-130.5 103.5t-114 147.5t-107.5 186.5q-133 -212 -133 -490q-277 0 -277 148q0 29 6 57t23.5 60t30.5 55.5t46 61t49 56t60.5 62t60.5 58.5t68 63q-32 67 -82.5 176.5t-83.5 180t-79 161.5t-84.5 148.5t-83.5 111t-92 79t-95 25.5q-107 0 -189 -41t-130 -110.5 t-71.5 -152.5t-23.5 -177q0 -116 34 -221t98 -172.5t143 -67.5q45 0 45 -16q0 -6 -10 -16q-60 -60 -136.5 -83.5t-128.5 -23.5q-107 0 -193 36.5t-140 100t-82.5 146t-28.5 176.5z" />
<glyph unicode="Y" horiz-adv-x="2062" d="M0 793q0 106 34.5 213t108.5 207t177 176.5t252 123t323 46.5q117 0 217.5 -26t172.5 -69.5t131.5 -100.5t100 -119.5t72 -125t52.5 -119.5t37 -100.5t30 -69.5t27 -26q50 0 98.5 153.5t48.5 354.5q0 104 -35 184q94 53 187 53q57 0 98.5 -23t63.5 -62t32 -83.5t10 -95.5 q0 -93 -67 -205.5t-162.5 -208t-214.5 -186.5q-14 -91 -14 -152q0 -63 1 -103.5t4 -89.5t9.5 -78.5t17.5 -60.5t27 -47.5t39.5 -27t54.5 -10.5q37 0 50.5 -6t13.5 -23q0 -46 -66.5 -86t-168 -62t-208.5 -22q-133 0 -133 236q0 57 8.5 163.5t8.5 178.5q0 153 -46 314.5 t-125.5 296t-199 220.5t-252.5 86q-107 0 -189 -41t-130 -110.5t-71.5 -152.5t-23.5 -177q0 -116 34 -221t98 -172.5t143 -67.5q45 0 45 -16q0 -7 -10 -17q-52 -52 -123.5 -79t-141.5 -27q-108 0 -194.5 37t-140.5 101.5t-82.5 147.5t-28.5 177z" />
<glyph unicode="Z" horiz-adv-x="1499" d="M14 184q0 111 45 204.5t137 153.5t214 60q142 0 247 -108q11 -11 11 -19q0 -14 -45 -14q-75 0 -133.5 -53.5t-87.5 -134.5t-29 -171q0 -87 28 -159t93 -120t159 -48q73 0 132.5 28t100 75.5t68 111.5t40 135t12.5 147q0 121 -29 227.5t-86 175t-129 68.5q-35 0 -57 -22.5 t-27 -48.5v-8h-23q-41 4 -65.5 25t-24.5 46q0 40 39 86t94.5 87.5t110.5 83t94 86t39 83.5q0 33 -61 33q-41 0 -211.5 -28.5t-266.5 -28.5q-85 0 -144.5 55.5t-59.5 144.5q0 86 37 146q112 -37 241 -37q95 0 204.5 20t200.5 40t140 20q55 0 123 -42t113 -96t45 -90 q0 -42 -22.5 -85.5t-53 -77.5t-85 -76.5t-94 -69t-105.5 -69.5t-97 -64q139 -11 246 -55.5t171.5 -113t97 -151t32.5 -176.5q0 -82 -24.5 -165.5t-69.5 -160.5t-113 -144t-150 -117t-186 -78.5t-217 -28.5q-125 0 -229 30t-175 80.5t-120.5 117.5t-72 140t-22.5 150z" />
<glyph unicode="[" horiz-adv-x="784" d="M143 752q0 557 4 757q1 50 12 86t39.5 67.5t84 47.5t137.5 16q43 0 92.5 -14.5t89 -45t39.5 -67.5q0 -13 -10 -19.5t-21 -6.5q-57 0 -98 -36t-66.5 -98.5t-40.5 -164t-20.5 -214.5t-5.5 -267q0 -861 231 -861q11 0 21 -6t10 -18q0 -37 -39.5 -68t-89 -46t-92.5 -15 q-81 0 -136.5 16t-83.5 47.5t-39.5 67t-13.5 84.5q-4 196 -4 758z" />
<glyph unicode="\" horiz-adv-x="847" d="M-182 1313q0 67 73.5 144t147.5 77q43 0 76 -33q-17 -17 -17 -49q0 -68 79.5 -208.5t192.5 -301t226 -322t192.5 -304t79.5 -214.5q0 -83 -52.5 -135.5t-129.5 -52.5q0 111 -64.5 254t-160.5 277t-209 275t-209 252.5t-160.5 204.5t-64.5 136z" />
<glyph unicode="]" horiz-adv-x="784" d="M143 -92q0 12 10 18t21 6q56 0 98 46t67 122.5t40.5 192.5t21 238t5.5 278q0 130 -5.5 234.5t-21 206.5t-40.5 170.5t-67 110.5t-98 42q-11 0 -21 6.5t-10 19.5q0 36 39.5 66.5t89.5 45.5t93 15q82 0 137 -16t83 -47t39.5 -66.5t12.5 -85.5q2 -98 2 -757q0 -658 -2 -756 q-1 -50 -12 -86t-39 -68t-83.5 -48.5t-137.5 -16.5q-43 0 -93 15t-89.5 46t-39.5 68z" />
<glyph unicode="_" horiz-adv-x="1753" d="M199 -129q0 61 24.5 95t91.5 34h1262q0 -76 -25.5 -100.5t-119.5 -24.5q-74 0 -596 -2t-637 -2z" />
<glyph unicode="`" d="M264 1194q0 30 38.5 51t90.5 21q128 0 196 -91.5t68 -252.5q0 -30 -21 -43t-52 -13q-48 0 -125.5 63t-136 142t-58.5 123z" />
<glyph unicode="a" d="M61 305q0 70 18.5 139.5t59.5 134.5t99 115t143.5 80.5t187.5 30.5q115 0 207 -53.5t92 -130.5q0 -25 -1 -88.5t-1 -98.5q0 -122 13.5 -194t52.5 -72q47 0 111 97t108 204q34 -20 54 -58.5t20 -82.5q0 -82 -59 -159.5t-149.5 -124t-180.5 -46.5q-165 0 -222 172 q-101 -174 -323 -174q-106 0 -168 89.5t-62 219.5zM375 303q0 -65 14.5 -105t42.5 -40q41 0 69.5 45.5t41 115.5t17.5 125t5 101q0 98 -39 98q-45 0 -81 -56t-53 -132.5t-17 -151.5z" />
<glyph unicode="b" horiz-adv-x="933" d="M51 1042q0 84 7.5 145t30.5 119.5t63 94.5t107.5 58t160.5 22q113 0 176 -44t63 -89q0 -33 -32 -33q-51 0 -97 -52.5t-80 -142t-58.5 -194t-39.5 -221.5q101 104 271 104q104 0 166.5 -87.5t62.5 -213.5q0 -128 -52.5 -240t-148.5 -170q131 18 228 118.5t147 250.5 q72 -64 72 -145q0 -95 -73 -170t-184.5 -113.5t-234.5 -38.5q-44 0 -77.5 5.5t-67 21t-53 49.5t-21.5 84q45 0 81.5 56.5t54.5 133.5t18 152q0 64 -15 104.5t-43 40.5q-57 0 -98 -137.5t-41 -376.5q0 -48 21 -86q4 -6 4 -18t-7.5 -20.5t-17.5 -8.5q-293 0 -293 1042z" />
<glyph unicode="c" horiz-adv-x="796" d="M61 365q0 80 29 158t82 141t136.5 102t183.5 39q130 0 198 -63.5t68 -147.5q0 -68 -43.5 -116t-116.5 -48q-47 0 -82 21q41 71 41 120q0 62 -61 62q-51 0 -82 -62t-31 -149q0 -70 20.5 -130.5t71 -103.5t123.5 -43q89 0 166 79.5t121 240.5q69 -64 69 -146 q0 -95 -70 -170.5t-176.5 -114t-224.5 -38.5q-83 0 -157 21.5t-134 64.5t-95.5 116t-35.5 167z" />
<glyph unicode="d" d="M61 305q0 88 30.5 173.5t89 158.5t157.5 119t223 47v86q0 59 -0.5 95t-1 87t-3 82.5t-6 69t-9.5 60t-14 43t-19 29.5t-25 9q-18 0 -18 16q0 38 43.5 63t109.5 25q35 0 72.5 -5.5t77 -17t75 -31.5t63.5 -46t44.5 -63t16.5 -80q0 -84 -57.5 -415t-57.5 -464q0 -180 82 -180 q47 0 111 97t108 204q34 -20 54 -59t20 -82q0 -83 -59 -161t-149.5 -124.5t-180.5 -46.5q-147 0 -211 196q-97 -196 -336 -196q-106 0 -168 90t-62 221zM375 301q0 -65 14.5 -106t42.5 -41q56 0 94.5 102t38.5 268q0 117 -39 117q-45 0 -81 -56t-53 -132.5t-17 -151.5z" />
<glyph unicode="e" horiz-adv-x="841" d="M61 369q0 80 29.5 157.5t83 140.5t137 101.5t183.5 38.5q134 0 206 -63t72 -156q0 -116 -104 -208.5t-283 -98.5q41 -154 178 -154q106 0 215 94.5t160 245.5q72 -64 72 -143q0 -95 -74 -171t-187 -114.5t-237 -38.5q-89 0 -167.5 22t-143 65t-102.5 116t-38 166z M375 387q89 19 135.5 71.5t46.5 106.5q0 32 -15.5 52t-43.5 20q-50 0 -85.5 -76t-37.5 -174z" />
<glyph unicode="f" horiz-adv-x="790" d="M2 471q0 93 74 100q0 80 1 265.5t1 291.5q0 81 28 145t69.5 100.5t94 60.5t96 32.5t80.5 8.5q92 0 137.5 -45t45.5 -95q0 -41 -23 -41q-63 0 -110 -58.5t-74.5 -162t-40.5 -229.5t-14 -277h55q294 0 403 64q15 -41 15 -70q0 -71 -65.5 -105t-174.5 -34q-58 0 -160 10 q135 -122 217 -330.5t82 -410.5q0 -193 -76.5 -282t-242.5 -89q-56 0 -100.5 17t-78.5 55.5t-59.5 88.5t-43 127.5t-29 160t-18.5 199.5t-9.5 231.5t-3.5 269.5q-14 0 -39.5 1t-36.5 1zM375 334q19 -331 76.5 -582.5t121.5 -251.5q41 0 41 154q0 107 -22.5 228t-79 250 t-137.5 202z" />
<glyph unicode="g" horiz-adv-x="958" d="M59 305q0 70 18.5 139.5t58.5 134.5t97.5 115t142 80.5t185.5 30.5q102 0 184 -58t82 -124q0 -185 17.5 -417t17.5 -288q0 -596 -368 -596q-185 0 -277 75t-92 189q0 67 32 134.5t89 125t144.5 97.5t189.5 49q6 53 14 149q-103 -145 -305 -145q-106 0 -168 89.5 t-62 219.5zM283 -416q0 -37 13 -59.5t36 -22.5q53 0 98 51t75 131t52 189q-71 -12 -126 -45.5t-86 -76t-46.5 -85.5t-15.5 -82zM373 303q0 -65 14.5 -106t42.5 -41q56 0 94.5 102t38.5 268q0 117 -39 117q-45 0 -81 -56t-53 -132.5t-17 -151.5z" />
<glyph unicode="h" horiz-adv-x="1032" d="M53 821v10q0 81 3.5 144t13.5 133t26.5 122t45 101t67 80t94 49.5t125.5 18.5q184 0 276.5 -76t92.5 -189q0 -133 -116 -252t-302 -147q-37 -211 -37 -399q0 -12 1 -18t6 -12.5t16 -6.5q22 0 66.5 67t88.5 148t99 148t96 67q40 0 66.5 -22.5t39 -65t17 -87t4.5 -106.5 q0 -29 -1 -86.5t-1 -83.5q0 -90 14 -139t53 -49q47 0 111.5 96.5t107.5 202.5q74 -44 74 -143q0 -66 -64 -144t-157.5 -131t-173.5 -53q-57 0 -101 16.5t-69 43t-43 58t-27 63.5t-16 58.5t-14.5 43t-18.5 16.5q-23 0 -63 -72q-8 -15 -28.5 -54.5t-34 -63t-33.5 -52.5 t-40.5 -43t-40.5 -14q-53 0 -105.5 123.5t-85 316t-32.5 383.5zM403 936q80 23 135.5 74t78 104t22.5 103q0 36 -13 58.5t-36 22.5q-33 0 -74 -70t-61 -126q-32 -81 -52 -166z" />
<glyph unicode="i" horiz-adv-x="608" d="M80 547q0 52 45.5 109t107.5 93.5t111 36.5q44 0 60 -21.5t16 -80.5q0 -12 -9.5 -118t-9.5 -175q0 -223 80 -223q47 0 111.5 96.5t107.5 202.5q34 -19 54 -57.5t20 -83.5q0 -83 -60 -160.5t-151.5 -123.5t-183.5 -46q-55 0 -100.5 20.5t-76 53t-53.5 80.5t-36 95.5 t-20.5 105t-10 102.5t-2.5 94zM111 985q0 74 66 138.5t163 64.5q64 0 99.5 -40t35.5 -99q0 -73 -55 -129t-154 -56q-78 0 -116.5 34t-38.5 87z" />
<glyph unicode="j" horiz-adv-x="550" d="M-317 -408q0 134 115.5 253t301.5 147v47q0 118 -11 298t-11 212q0 80 80 159.5t155 79.5q44 0 60 -21t16 -79v-24q0 -128 15.5 -387.5t15.5 -393.5q0 -71 -1 -111t-8 -107t-20.5 -106.5t-40.5 -89t-65.5 -76.5t-98 -46t-135.5 -19q-183 0 -275.5 75t-92.5 189z M-158 -410q0 -37 12 -59.5t35 -22.5q178 0 207 367q-66 -15 -117 -49t-79.5 -75t-43 -82t-14.5 -79zM82 987q0 74 66 138.5t163 64.5q63 0 99 -40t36 -99q0 -73 -54.5 -129t-153.5 -56q-78 0 -117 34t-39 87z" />
<glyph unicode="k" horiz-adv-x="946" d="M35 1042q0 82 9 145t32.5 120.5t63 94t102 58t147.5 21.5q104 0 163.5 -42.5t59.5 -84.5q0 -29 -30 -29q-61 0 -110 -98t-74.5 -238t-38.5 -263.5t-13 -203.5q63 116 160 202.5t184 86.5q152 0 152 -115q0 -43 -55.5 -135t-135.5 -174q5 -12 21 -50.5t27 -60.5t29 -50 t40.5 -42t48.5 -14q23 0 45.5 13t44 40.5t38 52.5t36 67t29.5 65t26 63q32 -19 53 -56.5t21 -78.5q0 -100 -66.5 -178.5t-165.5 -118t-206 -39.5q-55 0 -97.5 23.5t-68.5 57.5t-47.5 67.5t-47 57t-55.5 23.5h-8q-2 -128 -25.5 -178.5t-95.5 -50.5q-64 0 -94.5 40.5 t-30.5 109.5q0 71 -33.5 406.5t-33.5 485.5zM350 328q74 0 146.5 67.5t72.5 116.5q0 31 -37 31q-66 0 -124 -60t-58 -155z" />
<glyph unicode="l" horiz-adv-x="565" d="M37 1049q0 82 12 147.5t32 110t49.5 77.5t59 51t67.5 29t68 14t66 3q77 0 130.5 -48t53.5 -110q0 -23 -26 -23q-63 0 -111 -118.5t-70 -283.5t-22 -337q0 -170 23 -280.5t67 -110.5q32 0 76.5 52.5t79 116.5t61.5 128q32 -19 52 -57.5t20 -81.5q0 -81 -58 -157.5 t-147 -122.5t-178 -46q-140 0 -222.5 279t-82.5 768z" />
<glyph unicode="m" horiz-adv-x="1642" d="M78 545q0 39 35 94.5t99 101t130 45.5q40 0 58 -30t18 -72q-1 -15 -10 -91.5t-9 -117.5q0 -98 47 -98q19 0 45.5 44t56.5 107t65 126t83 107t99 44q44 0 71 -70t36.5 -153.5t25.5 -153.5t39 -70q19 0 42 48.5t48 117t56 137.5t77 117.5t100 48.5q47 0 75 -49t36.5 -122.5 t16 -159t13 -159t27 -122.5t58.5 -49q47 0 111 97t108 204q32 -20 51.5 -59t19.5 -82q0 -83 -59.5 -161t-151 -124.5t-182.5 -46.5q-60 0 -106.5 16.5t-74 43t-47 58t-29.5 63.5t-17 58.5t-13.5 43t-15.5 16.5q-19 0 -58.5 -46.5t-79.5 -102t-94 -102t-98 -46.5 q-45 0 -80 31t-54 75t-32.5 88.5t-24.5 75.5t-22 31q-18 0 -47 -47t-56 -103.5t-68.5 -103.5t-82.5 -47q-87 0 -161 151.5t-74 397.5z" />
<glyph unicode="n" horiz-adv-x="1161" d="M72 543q0 57 46.5 115t107.5 92t108 34q46 0 61 -28.5t15 -73.5q0 -28 -5.5 -104t-5.5 -111q0 -111 43 -111q19 0 46 48.5t58.5 117t68.5 137.5t87.5 117.5t104.5 48.5q47 0 75 -49t36.5 -122.5t15.5 -159t12.5 -159t27 -122.5t58.5 -49q47 0 111 97t108 204 q33 -20 52.5 -58.5t19.5 -82.5q0 -83 -59.5 -161t-151 -124.5t-182.5 -46.5q-69 0 -125 22t-89.5 55.5t-60 72t-40 72t-26 55.5t-22.5 22q-19 0 -42 -31t-48.5 -74.5t-57 -87.5t-78.5 -75t-101 -31q-48 0 -88.5 104t-60 228.5t-19.5 218.5z" />
<glyph unicode="o" horiz-adv-x="862" d="M61 365q0 83 27 160t79 141t138 102.5t193 38.5q95 0 164.5 -47.5t103.5 -121.5t37 -165q171 55 252 178q26 -30 26 -94q0 -92 -88.5 -159.5t-212.5 -90.5q-40 -135 -145 -223t-262 -88q-74 0 -134 31t-98.5 83t-59 118t-20.5 137zM381 387q0 -94 24 -160.5t66 -66.5 q63 0 88 149q-112 19 -178 78zM424 565q0 -46 34.5 -82t106.5 -43q-3 86 -26 144.5t-62 58.5q-2 0 -6 -1t-6 -1q-18 -6 -29.5 -27.5t-11.5 -48.5z" />
<glyph unicode="p" horiz-adv-x="942" d="M20 -426q0 102 17 261.5t34 396.5t17 528q0 19 14 27t29 8q73 0 129.5 -37.5t56.5 -91.5v-11q112 156 281 156q116 0 179 -87t63 -247q0 -137 -59 -227t-148 -131q133 7 237 97t170 255q70 -49 70 -145q0 -86 -74 -164t-173.5 -121t-184.5 -43q-44 0 -82.5 4t-78 16 t-67.5 30.5t-45.5 49.5t-17.5 72q32 0 62 47.5t46.5 116t16.5 133.5q0 64 -19.5 103.5t-58.5 39.5q-47 0 -76 -64t-36 -155q12 -415 61 -685.5t117 -270.5q16 0 16 -17q0 -47 -50 -67.5t-116 -20.5q-52 0 -106.5 14t-106 42t-84.5 77t-33 111z" />
<glyph unicode="q" horiz-adv-x="970" d="M63 311q0 70 18.5 139.5t59.5 134.5t99 115t143.5 80.5t187.5 30.5q86 0 163 -55.5t77 -126.5q0 -148 53 -729q135 10 221 59q15 -37 15 -72q0 -75 -62.5 -120t-160.5 -48q6 -79 6 -141q0 -73 -50.5 -130t-125.5 -85.5t-156 -28.5q-68 0 -117 20.5t-49 70.5q0 9 3 11.5 t15 2.5q36 0 69 88.5t58 234.5q-61 7 -112 7q-21 0 -21 12q0 38 30 78.5t65 40.5h57q10 73 22 215q-101 -113 -278 -113q-106 0 -168 89.5t-62 219.5zM377 309q0 -65 14.5 -106t42.5 -41q56 0 94.5 102t38.5 268q0 117 -39 117q-45 0 -81 -56t-53 -132.5t-17 -151.5z" />
<glyph unicode="r" horiz-adv-x="894" d="M51 610q0 77 26.5 144.5t83.5 114t134 46.5q22 0 22 -22v-43q0 -26 2.5 -46t13.5 -43.5t29.5 -38.5t53 -25.5t82.5 -10.5q53 0 85.5 -28.5t44 -74.5t15 -101t6 -110t10.5 -101t34 -74.5t71 -28.5q47 0 111 97t108 204q74 -43 74 -135q0 -73 -73.5 -153t-177.5 -131.5 t-190 -51.5q-67 0 -117.5 20.5t-79.5 53t-49.5 71.5t-33.5 78.5t-26 72t-33 53t-48 20.5q-84 0 -131 71t-47 172z" />
<glyph unicode="s" horiz-adv-x="763" d="M16 604q0 57 44.5 112.5t110 88.5t126.5 33q135 0 135 -117q-20 0 -33.5 -20.5t-13.5 -41.5t23.5 -50t56.5 -63t66.5 -74t57 -97t23.5 -119q0 -55 -37 -111q87 35 164 121t117 203q70 -62 70 -145q0 -56 -22 -103t-58 -80t-86.5 -58.5t-103.5 -41t-113 -26t-111.5 -14 t-101.5 -3.5q-62 0 -95.5 42.5t-33.5 113.5q6 0 25 -1t32 -1q84 0 84 53q0 28 -24 56.5t-60.5 53t-78.5 56.5t-78.5 63t-60.5 76t-24 94z" />
<glyph unicode="t" horiz-adv-x="573" d="M-31 764q0 47 20.5 72t59.5 36q-2 49 -2 144q1 75 54.5 132.5t128 84.5t151.5 27q55 0 83 -31t28 -62q0 -10 -19 -10q-17 0 -35 -72t-32 -188q94 17 167 70q27 -52 27 -113q0 -38 -11 -64.5t-28.5 -42t-46 -24.5t-56 -11.5t-65.5 -2.5h-8q-10 -133 -10 -291 q2 -134 14 -192t55 -58q47 0 112 97.5t108 203.5q33 -19 53 -57.5t20 -83.5q0 -82 -59 -159.5t-149.5 -124t-180.5 -46.5q-58 0 -105.5 44t-79 114.5t-54.5 170.5t-36 199t-20 213q-9 0 -26.5 1t-24.5 1q-9 0 -21 8t-12 15z" />
<glyph unicode="u" d="M84 496v45q0 52 45.5 109t107.5 93.5t111 36.5q76 0 76 -157q0 -55 -11.5 -172.5t-12.5 -161.5q0 -101 42 -101q46 0 87.5 88.5t41.5 180.5q-2 29 -2 75q0 110 60.5 176t163.5 66q39 0 57 -29.5t18 -70.5q0 -38 -7 -151t-7 -171q0 -196 78 -196q47 0 111 96.5t108 202.5 q32 -19 52 -58t20 -82q0 -83 -58.5 -161t-148.5 -124t-180 -46q-151 0 -224 229q-51 -94 -152.5 -161.5t-180.5 -67.5q-40 0 -71.5 18t-51.5 43.5t-34.5 71.5t-21.5 83.5t-11 98.5t-4.5 98t-0.5 99z" />
<glyph unicode="v" horiz-adv-x="942" d="M70 514q0 124 54 200.5t171 76.5q37 0 57.5 -15t20.5 -57q0 -80 15 -151.5t39 -121t53.5 -86t59.5 -54t56 -17.5q48 0 85.5 46.5t53.5 113.5q-147 70 -147 217q0 64 32.5 102.5t88.5 38.5q76 0 134 -59.5t58 -153.5q0 -4 -1 -14t-1 -15h10q71 0 143 31.5t99 69.5 q12 -14 21.5 -38.5t9.5 -45.5q0 -82 -77 -128t-185 -46q-43 0 -66 4q-31 -73 -75 -142.5t-100.5 -131.5t-126.5 -100t-140 -38q-66 0 -147 79.5t-138 202t-57 232.5z" />
<glyph unicode="w" horiz-adv-x="1486" d="M78 543q0 107 59.5 177.5t159.5 70.5q35 0 50 -16.5t15 -53.5q0 -58 25 -146t68 -159.5t84 -71.5q16 0 28.5 15t21.5 44t15.5 59.5t16.5 74.5t20 75q25 82 76 130.5t129 48.5q26 0 41.5 -4.5t21.5 -16.5t7.5 -21.5t1.5 -29.5q0 -98 22.5 -182.5t57 -136t72.5 -80.5 t71 -29q49 0 86 45.5t53 112.5q-147 70 -147 217q0 66 33 104.5t87 38.5q76 0 134.5 -60.5t58.5 -154.5q0 -4 -1 -13.5t-1 -13.5h16q71 0 140 30.5t96 68.5q12 -12 21 -37t9 -47q0 -82 -77 -128t-185 -46q-42 0 -65 4q-31 -73 -75.5 -142.5t-100.5 -131.5t-125.5 -100 t-139.5 -38q-74 0 -160 90t-134 215q-6 -11 -27.5 -52.5t-36 -67.5t-42 -65.5t-53 -62.5t-60.5 -41t-72 -18q-54 0 -124 87t-120.5 217t-50.5 241z" />
<glyph unicode="x" horiz-adv-x="942" d="M0 606q0 30 44.5 82t116 94.5t134.5 42.5q32 0 63.5 -20t57 -47.5t56 -76.5t51 -87.5t50.5 -99.5q88 83 144.5 179.5t56.5 168.5q53 0 89 -49t36 -99q0 -66 -19 -120.5t-56.5 -96t-78.5 -71.5t-98 -60q46 -86 87.5 -133t82.5 -47q47 0 110 90.5t109 210.5q72 -44 72 -143 q0 -64 -74 -143t-177.5 -133t-184.5 -54q-157 0 -314 203q-141 -96 -141 -248q-49 0 -83 27.5t-34 76.5q0 79 48 135t137 109q-14 21 -39.5 60t-39.5 59.5t-35.5 51t-36.5 47t-33.5 33.5t-35.5 24.5t-34 7.5q-31 0 -31 26z" />
<glyph unicode="y" horiz-adv-x="976" d="M80 461q0 34 1 107t1 112q0 40 84 87.5t180 47.5q74 0 74 -90l-20 -152q-19 -152 -19 -239q0 -133 43 -133q34 0 60.5 29.5t42 78.5t24 105t10.5 116v17q0 59 22 108t55 78t67 44.5t63 15.5q48 0 72 -26t24 -62q0 -228 17.5 -478t17.5 -305q0 -594 -369 -594h-20 q-173 4 -260.5 78.5t-87.5 185.5q0 132 112.5 249.5t294.5 148.5q2 47 2 143v60q-124 -195 -295 -195q-44 0 -76.5 15t-53.5 46.5t-34.5 68.5t-20.5 94.5t-9 110.5t-2 128zM322 -412q0 -36 12 -58t35 -22q156 0 192 363q-62 -17 -110 -50.5t-75 -74.5t-40.5 -81t-13.5 -77z " />
<glyph unicode="z" horiz-adv-x="907" d="M8 522q0 123 72.5 213t173.5 90q78 0 149 -23.5t129 -47t103 -23.5h4q19 0 29 1.5t20.5 12t13.5 31.5v17q0 16 13 16q36 0 65 -29q24 -24 39 -61q12 -31 15 -80q0 -35 -10.5 -66t-24 -54.5t-40 -46.5t-47 -37.5t-57 -32.5t-58 -27.5t-62.5 -26.5l-37 -16 q138 -45 221 -168q94 41 165.5 116t125.5 214q28 -15 50.5 -55t22.5 -89q0 -84 -81.5 -161.5t-225.5 -135.5q41 -105 41 -235q0 -95 -25 -181.5t-71.5 -155.5t-121 -110t-165.5 -41h-14q-180 4 -279.5 93t-99.5 219q0 294 432 442q-42 127 -158 133q-28 -39 -28 -86 q-51 0 -83 24t-32 64q0 53 39.5 89t91 54t127.5 48.5t125 64.5q-47 2 -170 15.5t-164 13.5q-145 0 -145 -45q0 -7 -9 -12t-14 -5q-24 0 -34.5 26t-10.5 54zM182 -358q0 -57 24.5 -94t67.5 -37q56 0 108 68t82 170t30 202v12q-136 -54 -224 -140.5t-88 -180.5z" />
<glyph unicode="{" horiz-adv-x="892" d="M143 758q0 31 20 46t48 15q54 0 76 35.5t22 101.5q0 57 -24.5 219t-24.5 244q0 67 13 118t43.5 94t89.5 66t143 23q43 0 92.5 -15t89 -46t39.5 -68q0 -12 -10.5 -18t-20.5 -6q-55 0 -98 -48.5t-66 -116.5t-37.5 -156t-19 -153t-4.5 -120q0 -81 -22 -135t-80 -84 q58 -35 80 -94.5t22 -141.5q0 -55 4.5 -120t19 -153t37.5 -156t66 -116.5t98 -48.5q10 0 20.5 -6t10.5 -18q0 -37 -39.5 -68t-89.5 -46t-94 -15q-84 0 -142 23.5t-88.5 68t-43.5 97t-13 120.5q0 84 25.5 250t25.5 225q0 141 -100 141q-68 0 -68 62z" />
<glyph unicode="}" horiz-adv-x="913" d="M143 -100q0 12 10.5 18t20.5 6q55 0 98 48.5t66 116.5t37.5 156t19 153t4.5 120q0 173 101 236q-58 30 -79.5 84t-21.5 135q0 55 -4.5 120t-19 153t-37.5 156t-66 116.5t-98 48.5q-10 0 -20.5 6t-10.5 18q0 37 39.5 68t90 46t94.5 15q84 0 142 -23t89 -66t44 -94t13 -118 q0 -82 -25.5 -244t-25.5 -219q0 -66 22 -101.5t76 -35.5q29 0 48.5 -15t19.5 -46v-6q-2 -56 -68 -56q-100 0 -100 -141q0 -59 25.5 -225t25.5 -250q0 -54 -7.5 -97.5t-27 -84t-51 -68t-82.5 -43.5t-118 -16q-44 0 -94.5 15t-90 46t-39.5 68z" />
<glyph unicode="&#xa1;" horiz-adv-x="837" d="M285 -532q0 58 56 392t56 474q0 39 -2 55q47 19 150 19q22 0 38.5 -14.5t27 -43.5t17 -62.5t10 -83.5t4.5 -93t1 -103v-160q0 -88 2.5 -146.5t11.5 -117t28 -87.5t48 -29q36 0 49 -6.5t13 -24.5q0 -44 -67 -84.5t-146.5 -61t-132.5 -20.5q-39 0 -66 7t-51 26.5 t-35.5 60.5t-11.5 103zM348 582q0 74 34.5 126t102.5 52q76 0 127.5 -24t51.5 -66q0 -75 -39 -132t-119 -57q-61 0 -109.5 28t-48.5 73z" />
<glyph unicode="&#xa2;" horiz-adv-x="888" d="M61 365q0 133 74 249t203 164q0 144 -55 144q0 50 73.5 83t155.5 33q133 0 133 -96q0 -52 -18 -162q65 -28 98 -78.5t33 -107.5q0 -67 -43.5 -114.5t-116.5 -47.5q-50 0 -82 19q41 71 41 122q0 62 -61 62q-49 0 -79 -62t-30 -149q0 -70 19.5 -130.5t65.5 -103.5t112 -43 q55 0 112 28.5t99 84.5q30 -30 30 -80q0 -66 -63.5 -118.5t-200.5 -63.5q0 -8 -2 -28.5t-2 -35.5q0 -23 4 -63q-25 -21 -71.5 -32t-92.5 -11q-22 0 -36.5 11.5t-22 36t-10 53t-2.5 71.5v18q-121 36 -193 122t-72 225z" />
<glyph unicode="&#xa3;" horiz-adv-x="1257" d="M61 715q0 40 21.5 71t67.5 31q14 0 44 -1t46 -1q23 151 72 269t109 191.5t135.5 121t147 66t146.5 18.5q155 0 227 -51.5t72 -124.5q0 -54 -35 -97t-80 -43q-32 109 -77.5 153t-122.5 44q-63 0 -114.5 -47.5t-86 -129.5t-57 -179t-33.5 -209q79 -6 153 -6q176 0 256 45 q15 -41 15 -70q0 -73 -67 -107t-177 -34q-72 0 -188 22v-33q0 -238 38 -342q39 -8 137 -34t166 -38t132 -12q79 0 137 93q49 -28 49 -86q0 -61 -55.5 -138.5t-128.5 -130.5t-123 -53q-53 0 -120.5 23.5t-137 56.5t-146 66.5t-173.5 57t-195 23.5q0 65 41 118.5t120 72.5 q-55 99 -55 237q0 92 6 172q-107 15 -166 15z" />
<glyph unicode="&#xa5;" horiz-adv-x="1302" d="M41 1190q0 102 96 165.5t230 63.5q52 0 96 -34t73.5 -88.5t54.5 -120.5t44.5 -132t38 -120.5t41 -88.5t47.5 -34q29 0 59.5 61t52 170.5t21.5 231.5q0 94 -31 166q83 49 170 49q51 0 89 -21t58.5 -56.5t30 -76t9.5 -86.5q0 -110 -97.5 -239t-246.5 -252h34q185 0 283 40 q10 -25 10 -55q0 -137 -313 -137q-70 0 -103 2q-2 -14 -2 -49v-66q37 -2 107 -2q195 0 301 41q10 -25 10 -55q0 -41 -26.5 -69t-74.5 -42t-98 -19t-114 -5q-65 0 -96 2q9 -79 40 -118.5t93 -39.5q34 0 44.5 -4.5t10.5 -21.5q0 -63 -115 -109.5t-262 -46.5q-121 0 -121 217 q0 44 15 151q-176 15 -346 15q0 62 33.5 96.5t131.5 34.5q37 0 105 -3.5t96 -4.5l10 123q-180 18 -376 18q0 62 33.5 96.5t131.5 34.5l177 -6q-30 69 -80 142.5t-110.5 137t-131 104t-133.5 40.5z" />
<glyph unicode="&#xa7;" horiz-adv-x="1069" d="M82 246q0 88 57.5 151.5t149.5 63.5q65 0 110 -39q-39 -60 -39 -158q0 -53 14.5 -96.5t54.5 -75t101 -31.5q68 0 109 49.5t41 125.5q0 39 -28.5 79t-74.5 75t-101.5 71t-111 73t-101.5 74t-74.5 81.5t-28.5 88.5q0 60 26 132t56 116q-21 40 -21 80q0 58 31 122.5 t81.5 118t123 88.5t147.5 35q85 0 150.5 -24.5t103.5 -65t57 -87.5t19 -97q0 -75 -39 -126.5t-104 -51.5q-60 0 -109 24q25 94 25 164q0 154 -111 154q-45 0 -81 -45.5t-36 -122.5q0 -54 28 -102t73 -84t99 -70t108 -67.5t99 -69t73 -83t28 -100.5q0 -45 -26.5 -109.5 t-69.5 -113.5q41 -44 41 -80q0 -42 -14 -86.5t-48.5 -91.5t-85 -84t-131.5 -60.5t-180 -23.5q-100 0 -178 24.5t-123 65.5t-67.5 89t-22.5 100zM281 934q0 -55 65 -124t145.5 -124t188.5 -128.5t160 -117.5q2 6 2 19q0 39 -41.5 87t-109.5 97t-140 98.5t-147.5 109 t-118.5 110.5q-4 -16 -4 -27z" />
<glyph unicode="&#xa8;" d="M211 979q0 65 56.5 120.5t140.5 55.5q56 0 86 -35t30 -86q0 -63 -47 -111.5t-133 -48.5q-67 0 -100 29.5t-33 75.5zM612 979q0 65 57 120.5t142 55.5q54 0 85.5 -35.5t31.5 -85.5q0 -63 -48.5 -111.5t-134.5 -48.5q-67 0 -100 29.5t-33 75.5z" />
<glyph unicode="&#xa9;" horiz-adv-x="1327" d="M205 590q0 190 135 325.5t324 135.5q190 0 324 -135t134 -326t-134 -326t-324 -135q-189 0 -324 135.5t-135 325.5zM283 590q0 -158 112 -270.5t269 -112.5q158 0 269 112t111 271t-111 271t-269 112q-157 0 -269 -112.5t-112 -270.5zM424 582q0 113 74 194.5t204 81.5 q88 0 133.5 -41t45.5 -98q0 -44 -29 -76.5t-78 -32.5q-32 0 -55 13q29 53 29 108q0 70 -41 70q-38 0 -63.5 -69.5t-25.5 -156.5q0 -82 25 -138t74 -56q75 0 123 104q32 -13 32 -53q0 -43 -45 -78t-135 -35q-121 0 -194.5 61.5t-73.5 201.5z" />
<glyph unicode="&#xaa;" horiz-adv-x="696" d="M104 936q0 58 17.5 104t44 74t61 47t66 26t61.5 7q47 0 47 -35q-51 0 -85.5 -68.5t-34.5 -134.5q0 -57 28 -57q41 0 85.5 81t47.5 194v12q0 43 -35.5 72.5t-99.5 29.5q-68 0 -112 -33q-15 11 -15 39q0 42 33 78.5t96 36.5q24 0 56 -5t70 -17.5t69.5 -30.5t52.5 -47.5 t21 -65.5q0 -109 15 -211t40 -102q18 0 18 -8q0 -23 -62 -51.5t-97 -28.5q-24 0 -39 21.5t-15 64.5v45q-61 -152 -159 -152q-49 0 -112 34t-63 81z" />
<glyph unicode="&#xab;" horiz-adv-x="1007" d="M260 375q0 50 65 128.5t142.5 136.5t114.5 58q24 0 24 -30q0 -19 -8 -38.5t-16 -19.5q-28 0 -82 -56.5t-54 -92.5t58.5 -124.5t87.5 -88.5q10 -10 10 -25q0 -39 -54 -86t-99 -47q-42 0 -88.5 60.5t-73.5 127t-27 97.5zM600 375q0 50 64.5 128.5t142 136.5t115.5 58 q24 0 24 -30q0 -19 -8 -38.5t-16 -19.5q-29 0 -83.5 -56t-54.5 -93q0 -36 58.5 -124.5t87.5 -88.5q10 -10 10 -25q0 -39 -54.5 -86t-99.5 -47q-42 0 -87.5 60.5t-72 127t-26.5 97.5z" />
<glyph unicode="&#xad;" horiz-adv-x="1089" d="M244 354q0 58 32 94.5t101 36.5q71 0 200 -8t191 -8q146 0 260 31q12 -34 12 -60q0 -52 -41 -85t-92 -43.5t-112 -10.5q-74 0 -255 26.5t-296 26.5z" />
<glyph unicode="&#xae;" horiz-adv-x="1327" d="M205 590q0 191 134.5 326t324.5 135t324 -135t134 -326t-134 -326t-324 -135t-324.5 135t-134.5 326zM283 590q0 -158 111.5 -270.5t269.5 -112.5t269 112t111 271t-111 271t-269 112t-269.5 -112.5t-111.5 -270.5zM385 766q0 23 62.5 51.5t97.5 28.5q25 0 40 -22t15 -64 q0 -2 -4 -64q28 74 69.5 121t94.5 47q49 0 110.5 -33.5t61.5 -80.5q0 -89 -44 -150t-112 -94q25 -4 43.5 -18.5t27.5 -30t21.5 -27.5t26.5 -12q19 0 37 18q14 -14 14 -35q0 -33 -39 -58.5t-104 -25.5q-35 0 -61 15.5t-40 38t-24 45t-19.5 40t-19.5 19.5h-2q-6 0 -11 7t-5 20 q36 0 67.5 41.5t48.5 95t17 96.5q0 53 -27 53q-35 0 -81 -119.5t-54 -222.5q3 -74 14 -100q-33 -33 -104 -33q-31 0 -44.5 69t-13.5 152.5t-8 152.5t-30 69q-21 0 -21 10z" />
<glyph unicode="&#xaf;" horiz-adv-x="1015" d="M125 928q0 31 5 60t16.5 59.5t36 49.5t59.5 19h143q124 0 209.5 7t179.5 30q17 -44 17 -82q0 -66 -45.5 -102.5t-116.5 -36.5q-74 0 -231.5 -2t-272.5 -2z" />
<glyph unicode="&#xb0;" horiz-adv-x="577" d="M125 1106q0 77 56 134.5t157 57.5q88 0 138 -48t50 -115q0 -74 -61.5 -129.5t-175.5 -55.5q-79 0 -121.5 45.5t-42.5 110.5zM276 1114q0 -36 11 -62t32 -26q26 0 44 38.5t18 84.5q0 33 -11 55.5t-32 22.5q-30 0 -46 -33.5t-16 -79.5z" />
<glyph unicode="&#xb1;" horiz-adv-x="919" d="M61 176q0 57 33.5 94t102.5 37q71 0 199 -8t190 -8q146 0 260 31q12 -34 12 -62q0 -40 -22.5 -68t-60.5 -42.5t-77.5 -20.5t-83.5 -6q-74 0 -255 26.5t-298 26.5zM61 737q0 57 33.5 94t102.5 37q38 0 116 -4q0 12 1 33t1 31q0 85 -12.5 126.5t-44.5 41.5q0 50 74.5 82 t156.5 32q134 0 134 -96q0 -24 -4 -57.5t-8.5 -59t-13.5 -74t-13 -73.5q141 0 262 33q12 -34 12 -62q0 -40 -22.5 -68t-60.5 -42.5t-77.5 -20.5t-83.5 -6q-41 0 -59 2q-16 -122 -16 -182q0 -22 4 -68q-25 -21 -71.5 -32t-94.5 -11q-41 0 -56.5 43t-15.5 129q0 105 2 154 q-137 18 -246 18z" />
<glyph unicode="&#xb2;" horiz-adv-x="794" d="M98 764q0 41 35 87.5t85 89.5t100 89.5t85 105t35 117.5v11q0 21 -0.5 30.5t-2 28t-5.5 28t-11 20.5t-19.5 15.5t-28.5 4.5q-35 0 -53.5 -38t-18.5 -85q0 -30 7.5 -51t19.5 -21t12 -12q0 -7 -6.5 -14t-16.5 -7q-82 0 -131 31.5t-49 83.5q0 48 25 85.5t63.5 58.5 t79.5 31.5t80 10.5q24 0 66 -17.5t88 -47.5t79 -78.5t33 -101.5q0 -65 -32.5 -121.5t-80.5 -93t-105 -68.5t-105 -52t-80.5 -38.5t-32.5 -32.5q0 -8 20 -8q26 0 149.5 22.5t172.5 22.5q56 0 86.5 -29t30.5 -69q0 -47 -20 -84t-48 -37q-18 0 -18 14q0 23 -78 23 q-37 0 -138.5 -7.5t-148.5 -7.5q-28 0 -75.5 37.5t-47.5 73.5z" />
<glyph unicode="&#xb3;" horiz-adv-x="794" d="M102 827q0 57 46 96.5t128 39.5q25 0 25 -19q0 -7 -4.5 -12.5t-11.5 -5.5q-9 0 -17 -24.5t-8 -57.5q0 -55 23 -96t73 -41q58 0 91.5 48.5t33.5 114.5q0 65 -33 112.5t-92 47.5q-35 0 -46 19t-11 53q68 0 103.5 50.5t35.5 117.5q0 49 -20 85t-53 36q-43 0 -62.5 -36.5 t-19.5 -84.5q0 -60 14 -60q8 0 8 -14q0 -16 -24 -16q-67 0 -105.5 34.5t-38.5 83.5q0 65 63 114.5t179 49.5q39 0 96.5 -29t102.5 -75t45 -86q0 -143 -138 -195q55 -16 95.5 -42t60 -53.5t28.5 -50.5t9 -42q0 -109 -79.5 -178.5t-246.5 -69.5q-120 0 -185 50t-65 136z" />
<glyph unicode="&#xb4;" d="M514 956q0 49 38 129t89 142.5t84 62.5q75 0 144 -37.5t69 -89.5q0 -40 -71.5 -112.5t-158 -128.5t-126.5 -56q-42 0 -55 21t-13 69z" />
<glyph unicode="&#xb6;" horiz-adv-x="1077" d="M41 551q0 88 30.5 173.5t89 159t158 119t224.5 46.5q12 0 46 -1t56 -1q245 0 363 86q26 -56 26 -103v-10q-1 -46 -17.5 -77t-45.5 -45t-58 -19t-69 -5h-35q0 -189 17.5 -421.5t17.5 -288.5q0 -596 -369 -596q-52 0 -86.5 12t-50.5 34t-21.5 42.5t-5.5 46.5q0 10 1 25 t1 20q56 0 103 55t78.5 148t51.5 202.5t29 231.5q-101 -143 -305 -143q-106 0 -167.5 89.5t-61.5 219.5z" />
<glyph unicode="&#xb7;" horiz-adv-x="686" d="M264 377q0 64 57 119t142 55q54 0 85.5 -35.5t31.5 -85.5q0 -62 -47.5 -110t-133.5 -48q-67 0 -101 30t-34 75z" />
<glyph unicode="&#xb8;" horiz-adv-x="796" d="M109 -274q0 33 8.5 57t17.5 24l8 -8q46 -43 95 -43q33 0 56 19t23 41q0 43 -17 105.5t-17 82.5q0 28 21.5 50t51.5 22q31 0 56 -25q-15 -15 -15 -33q0 -22 27.5 -60.5t55.5 -89t28 -101.5q0 -103 -65 -158t-152 -55q-76 0 -129 46.5t-53 125.5z" />
<glyph unicode="&#xb9;" horiz-adv-x="548" d="M102 1360q27 0 71 26t81 52t47 26q70 0 70 -243q0 -48 -3 -147t-3 -142q0 -180 45 -180q19 0 25.5 -3.5t6.5 -13.5q0 -36 -66 -65t-124 -29q-41 0 -67.5 34.5t-26.5 102.5q0 2 19.5 190.5t19.5 307.5q0 19 -6 23t-31 4q-23 0 -40.5 13.5t-17.5 43.5z" />
<glyph unicode="&#xba;" horiz-adv-x="643" d="M102 1114q0 130 70.5 202.5t204.5 72.5q205 0 205 -248q0 -77 -29.5 -145t-96 -115t-159.5 -47q-63 0 -108.5 41.5t-66 103.5t-20.5 135zM287 1096q0 -78 16.5 -132.5t46.5 -54.5q34 0 59 83t25 175q0 67 -15.5 109.5t-47.5 42.5q-40 0 -62 -66.5t-22 -156.5z" />
<glyph unicode="&#xbb;" horiz-adv-x="1040" d="M252 121q0 19 8 38t16 19q29 0 83.5 56.5t54.5 91.5q0 36 -58.5 125.5t-87.5 89.5q-10 10 -10 24q0 38 55 85.5t99 47.5q42 0 87.5 -60.5t72 -126.5t26.5 -97q0 -51 -64.5 -130t-142 -136.5t-115.5 -57.5q-24 0 -24 31zM592 121q0 19 8 38t16 19q28 0 82 56.5t54 91.5 q0 36 -58.5 125.5t-87.5 89.5q-10 10 -10 24q0 38 55 85.5t99 47.5q42 0 88 -60.5t73 -126.5t27 -97q0 -51 -65 -130t-142.5 -136.5t-114.5 -57.5q-24 0 -24 31z" />
<glyph unicode="&#xbc;" horiz-adv-x="1431" d="M102 1360q27 0 71.5 26t81.5 52t46 26q70 0 70 -237q0 -49 -3 -150t-3 -145q0 -180 47 -180q32 0 32 -17q0 -36 -66 -65t-126 -29q-41 0 -66.5 34t-25.5 103q0 2 18.5 190.5t18.5 307.5q0 19 -6 23t-31 4q-22 0 -40 13.5t-18 43.5zM150 76q0 72 82.5 214t200 301.5 t235 318.5t200 297.5t82.5 205.5q0 31 -16 47q35 35 80 35q65 0 123.5 -67t58.5 -132q0 -37 -48 -110.5t-124.5 -166.5t-169.5 -202.5t-186 -230t-169.5 -237t-124.5 -236t-48 -215.5q-77 0 -126.5 47.5t-49.5 130.5zM727 360q0 14 30.5 47.5t73.5 76.5t86.5 91t74 101.5 t30.5 95.5q0 16 -10 16q-4 0 -7.5 4t-3.5 7q0 12 23 12q172 0 172 -96q0 -60 -27.5 -118t-67 -100t-79 -75.5t-67 -55.5t-27.5 -30q0 -23 51 -23q29 0 100 11q1 0 4 1t4 1q7 58 7 106q0 22 38 45t66 23q24 0 31.5 -39t7.5 -111q40 4 53 4q37 0 57.5 -20t20.5 -47 q0 -25 -16 -41q-39 20 -115 20q0 -82 11 -128t46 -46q18 0 24.5 -3.5t6.5 -12.5q0 -35 -64.5 -63.5t-121.5 -28.5q-37 0 -63.5 33t-26.5 83q0 11 5 32.5t13 57t14 70.5q-196 -14 -227 -14q-28 0 -77.5 38.5t-49.5 75.5z" />
<glyph unicode="&#xbd;" horiz-adv-x="1490" d="M102 1360q27 0 71 26t81 52t47 26q70 0 70 -243q0 -48 -3 -147t-3 -142q0 -180 45 -180q19 0 25.5 -3.5t6.5 -13.5q0 -36 -66 -65t-124 -29q-41 0 -67.5 34.5t-26.5 102.5q0 2 19.5 190.5t19.5 307.5q0 19 -6 23t-31 4q-23 0 -40.5 13.5t-17.5 43.5zM150 76 q0 72 82.5 214t200 301.5t235 318.5t200 297.5t82.5 205.5q0 31 -16 47q35 35 80 35q65 0 122.5 -66.5t57.5 -132.5q0 -37 -48 -110.5t-124.5 -166.5t-169 -202.5t-185 -230t-169 -237t-124.5 -236t-48 -215.5q-77 0 -126.5 47.5t-49.5 130.5zM815 106q0 41 35 87.5t85 90 t100 90t85 105t35 117.5v10q0 24 -0.5 36.5t-4 33t-10 30.5t-20 18.5t-33.5 8.5q-35 0 -53 -37.5t-18 -85.5q0 -30 7 -50.5t19 -20.5q13 0 13 -13q0 -7 -6.5 -13.5t-16.5 -6.5q-82 0 -131 31.5t-49 83.5q0 48 25 85.5t63.5 58.5t79.5 31.5t80 10.5q18 0 49.5 -10.5t69 -32.5 t70.5 -50.5t55 -69t22 -83.5q0 -65 -32.5 -121.5t-80.5 -93t-105 -68.5t-105 -51.5t-80.5 -38t-32.5 -32.5q0 -9 20 -9q26 0 149.5 23t172.5 23q56 0 86.5 -29.5t30.5 -69.5q0 -47 -20 -84t-48 -37q-18 0 -18 15q0 22 -78 22q-37 0 -138.5 -7t-148.5 -7q-28 0 -75.5 37 t-47.5 73z" />
<glyph unicode="&#xbe;" horiz-adv-x="1605" d="M102 827q0 57 46 96.5t128 39.5q25 0 25 -19q0 -7 -4.5 -12.5t-11.5 -5.5q-9 0 -17 -24.5t-8 -57.5q0 -55 23 -96t73 -41q58 0 91.5 48.5t33.5 114.5q0 65 -33 112.5t-92 47.5q-35 0 -46 19t-11 53q68 0 103.5 50.5t35.5 117.5q0 49 -20 85t-53 36q-43 0 -62.5 -36.5 t-19.5 -84.5q0 -60 14 -60q8 0 8 -14q0 -16 -24 -16q-67 0 -105.5 34.5t-38.5 83.5q0 65 63 114.5t179 49.5q39 0 96.5 -29t102.5 -75t45 -86q0 -143 -138 -195q55 -16 95.5 -42t60 -53.5t28.5 -50.5t9 -42q0 -109 -79.5 -178.5t-246.5 -69.5q-120 0 -185 50t-65 136z M326 76q0 72 82.5 214t200 301.5t235 318.5t200 297.5t82.5 205.5q0 31 -16 47q35 35 80 35q65 0 122.5 -66.5t57.5 -132.5q0 -37 -48 -110.5t-124.5 -166.5t-169 -202.5t-185 -230t-169 -237t-124.5 -236t-48 -215.5q-77 0 -126.5 47.5t-49.5 130.5zM903 360 q0 14 30.5 47.5t73.5 76.5t86.5 91t74 101.5t30.5 95.5q0 16 -12 16q-8 0 -8 11q0 12 20 12q172 0 172 -96q0 -60 -27.5 -118t-66.5 -100t-78 -75.5t-66.5 -55.5t-27.5 -30q0 -23 51 -23q29 0 100 11q1 0 4.5 1t4.5 1q6 49 6 106q0 22 38 45t66 23q24 0 31.5 -39t7.5 -111 q36 4 53 4q37 0 57.5 -20t20.5 -47q0 -25 -16 -41q-39 20 -117 20q0 -82 11 -128t46 -46q33 0 33 -16q0 -34 -65 -63t-123 -29q-37 0 -63.5 33t-26.5 83q0 11 5 32.5t13 57t14 70.5q-191 -14 -225 -14q-29 0 -78 38t-49 76z" />
<glyph unicode="&#xbf;" horiz-adv-x="921" d="M61 -356q0 51 12.5 105t41 108t69.5 96.5t102.5 69t135.5 26.5q27 0 27 53q0 39 -16.5 125.5t-16.5 102.5q95 20 176 20q23 0 41.5 -4.5t32 -17.5t22.5 -24.5t15 -36t9.5 -41.5t4.5 -51.5t1.5 -55.5t0.5 -64v-24q0 -20 -19 -33.5t-49 -22.5t-66.5 -20t-73 -32t-66.5 -52 t-49 -87t-19 -130q0 -78 41 -136.5t106 -58.5q37 0 68 28t49 69t27.5 82.5t9.5 74.5q0 43 -14 43q-11 0 -11 17q0 14 10.5 26.5t30.5 12.5q228 0 228 -224q0 -72 -79 -142.5t-198 -113.5t-233 -43q-98 0 -181 57t-126.5 138t-43.5 160zM373 582q0 74 34.5 126t102.5 52 q76 0 127 -24t51 -66q0 -75 -39 -132t-119 -57q-61 0 -109 28t-48 73z" />
<glyph unicode="&#xc0;" horiz-adv-x="2428" d="M43 537q0 115 35.5 224t98 195t158.5 138.5t208 52.5q58 0 104 -13.5t69.5 -34t35.5 -39t12 -32.5q0 -12 -8 -12q-67 0 -124 -68.5t-88.5 -173.5t-31.5 -217q0 -79 17.5 -148t53 -126t97.5 -90t143 -33q122 0 216 89.5t173 250.5q-75 37 -75 114q0 23 14 70 q52 -28 127 -37q26 62 59 149t57 153.5t57 146t61 137.5t65 115.5t73.5 94t82.5 59t96 22.5q61 0 124.5 -28t111.5 -70.5t79 -94.5t31 -98q0 -72 2.5 -166t9 -223.5t19.5 -248.5t30.5 -223.5t45.5 -167.5t63 -63q38 0 50.5 -5t12.5 -23q0 -44 -71.5 -87t-163 -67.5 t-160.5 -24.5q-56 0 -94.5 39.5t-58.5 113.5t-28.5 160t-8.5 199v105q-50 -10 -150 -34t-170 -37t-117 -13h-20q-55 -116 -118 -206.5t-146.5 -167t-192 -118t-235.5 -41.5q-129 0 -235.5 34t-179 91.5t-122 135.5t-72 163.5t-22.5 178.5zM1442 643q68 2 203 14t184 15 q3 73 14.5 260.5t11.5 263.5q0 182 -47 182q-44 0 -82 -38.5t-73.5 -118t-63 -159t-70.5 -206t-77 -213.5zM1630 1923q0 30 38.5 51t90.5 21q128 0 196 -91.5t68 -252.5q0 -30 -21 -43t-52 -13q-48 0 -125.5 63t-136 142t-58.5 123z" />
<glyph unicode="&#xc1;" horiz-adv-x="2428" d="M43 537q0 115 35.5 224t98 195t158.5 138.5t208 52.5q58 0 104 -13.5t69.5 -34t35.5 -39t12 -32.5q0 -12 -8 -12q-67 0 -124 -68.5t-88.5 -173.5t-31.5 -217q0 -79 17.5 -148t53 -126t97.5 -90t143 -33q122 0 216 89.5t173 250.5q-75 37 -75 114q0 23 14 70 q52 -28 127 -37q26 62 59 149t57 153.5t57 146t61 137.5t65 115.5t73.5 94t82.5 59t96 22.5q61 0 124.5 -28t111.5 -70.5t79 -94.5t31 -98q0 -72 2.5 -166t9 -223.5t19.5 -248.5t30.5 -223.5t45.5 -167.5t63 -63q38 0 50.5 -5t12.5 -23q0 -44 -71.5 -87t-163 -67.5 t-160.5 -24.5q-56 0 -94.5 39.5t-58.5 113.5t-28.5 160t-8.5 199v105q-50 -10 -150 -34t-170 -37t-117 -13h-20q-55 -116 -118 -206.5t-146.5 -167t-192 -118t-235.5 -41.5q-129 0 -235.5 34t-179 91.5t-122 135.5t-72 163.5t-22.5 178.5zM1442 643q68 2 203 14t184 15 q3 73 14.5 260.5t11.5 263.5q0 182 -47 182q-44 0 -82 -38.5t-73.5 -118t-63 -159t-70.5 -206t-77 -213.5zM1737 1722q0 49 38 129t89 142.5t84 62.5q75 0 144 -37.5t69 -89.5q0 -40 -72 -112.5t-158.5 -128.5t-126.5 -56q-41 0 -54 20.5t-13 69.5z" />
<glyph unicode="&#xc2;" horiz-adv-x="2428" d="M43 537q0 115 35.5 224t98 195t158.5 138.5t208 52.5q58 0 104 -13.5t69.5 -34t35.5 -39t12 -32.5q0 -12 -8 -12q-67 0 -124 -68.5t-88.5 -173.5t-31.5 -217q0 -79 17.5 -148t53 -126t97.5 -90t143 -33q122 0 216 89.5t173 250.5q-75 37 -75 114q0 23 14 70 q52 -28 127 -37q26 62 59 149t57 153.5t57 146t61 137.5t65 115.5t73.5 94t82.5 59t96 22.5q61 0 124.5 -28t111.5 -70.5t79 -94.5t31 -98q0 -72 2.5 -166t9 -223.5t19.5 -248.5t30.5 -223.5t45.5 -167.5t63 -63q38 0 50.5 -5t12.5 -23q0 -44 -71.5 -87t-163 -67.5 t-160.5 -24.5q-56 0 -94.5 39.5t-58.5 113.5t-28.5 160t-8.5 199v105q-50 -10 -150 -34t-170 -37t-117 -13h-20q-55 -116 -118 -206.5t-146.5 -167t-192 -118t-235.5 -41.5q-129 0 -235.5 34t-179 91.5t-122 135.5t-72 163.5t-22.5 178.5zM1442 643q68 2 203 14t184 15 q3 73 14.5 260.5t11.5 263.5q0 182 -47 182q-44 0 -82 -38.5t-73.5 -118t-63 -159t-70.5 -206t-77 -213.5zM1552 1626q0 51 48.5 129.5t128.5 141.5t155 63q28 0 78.5 -43.5t102.5 -87t85 -43.5q19 0 33 14q21 -25 21 -49q0 -54 -57.5 -103t-135.5 -49q-40 0 -74 16 t-57.5 39t-43 46t-39.5 39t-38 16q-46 0 -82.5 -50t-36.5 -79q0 -8 -19.5 -17.5t-37.5 -9.5q-31 0 -31 27z" />
<glyph unicode="&#xc3;" horiz-adv-x="2428" d="M43 537q0 115 35.5 224t98 195t158.5 138.5t208 52.5q58 0 104 -13.5t69.5 -34t35.5 -39t12 -32.5q0 -12 -8 -12q-67 0 -124 -68.5t-88.5 -173.5t-31.5 -217q0 -79 17.5 -148t53 -126t97.5 -90t143 -33q122 0 216 89.5t173 250.5q-75 37 -75 114q0 23 14 70 q52 -28 127 -37q26 62 59 149t57 153.5t57 146t61 137.5t65 115.5t73.5 94t82.5 59t96 22.5q61 0 124.5 -28t111.5 -70.5t79 -94.5t31 -98q0 -72 2.5 -166t9 -223.5t19.5 -248.5t30.5 -223.5t45.5 -167.5t63 -63q38 0 50.5 -5t12.5 -23q0 -44 -71.5 -87t-163 -67.5 t-160.5 -24.5q-56 0 -94.5 39.5t-58.5 113.5t-28.5 160t-8.5 199v105q-50 -10 -150 -34t-170 -37t-117 -13h-20q-55 -116 -118 -206.5t-146.5 -167t-192 -118t-235.5 -41.5q-129 0 -235.5 34t-179 91.5t-122 135.5t-72 163.5t-22.5 178.5zM1442 643q68 2 203 14t184 15 q3 73 14.5 260.5t11.5 263.5q0 182 -47 182q-44 0 -82 -38.5t-73.5 -118t-63 -159t-70.5 -206t-77 -213.5zM1532 1686q0 65 38.5 110t125.5 45q45 0 118.5 -8t106.5 -8q111 0 209 69q24 -56 24 -106q0 -74 -48 -121t-136 -47q-61 0 -167 21.5t-150 21.5q-67 0 -113 -33 q-8 32 -8 56z" />
<glyph unicode="&#xc4;" horiz-adv-x="2428" d="M43 537q0 115 35.5 224t98 195t158.5 138.5t208 52.5q58 0 104 -13.5t69.5 -34t35.5 -39t12 -32.5q0 -12 -8 -12q-67 0 -124 -68.5t-88.5 -173.5t-31.5 -217q0 -79 17.5 -148t53 -126t97.5 -90t143 -33q122 0 216 89.5t173 250.5q-75 37 -75 114q0 23 14 70 q52 -28 127 -37q26 62 59 149t57 153.5t57 146t61 137.5t65 115.5t73.5 94t82.5 59t96 22.5q61 0 124.5 -28t111.5 -70.5t79 -94.5t31 -98q0 -72 2.5 -166t9 -223.5t19.5 -248.5t30.5 -223.5t45.5 -167.5t63 -63q38 0 50.5 -5t12.5 -23q0 -44 -71.5 -87t-163 -67.5 t-160.5 -24.5q-56 0 -94.5 39.5t-58.5 113.5t-28.5 160t-8.5 199v105q-50 -10 -150 -34t-170 -37t-117 -13h-20q-55 -116 -118 -206.5t-146.5 -167t-192 -118t-235.5 -41.5q-129 0 -235.5 34t-179 91.5t-122 135.5t-72 163.5t-22.5 178.5zM1442 643q68 2 203 14t184 15 q3 73 14.5 260.5t11.5 263.5q0 182 -47 182q-44 0 -82 -38.5t-73.5 -118t-63 -159t-70.5 -206t-77 -213.5zM1516 1710q0 65 56 120.5t140 55.5q56 0 86.5 -35t30.5 -86q0 -63 -47 -111t-133 -48q-67 0 -100 29t-33 75zM1917 1710q0 65 57 120.5t142 55.5q54 0 85 -35.5 t31 -85.5q0 -63 -48 -111t-134 -48q-67 0 -100 29t-33 75z" />
<glyph unicode="&#xc5;" horiz-adv-x="2428" d="M43 537q0 115 35.5 224t98 195t158.5 138.5t208 52.5q58 0 104 -13.5t69.5 -34t35.5 -39t12 -32.5q0 -12 -8 -12q-67 0 -124 -68.5t-88.5 -173.5t-31.5 -217q0 -79 17.5 -148t53 -126t97.5 -90t143 -33q122 0 216 89.5t173 250.5q-75 37 -75 114q0 23 14 70 q52 -28 127 -37q26 62 59 149t57 153.5t57 146t61 137.5t65 115.5t73.5 94t82.5 59t96 22.5q61 0 124.5 -28t111.5 -70.5t79 -94.5t31 -98q0 -72 2.5 -166t9 -223.5t19.5 -248.5t30.5 -223.5t45.5 -167.5t63 -63q38 0 50.5 -5t12.5 -23q0 -44 -71.5 -87t-163 -67.5 t-160.5 -24.5q-56 0 -94.5 39.5t-58.5 113.5t-28.5 160t-8.5 199v105q-50 -10 -150 -34t-170 -37t-117 -13h-20q-55 -116 -118 -206.5t-146.5 -167t-192 -118t-235.5 -41.5q-129 0 -235.5 34t-179 91.5t-122 135.5t-72 163.5t-22.5 178.5zM1442 643q68 2 203 14t184 15 q3 73 14.5 260.5t11.5 263.5q0 182 -47 182q-44 0 -82 -38.5t-73.5 -118t-63 -159t-70.5 -206t-77 -213.5zM1653 1747q0 80 59.5 127t175.5 47q76 0 128 -38.5t52 -90.5q0 -37 -10 -67t-36 -58.5t-80 -44.5t-132 -16q-77 0 -117 40.5t-40 100.5zM1821 1747q0 -29 11 -49.5 t30 -20.5q28 0 46.5 35.5t18.5 75.5q0 27 -10 44t-29 17q-31 0 -49 -31.5t-18 -70.5z" />
<glyph unicode="&#xc6;" horiz-adv-x="1906" d="M82 621q0 24 14 71q54 -31 133 -37q38 163 99 316.5t136 278.5t165.5 200.5t179.5 75.5q66 0 133 -27t121 -74q79 13 217 43t247.5 49t188.5 19q57 0 98.5 -20t62.5 -51.5t30.5 -62.5t9.5 -61q0 -64 -15 -128t-45 -110t-67 -46q-20 0 -28.5 11t-8.5 44q0 66 -194 66 q-53 0 -188 -7.5t-206 -7.5v-28q-4 -118 -4 -213q0 -54 4 -164q154 33 197 33q110 0 177 -35.5t67 -108.5q0 -29 -15 -69q-77 45 -284 45q-54 0 -133 -7q45 -559 284 -559q43 0 90.5 32.5t82.5 77t58 90.5t23 73q34 -33 56 -80.5t22 -91.5q0 -234 -344 -234q-86 0 -157 20.5 t-123 41t-91 20.5q-137 0 -197.5 111.5t-60.5 331.5q0 77 2 118q-60 -12 -179 -37.5t-169 -35.5q-2 -57 -2 -162q0 -290 20 -348q-49 -25 -149 -25q-71 0 -116.5 83.5t-45.5 215.5q0 104 19 234q-115 33 -115 129zM479 653q150 7 344 37l4 86q11 291 11 301q0 141 -18.5 217 t-65.5 76q-62 0 -111.5 -60.5t-81.5 -167t-51.5 -226.5t-30.5 -263z" />
<glyph unicode="&#xc7;" horiz-adv-x="2131" d="M0 817q0 127 36 233t95 177t137 120.5t160.5 72t167.5 22.5q52 0 106 -10.5t93.5 -22.5t98 -39.5t86.5 -42.5t93.5 -52.5t87.5 -49.5q160 284 649 284q134 0 205.5 -58.5t71.5 -147.5q0 -57 -30 -114.5t-85 -105t-142.5 -77.5t-191.5 -31h-6q-46 0 -116 4 q-17 -129 -17 -236q0 -175 30 -325t96 -251t157 -101q75 0 154.5 79t111.5 187q82 -82 82 -166q0 -98 -112 -163.5t-292 -65.5q-34 0 -69 6q4 -20 32 -58.5t52 -86t24 -95.5q0 -103 -65 -158t-152 -55q-76 0 -129 46.5t-53 125.5q0 32 8.5 56t18.5 24q2 0 4 -2 q47 -47 98 -47q34 0 57 18.5t23 40.5q0 43 -17.5 106t-17.5 83q0 21 8 34q-105 45 -195 143.5t-148.5 220.5t-91 256.5t-32.5 258.5q0 137 31 252q-72 37 -105.5 53t-102 33.5t-140.5 17.5q-91 0 -160.5 -31.5t-110.5 -85.5t-61 -120t-20 -142q0 -109 37.5 -211.5 t107.5 -169.5t154 -67q45 0 45 -18q0 -7 -8 -15q-105 -102 -256 -102q-90 0 -177.5 40t-157.5 111t-113.5 180.5t-43.5 237.5zM1534 1087q43 -6 88 -6h2q87 1 152 73.5t65 145.5q0 39 -23.5 62.5t-72.5 23.5q-72 0 -126 -81.5t-85 -217.5z" />
<glyph unicode="&#xc8;" horiz-adv-x="2117" d="M0 909q0 76 28.5 158t90.5 163t149 144.5t215 103.5t277 40q111 0 230 -15t213.5 -32.5t259.5 -32.5t356 -15q66 0 113.5 9t71.5 23.5t34 29.5t10 31q0 10 8 16t19 6q20 0 36.5 -18t16.5 -52q0 -67 -24.5 -132.5t-68.5 -119.5t-113.5 -87t-152.5 -33q-162 0 -296 41 q-46 -130 -46 -373v-47h7q45 -4 129 -4q180 0 256 45q14 -38 14 -70q0 -73 -67 -107t-177 -34q-57 0 -151 16q11 -102 31.5 -188.5t52.5 -158t79.5 -112.5t106.5 -41q75 0 152.5 78.5t109.5 188.5q78 -96 78 -174q0 -70 -59.5 -121t-147 -74.5t-188.5 -23.5 q-115 0 -214.5 56.5t-171 153.5t-121.5 219t-75 261q-82 10 -143 10q0 39 21 69.5t67 30.5h41q-8 68 -8 152q0 297 165 371l-22 12q-57 34 -88.5 50.5t-83.5 39t-104.5 32t-112.5 9.5q-104 0 -183 -39t-124.5 -106t-67.5 -147t-22 -171q0 -123 35.5 -237t99 -186.5 t137.5 -72.5q47 0 47 -16q0 -5 -10 -18q-99 -99 -240 -99q-87 0 -171 41t-152 115t-110 189.5t-42 252.5zM1432 1858q0 30 38.5 50.5t90.5 20.5q128 0 196 -91.5t68 -252.5q0 -55 -74 -55q-48 0 -125 63t-135.5 142t-58.5 123z" />
<glyph unicode="&#xc9;" horiz-adv-x="2117" d="M0 909q0 76 28.5 158t90.5 163t149 144.5t215 103.5t277 40q111 0 230 -15t213.5 -32.5t259.5 -32.5t356 -15q66 0 113.5 9t71.5 23.5t34 29.5t10 31q0 10 8 16t19 6q20 0 36.5 -18t16.5 -52q0 -67 -24.5 -132.5t-68.5 -119.5t-113.5 -87t-152.5 -33q-162 0 -296 41 q-46 -130 -46 -373v-47h7q45 -4 129 -4q180 0 256 45q14 -38 14 -70q0 -73 -67 -107t-177 -34q-57 0 -151 16q11 -102 31.5 -188.5t52.5 -158t79.5 -112.5t106.5 -41q75 0 152.5 78.5t109.5 188.5q78 -96 78 -174q0 -70 -59.5 -121t-147 -74.5t-188.5 -23.5 q-115 0 -214.5 56.5t-171 153.5t-121.5 219t-75 261q-82 10 -143 10q0 39 21 69.5t67 30.5h41q-8 68 -8 152q0 297 165 371l-22 12q-57 34 -88.5 50.5t-83.5 39t-104.5 32t-112.5 9.5q-104 0 -183 -39t-124.5 -106t-67.5 -147t-22 -171q0 -123 35.5 -237t99 -186.5 t137.5 -72.5q47 0 47 -16q0 -5 -10 -18q-99 -99 -240 -99q-87 0 -171 41t-152 115t-110 189.5t-42 252.5zM1505 1614q0 49 38 129t89 142.5t84 62.5q75 0 144 -37.5t69 -89.5q0 -40 -71.5 -112.5t-158 -128.5t-126.5 -56q-42 0 -55 21t-13 69z" />
<glyph unicode="&#xca;" horiz-adv-x="2117" d="M0 909q0 76 28.5 158t90.5 163t149 144.5t215 103.5t277 40q111 0 230 -15t213.5 -32.5t259.5 -32.5t356 -15q66 0 113.5 9t71.5 23.5t34 29.5t10 31q0 10 8 16t19 6q20 0 36.5 -18t16.5 -52q0 -67 -24.5 -132.5t-68.5 -119.5t-113.5 -87t-152.5 -33q-162 0 -296 41 q-46 -130 -46 -373v-47h7q45 -4 129 -4q180 0 256 45q14 -38 14 -70q0 -73 -67 -107t-177 -34q-57 0 -151 16q11 -102 31.5 -188.5t52.5 -158t79.5 -112.5t106.5 -41q75 0 152.5 78.5t109.5 188.5q78 -96 78 -174q0 -70 -59.5 -121t-147 -74.5t-188.5 -23.5 q-115 0 -214.5 56.5t-171 153.5t-121.5 219t-75 261q-82 10 -143 10q0 39 21 69.5t67 30.5h41q-8 68 -8 152q0 297 165 371l-22 12q-57 34 -88.5 50.5t-83.5 39t-104.5 32t-112.5 9.5q-104 0 -183 -39t-124.5 -106t-67.5 -147t-22 -171q0 -123 35.5 -237t99 -186.5 t137.5 -72.5q47 0 47 -16q0 -5 -10 -18q-99 -99 -240 -99q-87 0 -171 41t-152 115t-110 189.5t-42 252.5zM1284 1561q0 51 48.5 129t128.5 141t155 63q28 0 78.5 -43.5t102.5 -87t85 -43.5q18 0 33 15q20 -23 20 -49q0 -54 -57 -103t-135 -49q-40 0 -74 16t-57.5 39t-43 46 t-39.5 39t-38 16q-46 0 -82.5 -50t-36.5 -79q0 -8 -19.5 -17.5t-37.5 -9.5q-31 0 -31 27z" />
<glyph unicode="&#xcb;" horiz-adv-x="2117" d="M0 909q0 76 28.5 158t90.5 163t149 144.5t215 103.5t277 40q111 0 230 -15t213.5 -32.5t259.5 -32.5t356 -15q66 0 113.5 9t71.5 23.5t34 29.5t10 31q0 10 8 16t19 6q20 0 36.5 -18t16.5 -52q0 -67 -24.5 -132.5t-68.5 -119.5t-113.5 -87t-152.5 -33q-162 0 -296 41 q-46 -130 -46 -373v-47h7q45 -4 129 -4q180 0 256 45q14 -38 14 -70q0 -73 -67 -107t-177 -34q-57 0 -151 16q11 -102 31.5 -188.5t52.5 -158t79.5 -112.5t106.5 -41q75 0 152.5 78.5t109.5 188.5q78 -96 78 -174q0 -70 -59.5 -121t-147 -74.5t-188.5 -23.5 q-115 0 -214.5 56.5t-171 153.5t-121.5 219t-75 261q-82 10 -143 10q0 39 21 69.5t67 30.5h41q-8 68 -8 152q0 297 165 371l-22 12q-57 34 -88.5 50.5t-83.5 39t-104.5 32t-112.5 9.5q-104 0 -183 -39t-124.5 -106t-67.5 -147t-22 -171q0 -123 35.5 -237t99 -186.5 t137.5 -72.5q47 0 47 -16q0 -5 -10 -18q-99 -99 -240 -99q-87 0 -171 41t-152 115t-110 189.5t-42 252.5zM1272 1647q0 65 56 120.5t140 55.5q56 0 86.5 -35t30.5 -86q0 -63 -47 -111.5t-133 -48.5q-67 0 -100 29.5t-33 75.5zM1673 1647q0 65 57 120.5t142 55.5 q54 0 85.5 -35.5t31.5 -85.5q0 -63 -48.5 -111.5t-134.5 -48.5q-67 0 -100 29.5t-33 75.5z" />
<glyph unicode="&#xcc;" horiz-adv-x="1581" d="M0 961q0 288 155 452t427 164q96 0 225 -25.5t248.5 -66.5t202.5 -102.5t83 -125.5v-36q0 -15 -1 -73t-1 -101q0 -150 4.5 -283.5t17.5 -287t41.5 -244.5t70.5 -91q22 0 31 -0.5t22 -3t17.5 -9t4.5 -17.5q0 -44 -69 -87t-160 -67.5t-164 -24.5q-44 0 -76 23.5t-51 62.5 t-30 100t-15 123.5t-4 145.5q0 79 5 251t5 257q0 82 -4 147.5t-13.5 131.5t-27.5 114.5t-44.5 87t-66 58.5t-90.5 20q-89 0 -156.5 -36.5t-107 -99t-59 -138.5t-19.5 -164q0 -127 35.5 -246t101 -196.5t142.5 -77.5q47 0 47 -17q0 -6 -12 -18q-103 -103 -240 -103 q-69 0 -138 27t-129.5 80.5t-107 125t-73.5 168t-27 202.5zM903 1886q0 30 38.5 51t90.5 21q128 0 196 -91.5t68 -252.5q0 -55 -73 -55q-48 0 -125.5 62.5t-136 141.5t-58.5 123z" />
<glyph unicode="&#xcd;" horiz-adv-x="1581" d="M0 961q0 288 155 452t427 164q96 0 225 -25.5t248.5 -66.5t202.5 -102.5t83 -125.5v-36q0 -15 -1 -73t-1 -101q0 -150 4.5 -283.5t17.5 -287t41.5 -244.5t70.5 -91q22 0 31 -0.5t22 -3t17.5 -9t4.5 -17.5q0 -44 -69 -87t-160 -67.5t-164 -24.5q-44 0 -76 23.5t-51 62.5 t-30 100t-15 123.5t-4 145.5q0 79 5 251t5 257q0 82 -4 147.5t-13.5 131.5t-27.5 114.5t-44.5 87t-66 58.5t-90.5 20q-89 0 -156.5 -36.5t-107 -99t-59 -138.5t-19.5 -164q0 -127 35.5 -246t101 -196.5t142.5 -77.5q47 0 47 -17q0 -6 -12 -18q-103 -103 -240 -103 q-69 0 -138 27t-129.5 80.5t-107 125t-73.5 168t-27 202.5zM954 1708q0 49 38 129t89 142.5t84 62.5q75 0 144 -37.5t69 -89.5q0 -40 -71.5 -112.5t-158 -128.5t-126.5 -56q-42 0 -55 21t-13 69z" />
<glyph unicode="&#xce;" horiz-adv-x="1581" d="M0 961q0 288 155 452t427 164q96 0 225 -25.5t248.5 -66.5t202.5 -102.5t83 -125.5v-36q0 -15 -1 -73t-1 -101q0 -150 4.5 -283.5t17.5 -287t41.5 -244.5t70.5 -91q22 0 31 -0.5t22 -3t17.5 -9t4.5 -17.5q0 -44 -69 -87t-160 -67.5t-164 -24.5q-44 0 -76 23.5t-51 62.5 t-30 100t-15 123.5t-4 145.5q0 79 5 251t5 257q0 82 -4 147.5t-13.5 131.5t-27.5 114.5t-44.5 87t-66 58.5t-90.5 20q-89 0 -156.5 -36.5t-107 -99t-59 -138.5t-19.5 -164q0 -127 35.5 -246t101 -196.5t142.5 -77.5q47 0 47 -17q0 -6 -12 -18q-103 -103 -240 -103 q-69 0 -138 27t-129.5 80.5t-107 125t-73.5 168t-27 202.5zM748 1640q0 38 30 94.5t75 110t107 91.5t119 38q23 0 59.5 -27t70 -60t72.5 -60t65 -27q17 0 32 15q21 -25 21 -50q0 -54 -57.5 -102.5t-135.5 -48.5q-40 0 -74 16t-57.5 39t-43 45.5t-39.5 38.5t-38 16 q-46 0 -82 -50t-36 -79q0 -8 -20 -17t-38 -9q-30 0 -30 26z" />
<glyph unicode="&#xcf;" horiz-adv-x="1581" d="M0 961q0 288 155 452t427 164q96 0 225 -25.5t248.5 -66.5t202.5 -102.5t83 -125.5v-36q0 -15 -1 -73t-1 -101q0 -150 4.5 -283.5t17.5 -287t41.5 -244.5t70.5 -91q22 0 31 -0.5t22 -3t17.5 -9t4.5 -17.5q0 -44 -69 -87t-160 -67.5t-164 -24.5q-44 0 -76 23.5t-51 62.5 t-30 100t-15 123.5t-4 145.5q0 79 5 251t5 257q0 82 -4 147.5t-13.5 131.5t-27.5 114.5t-44.5 87t-66 58.5t-90.5 20q-89 0 -156.5 -36.5t-107 -99t-59 -138.5t-19.5 -164q0 -127 35.5 -246t101 -196.5t142.5 -77.5q47 0 47 -17q0 -6 -12 -18q-103 -103 -240 -103 q-69 0 -138 27t-129.5 80.5t-107 125t-73.5 168t-27 202.5zM702 1745q0 65 56.5 120.5t140.5 55.5q56 0 86.5 -35t30.5 -86q0 -63 -47 -111.5t-133 -48.5q-67 0 -100.5 29.5t-33.5 75.5zM1104 1745q0 65 57 120.5t142 55.5q54 0 85 -35.5t31 -85.5q0 -63 -48 -111.5 t-134 -48.5q-67 0 -100 29.5t-33 75.5z" />
<glyph unicode="&#xd0;" horiz-adv-x="2252" d="M-39 1448q0 38 18 62t37 24q21 0 21 -23q0 -45 115 -79.5t282 -34.5q142 0 287.5 21t252 46.5t268.5 46.5t333 21q142 0 262 -54.5t202.5 -149.5t128.5 -226.5t46 -284.5q0 -141 -29 -270t-90.5 -240.5t-149.5 -193.5t-213.5 -129t-275.5 -47q-92 0 -175 16t-135.5 39.5 t-83 49.5t-30.5 48q0 261 -12 528q-236 23 -408 23q0 27 5.5 53t19 56t44.5 48.5t75 18.5q66 0 254 -8q-16 257 -45 377q-146 -73 -260.5 -113.5t-217.5 -40.5q-136 0 -259 61t-195 157.5t-72 197.5zM1354 592q3 -109 14.5 -201.5t32 -166.5t52.5 -116t73 -42 q62 0 112.5 57.5t81.5 153.5t47.5 214.5t16.5 247.5q0 165 -36 306.5t-110 233t-172 91.5q-20 0 -34.5 -11t-29 -45.5t-23.5 -96t-16 -165.5t-9 -251q219 0 309 28q10 -33 10 -57q0 -80 -77 -130t-189 -50h-53z" />
<glyph unicode="&#xd1;" horiz-adv-x="2441" d="M2 258q0 114 35.5 222.5t98 194t158.5 137.5t208 52q56 0 98.5 -12t65 -30t33 -35t10.5 -31q0 -15 -11 -15q-80 0 -146.5 -69.5t-102 -176.5t-35.5 -221q0 -78 19 -146t57.5 -124t105.5 -88.5t154 -32.5q99 0 182.5 42t141 114t100.5 161.5t67.5 191.5t36.5 196.5 t12 183.5q0 200 -65 350q-80 103 -158 103q-68 0 -68 67q0 33 50.5 76t125.5 74t138 31q80 0 158.5 -62t142.5 -161t124.5 -218.5t113 -239.5t98.5 -219t89.5 -161t78.5 -62q39 0 39 119q0 202 -89 537t-198 479q71 41 209 41q94 0 165.5 -106.5t71.5 -248.5 q0 -278 -24.5 -653t-24.5 -385q0 -32 -57.5 -81t-134 -85.5t-125.5 -36.5q-38 0 -74.5 15t-70.5 48t-63.5 68.5t-62 93.5t-56.5 105.5t-56 121.5t-52.5 123.5t-53 130.5t-50.5 126q0 -106 -14.5 -214t-45 -217t-75 -207t-108.5 -183.5t-141.5 -147.5t-178.5 -97.5 t-215 -35.5q-129 0 -235.5 33.5t-179 90.5t-122 134.5t-72 162.5t-22.5 177zM1280 1688q0 76 60.5 137t166.5 61q75 0 197.5 -17.5t200.5 -17.5q44 0 73.5 12.5t53.5 53.5q55 -32 55 -90q0 -79 -90.5 -156.5t-184.5 -77.5q-46 0 -106 19.5t-143 39t-183 19.5 q-24 0 -41.5 -11t-17.5 -24q-12 0 -26.5 12t-14.5 40z" />
<glyph unicode="&#xd2;" horiz-adv-x="1355" d="M102 848q0 112 35.5 200.5t94 145.5t139.5 95t166.5 53.5t179.5 15.5q52 0 80 -42.5t28 -88.5q0 -26 -8 -37q-18 8 -53 8q-76 0 -131 -81t-80 -203t-25 -267q0 -151 27 -282t85.5 -218.5t137.5 -87.5q77 0 134 95t84.5 239.5t27.5 313.5q0 135 -19 259.5t-56.5 227 t-99.5 164t-140 61.5q-55 0 -99 -16q-14 14 -14 31q0 38 61 72t134 34q279 0 410.5 -131.5t131.5 -433.5q0 -175 -44.5 -359.5t-120.5 -337t-188 -250.5t-235 -98q-102 0 -193.5 40.5t-160.5 110.5t-125 161.5t-91 194t-54 207.5t-19 204zM526 1962q0 30 38.5 51t90.5 21 q128 0 196.5 -91.5t68.5 -252.5q0 -30 -21.5 -43t-52.5 -13q-48 0 -125.5 63t-136 142t-58.5 123z" />
<glyph unicode="&#xd3;" horiz-adv-x="1355" d="M102 848q0 112 35.5 200.5t94 145.5t139.5 95t166.5 53.5t179.5 15.5q52 0 80 -42.5t28 -88.5q0 -26 -8 -37q-18 8 -53 8q-76 0 -131 -81t-80 -203t-25 -267q0 -151 27 -282t85.5 -218.5t137.5 -87.5q77 0 134 95t84.5 239.5t27.5 313.5q0 135 -19 259.5t-56.5 227 t-99.5 164t-140 61.5q-55 0 -99 -16q-14 14 -14 31q0 38 61 72t134 34q279 0 410.5 -131.5t131.5 -433.5q0 -175 -44.5 -359.5t-120.5 -337t-188 -250.5t-235 -98q-102 0 -193.5 40.5t-160.5 110.5t-125 161.5t-91 194t-54 207.5t-19 204zM635 1683q0 49 38 129t89 142.5 t84 62.5q75 0 144 -37.5t69 -89.5q0 -40 -72 -112.5t-158.5 -128.5t-126.5 -56q-41 0 -54 20.5t-13 69.5z" />
<glyph unicode="&#xd4;" horiz-adv-x="1355" d="M102 848q0 112 35.5 200.5t94 145.5t139.5 95t166.5 53.5t179.5 15.5q52 0 80 -42.5t28 -88.5q0 -26 -8 -37q-18 8 -53 8q-76 0 -131 -81t-80 -203t-25 -267q0 -151 27 -282t85.5 -218.5t137.5 -87.5q77 0 134 95t84.5 239.5t27.5 313.5q0 135 -19 259.5t-56.5 227 t-99.5 164t-140 61.5q-55 0 -99 -16q-14 14 -14 31q0 38 61 72t134 34q279 0 410.5 -131.5t131.5 -433.5q0 -175 -44.5 -359.5t-120.5 -337t-188 -250.5t-235 -98q-102 0 -193.5 40.5t-160.5 110.5t-125 161.5t-91 194t-54 207.5t-19 204zM461 1622q0 51 48.5 129.5 t128.5 141.5t155 63q28 0 78.5 -43.5t102.5 -87t85 -43.5q19 0 33 14q20 -23 20 -49q0 -54 -57 -103t-135 -49q-40 0 -74 16t-57.5 39t-43 46t-39.5 39t-38 16q-46 0 -82.5 -50t-36.5 -79q0 -8 -19.5 -17.5t-37.5 -9.5q-31 0 -31 27z" />
<glyph unicode="&#xd5;" horiz-adv-x="1355" d="M102 848q0 112 35.5 200.5t94 145.5t139.5 95t166.5 53.5t179.5 15.5q52 0 80 -42.5t28 -88.5q0 -26 -8 -37q-18 8 -53 8q-76 0 -131 -81t-80 -203t-25 -267q0 -151 27 -282t85.5 -218.5t137.5 -87.5q77 0 134 95t84.5 239.5t27.5 313.5q0 135 -19 259.5t-56.5 227 t-99.5 164t-140 61.5q-55 0 -99 -16q-14 14 -14 31q0 38 61 72t134 34q279 0 410.5 -131.5t131.5 -433.5q0 -175 -44.5 -359.5t-120.5 -337t-188 -250.5t-235 -98q-102 0 -193.5 40.5t-160.5 110.5t-125 161.5t-91 194t-54 207.5t-19 204zM481 1690q0 65 38.5 110t125.5 45 q45 0 118.5 -8t106.5 -8q111 0 209 69q25 -58 25 -106q0 -74 -48 -121t-136 -47q-61 0 -167.5 21.5t-150.5 21.5q-67 0 -113 -33q-8 32 -8 56z" />
<glyph unicode="&#xd6;" horiz-adv-x="1355" d="M102 848q0 112 35.5 200.5t94 145.5t139.5 95t166.5 53.5t179.5 15.5q52 0 80 -42.5t28 -88.5q0 -26 -8 -37q-18 8 -53 8q-76 0 -131 -81t-80 -203t-25 -267q0 -151 27 -282t85.5 -218.5t137.5 -87.5q77 0 134 95t84.5 239.5t27.5 313.5q0 135 -19 259.5t-56.5 227 t-99.5 164t-140 61.5q-55 0 -99 -16q-14 14 -14 31q0 38 61 72t134 34q279 0 410.5 -131.5t131.5 -433.5q0 -175 -44.5 -359.5t-120.5 -337t-188 -250.5t-235 -98q-102 0 -193.5 40.5t-160.5 110.5t-125 161.5t-91 194t-54 207.5t-19 204zM434 1714q0 65 56.5 120.5 t140.5 55.5q56 0 86.5 -35t30.5 -86q0 -63 -47.5 -111t-133.5 -48q-67 0 -100 29t-33 75zM836 1714q0 65 56.5 120.5t141.5 55.5q54 0 85.5 -35.5t31.5 -85.5q0 -63 -48 -111t-134 -48q-67 0 -100 29t-33 75z" />
<glyph unicode="&#xd7;" horiz-adv-x="849" d="M74 799q0 63 60.5 140t129.5 77q71 0 236 -260q118 125 176 260q96 -47 96 -137q0 -106 -180 -275q42 -68 61 -97.5t48 -72t46.5 -59.5t30.5 -17q-13 -141 -121 -141q-32 0 -92 58.5t-153 166.5q-173 -147 -226 -225q-57 57 -57 111q0 68 41.5 123.5t126.5 126.5 q-81 90 -132 137t-79 47q-12 12 -12 37z" />
<glyph unicode="&#xd8;" horiz-adv-x="1355" d="M100 842q0 111 35 198.5t92.5 143.5t137.5 92.5t164.5 51.5t179.5 15q92 0 155 -77q3 12 7.5 36.5t7.5 36.5q-77 74 -170 74q-55 0 -99 -16q0 65 45 101t158 36q49 0 96 -6q19 171 19 254q116 0 155 -49t39 -170q0 -39 -12 -97q223 -127 223 -497q0 -175 -44.5 -359.5 t-120.5 -337t-188 -250.5t-235 -98q-20 0 -30 2q-31 -169 -31 -280q-73 0 -119.5 51t-46.5 172q0 41 12 106q-102 51 -185.5 149.5t-135.5 218t-80.5 248.5t-28.5 251zM526 639q0 -244 68 -412q16 57 73 258.5t99.5 361.5t75.5 308q-18 19 -42 28t-36 9q-76 0 -131.5 -81.5 t-81 -204.5t-25.5 -267zM741 57q18 -6 37 -6q80 0 143 101.5t95.5 257.5t32.5 331q0 182 -37 330q-19 -69 -67 -237.5t-77 -272.5t-66 -248.5t-61 -255.5z" />
<glyph unicode="&#xd9;" horiz-adv-x="2320" d="M0 924q0 181 66.5 319t198.5 217.5t315 79.5q106 0 240 -25t258 -67t208 -106.5t84 -135.5q0 -129 -23.5 -394.5t-23.5 -375.5q0 -130 25.5 -207t78.5 -77q60 0 118 87.5t101.5 226t75.5 302.5t45 324v180q0 38 45.5 75t102.5 57.5t100 20.5q45 0 45 -24q0 -247 10 -463 t31 -401t59 -292.5t89 -107.5q39 0 52 -6t13 -25q0 -48 -58.5 -93.5t-139.5 -71t-152 -25.5q-82 0 -134 67.5t-52 206.5q0 16 -0.5 59t-1.5 127.5t-2 147.5q-23 -97 -51.5 -182t-68 -164.5t-84 -135.5t-102 -90t-120.5 -34q-92 0 -183 48.5t-151 135.5t-60 185 q0 51 14.5 257t14.5 330q0 543 -242 543q-88 0 -154.5 -36t-105 -98t-57 -137.5t-18.5 -162.5q0 -127 35 -247.5t99 -198.5t138 -78q51 0 51 -13q0 -8 -14 -22q-105 -105 -238 -105q-88 0 -174.5 47.5t-153.5 127t-108 193t-41 237.5zM1286 1774q0 30 38.5 50.5t90.5 20.5 q128 0 196 -91.5t68 -252.5q0 -55 -73 -55q-48 0 -125.5 63t-136 142t-58.5 123z" />
<glyph unicode="&#xda;" horiz-adv-x="2320" d="M0 924q0 181 66.5 319t198.5 217.5t315 79.5q106 0 240 -25t258 -67t208 -106.5t84 -135.5q0 -129 -23.5 -394.5t-23.5 -375.5q0 -130 25.5 -207t78.5 -77q60 0 118 87.5t101.5 226t75.5 302.5t45 324v180q0 38 45.5 75t102.5 57.5t100 20.5q45 0 45 -24q0 -247 10 -463 t31 -401t59 -292.5t89 -107.5q39 0 52 -6t13 -25q0 -48 -58.5 -93.5t-139.5 -71t-152 -25.5q-82 0 -134 67.5t-52 206.5q0 16 -0.5 59t-1.5 127.5t-2 147.5q-23 -97 -51.5 -182t-68 -164.5t-84 -135.5t-102 -90t-120.5 -34q-92 0 -183 48.5t-151 135.5t-60 185 q0 51 14.5 257t14.5 330q0 543 -242 543q-88 0 -154.5 -36t-105 -98t-57 -137.5t-18.5 -162.5q0 -127 35 -247.5t99 -198.5t138 -78q51 0 51 -13q0 -8 -14 -22q-105 -105 -238 -105q-88 0 -174.5 47.5t-153.5 127t-108 193t-41 237.5zM1411 1534q0 49 38 129t89 142.5 t84 62.5q75 0 144 -37.5t69 -89.5q0 -40 -71.5 -112.5t-158 -128.5t-126.5 -56q-42 0 -55 21t-13 69z" />
<glyph unicode="&#xdb;" horiz-adv-x="2320" d="M0 924q0 181 66.5 319t198.5 217.5t315 79.5q106 0 240 -25t258 -67t208 -106.5t84 -135.5q0 -129 -23.5 -394.5t-23.5 -375.5q0 -130 25.5 -207t78.5 -77q60 0 118 87.5t101.5 226t75.5 302.5t45 324v180q0 38 45.5 75t102.5 57.5t100 20.5q45 0 45 -24q0 -247 10 -463 t31 -401t59 -292.5t89 -107.5q39 0 52 -6t13 -25q0 -48 -58.5 -93.5t-139.5 -71t-152 -25.5q-82 0 -134 67.5t-52 206.5q0 16 -0.5 59t-1.5 127.5t-2 147.5q-23 -97 -51.5 -182t-68 -164.5t-84 -135.5t-102 -90t-120.5 -34q-92 0 -183 48.5t-151 135.5t-60 185 q0 51 14.5 257t14.5 330q0 543 -242 543q-88 0 -154.5 -36t-105 -98t-57 -137.5t-18.5 -162.5q0 -127 35 -247.5t99 -198.5t138 -78q51 0 51 -13q0 -8 -14 -22q-105 -105 -238 -105q-88 0 -174.5 47.5t-153.5 127t-108 193t-41 237.5zM1219 1516q0 51 48 129t128 141t155 63 q23 0 59.5 -27t70 -60t72.5 -60t65 -27q17 0 32 15q21 -24 21 -50q0 -54 -57.5 -102.5t-135.5 -48.5q-40 0 -74 16t-57.5 39t-43 46t-39.5 39t-38 16q-46 0 -82 -50t-36 -79q0 -8 -20 -17.5t-38 -9.5q-30 0 -30 27z" />
<glyph unicode="&#xdc;" horiz-adv-x="2320" d="M0 924q0 181 66.5 319t198.5 217.5t315 79.5q106 0 240 -25t258 -67t208 -106.5t84 -135.5q0 -129 -23.5 -394.5t-23.5 -375.5q0 -130 25.5 -207t78.5 -77q60 0 118 87.5t101.5 226t75.5 302.5t45 324v180q0 38 45.5 75t102.5 57.5t100 20.5q45 0 45 -24q0 -247 10 -463 t31 -401t59 -292.5t89 -107.5q39 0 52 -6t13 -25q0 -48 -58.5 -93.5t-139.5 -71t-152 -25.5q-82 0 -134 67.5t-52 206.5q0 16 -0.5 59t-1.5 127.5t-2 147.5q-23 -97 -51.5 -182t-68 -164.5t-84 -135.5t-102 -90t-120.5 -34q-92 0 -183 48.5t-151 135.5t-60 185 q0 51 14.5 257t14.5 330q0 543 -242 543q-88 0 -154.5 -36t-105 -98t-57 -137.5t-18.5 -162.5q0 -127 35 -247.5t99 -198.5t138 -78q51 0 51 -13q0 -8 -14 -22q-105 -105 -238 -105q-88 0 -174.5 47.5t-153.5 127t-108 193t-41 237.5zM1196 1610q0 65 56.5 120.5t140.5 55.5 q56 0 86 -35t30 -86q0 -63 -47 -111.5t-133 -48.5q-67 0 -100 29.5t-33 75.5zM1597 1610q0 65 57 120.5t142 55.5q54 0 85.5 -35.5t31.5 -85.5q0 -63 -48 -111.5t-134 -48.5q-67 0 -100.5 29.5t-33.5 75.5z" />
<glyph unicode="&#xdd;" horiz-adv-x="2062" d="M0 793q0 106 34.5 213t108.5 207t177 176.5t252 123t323 46.5q117 0 217.5 -26t172.5 -69.5t131.5 -100.5t100 -119.5t72 -125t52.5 -119.5t37 -100.5t30 -69.5t27 -26q50 0 98.5 153.5t48.5 354.5q0 104 -35 184q94 53 187 53q57 0 98.5 -23t63.5 -62t32 -83.5t10 -95.5 q0 -93 -67 -205.5t-162.5 -208t-214.5 -186.5q-14 -91 -14 -152q0 -63 1 -103.5t4 -89.5t9.5 -78.5t17.5 -60.5t27 -47.5t39.5 -27t54.5 -10.5q37 0 50.5 -6t13.5 -23q0 -46 -66.5 -86t-168 -62t-208.5 -22q-133 0 -133 236q0 57 8.5 163.5t8.5 178.5q0 153 -46 314.5 t-125.5 296t-199 220.5t-252.5 86q-107 0 -189 -41t-130 -110.5t-71.5 -152.5t-23.5 -177q0 -116 34 -221t98 -172.5t143 -67.5q45 0 45 -16q0 -7 -10 -17q-52 -52 -123.5 -79t-141.5 -27q-108 0 -194.5 37t-140.5 101.5t-82.5 147.5t-28.5 177zM1518 1626q0 49 38 129 t89 142.5t84 62.5q75 0 144 -37.5t69 -89.5q0 -40 -72 -112.5t-158.5 -128.5t-126.5 -56q-41 0 -54 20.5t-13 69.5z" />
<glyph unicode="&#xde;" horiz-adv-x="1286" d="M135 1458q0 74 248 74q101 0 168 -60.5t67 -107.5q0 -66 -15 -266.5t-15 -333.5v-64q14 98 37.5 188t61.5 179.5t85.5 154.5t115 105.5t144.5 40.5q86 0 170 -40t142.5 -118.5t58.5 -175.5q0 -172 -82 -337.5t-215.5 -269t-274.5 -103.5q-94 0 -94 69q55 0 102 62 t76 154.5t45.5 193.5t16.5 186q0 154 -45 154q-76 0 -147.5 -139t-114 -342t-43.5 -394q26 -129 75 -129q37 0 49.5 -5t12.5 -23q0 -44 -61 -87t-143 -67.5t-150 -24.5q-40 0 -71.5 21t-51.5 62.5t-33.5 91.5t-20.5 120.5t-9.5 137.5t-2.5 153q0 14 6.5 118t13.5 247t7 252 q0 295 -49 295q-39 0 -51.5 5t-12.5 23z" />
<glyph unicode="&#xdf;" horiz-adv-x="1167" d="M-61 651q0 57 31 82.5t89 32.5q-12 147 -12 274q0 83 9 146t32.5 120t63 93.5t103 58t148.5 21.5q110 0 196 -25.5t137.5 -65.5t85 -93.5t45.5 -103t12 -101.5q0 -71 -21.5 -135.5t-43 -122t-21.5 -111.5q0 -37 34.5 -74.5t83.5 -73.5t97.5 -77.5t83 -103t34.5 -134.5 q0 -116 -110 -195t-279 -79q-276 0 -276 202q0 52 41.5 95t103.5 43q21 0 32 -15t11 -35q0 -33 3 -57t11 -48t25 -37t43 -13q59 0 88 28t29 68q0 33 -34 71t-83 75.5t-98 79t-83 96t-34 112.5q0 41 23 82.5t56 78.5t65.5 76t55.5 90t23 105q0 55 -19 98t-47 65.5t-54 34 t-46 11.5q-38 0 -69.5 -24t-53 -69.5t-37.5 -96.5t-25.5 -120t-15.5 -123.5t-8.5 -123.5t-3 -104t-0.5 -80q0 -38 1 -129.5t1 -151.5q0 -64 -2.5 -103t-9 -74.5t-20.5 -53.5t-35.5 -28.5t-54.5 -10.5q-64 0 -94.5 40t-30.5 109q0 35 -4.5 95.5t-9 107.5t-15 148t-14.5 143 q-62 10 -133 10z" />
<glyph unicode="&#xe0;" d="M61 305q0 70 18.5 139.5t59.5 134.5t99 115t143.5 80.5t187.5 30.5q115 0 207 -53.5t92 -130.5q0 -25 -1 -88.5t-1 -98.5q0 -122 13.5 -194t52.5 -72q47 0 111 97t108 204q34 -20 54 -58.5t20 -82.5q0 -82 -59 -159.5t-149.5 -124t-180.5 -46.5q-165 0 -222 172 q-101 -174 -323 -174q-106 0 -168 89.5t-62 219.5zM299 1194q0 30 38.5 51t90.5 21q128 0 196 -91.5t68 -252.5q0 -30 -21.5 -43t-52.5 -13q-48 0 -125 63t-135.5 142t-58.5 123zM375 303q0 -65 14.5 -105t42.5 -40q41 0 69.5 45.5t41 115.5t17.5 125t5 101q0 98 -39 98 q-45 0 -81 -56t-53 -132.5t-17 -151.5z" />
<glyph unicode="&#xe1;" d="M61 305q0 70 18.5 139.5t59.5 134.5t99 115t143.5 80.5t187.5 30.5q115 0 207 -53.5t92 -130.5q0 -25 -1 -88.5t-1 -98.5q0 -122 13.5 -194t52.5 -72q47 0 111 97t108 204q34 -20 54 -58.5t20 -82.5q0 -82 -59 -159.5t-149.5 -124t-180.5 -46.5q-165 0 -222 172 q-101 -174 -323 -174q-106 0 -168 89.5t-62 219.5zM375 303q0 -65 14.5 -105t42.5 -40q41 0 69.5 45.5t41 115.5t17.5 125t5 101q0 98 -39 98q-45 0 -81 -56t-53 -132.5t-17 -151.5zM446 956q0 49 38 129t89 142.5t84 62.5q75 0 144 -37.5t69 -89.5q0 -40 -71.5 -112.5 t-158 -128.5t-126.5 -56q-42 0 -55 21t-13 69z" />
<glyph unicode="&#xe2;" d="M61 305q0 70 18.5 139.5t59.5 134.5t99 115t143.5 80.5t187.5 30.5q115 0 207 -53.5t92 -130.5q0 -25 -1 -88.5t-1 -98.5q0 -122 13.5 -194t52.5 -72q47 0 111 97t108 204q34 -20 54 -58.5t20 -82.5q0 -82 -59 -159.5t-149.5 -124t-180.5 -46.5q-165 0 -222 172 q-101 -174 -323 -174q-106 0 -168 89.5t-62 219.5zM231 915q0 51 48.5 129.5t128.5 141.5t155 63q28 0 78.5 -43.5t102.5 -87t85 -43.5q18 0 33 15q21 -24 21 -50q0 -54 -57.5 -102.5t-135.5 -48.5q-40 0 -74 16t-57.5 38.5t-43 45.5t-39.5 39t-38 16q-46 0 -82.5 -50 t-36.5 -79q0 -8 -19.5 -17t-37.5 -9q-31 0 -31 26zM375 303q0 -65 14.5 -105t42.5 -40q41 0 69.5 45.5t41 115.5t17.5 125t5 101q0 98 -39 98q-45 0 -81 -56t-53 -132.5t-17 -151.5z" />
<glyph unicode="&#xe3;" d="M61 305q0 70 18.5 139.5t59.5 134.5t99 115t143.5 80.5t187.5 30.5q115 0 207 -53.5t92 -130.5q0 -25 -1 -88.5t-1 -98.5q0 -122 13.5 -194t52.5 -72q47 0 111 97t108 204q34 -20 54 -58.5t20 -82.5q0 -82 -59 -159.5t-149.5 -124t-180.5 -46.5q-165 0 -222 172 q-101 -174 -323 -174q-106 0 -168 89.5t-62 219.5zM254 950q0 58 33.5 97.5t109.5 39.5q41 0 107 -7t94 -7q98 0 184 62q23 -54 23 -95q0 -65 -43.5 -107t-120.5 -42q-53 0 -148 19.5t-133 19.5q-55 0 -100 -29q-6 21 -6 49zM375 303q0 -65 14.5 -105t42.5 -40 q41 0 69.5 45.5t41 115.5t17.5 125t5 101q0 98 -39 98q-45 0 -81 -56t-53 -132.5t-17 -151.5z" />
<glyph unicode="&#xe4;" d="M61 305q0 70 18.5 139.5t59.5 134.5t99 115t143.5 80.5t187.5 30.5q115 0 207 -53.5t92 -130.5q0 -25 -1 -88.5t-1 -98.5q0 -122 13.5 -194t52.5 -72q47 0 111 97t108 204q34 -20 54 -58.5t20 -82.5q0 -82 -59 -159.5t-149.5 -124t-180.5 -46.5q-165 0 -222 172 q-101 -174 -323 -174q-106 0 -168 89.5t-62 219.5zM211 979q0 65 56.5 120.5t140.5 55.5q56 0 86 -35t30 -86q0 -63 -47 -111.5t-133 -48.5q-67 0 -100 29.5t-33 75.5zM375 303q0 -65 14.5 -105t42.5 -40q41 0 69.5 45.5t41 115.5t17.5 125t5 101q0 98 -39 98q-45 0 -81 -56 t-53 -132.5t-17 -151.5zM612 979q0 65 57 120.5t142 55.5q54 0 85.5 -35.5t31.5 -85.5q0 -63 -48.5 -111.5t-134.5 -48.5q-67 0 -100 29.5t-33 75.5z" />
<glyph unicode="&#xe5;" d="M61 305q0 70 18.5 139.5t59.5 134.5t99 115t143.5 80.5t187.5 30.5q115 0 207 -53.5t92 -130.5q0 -25 -1 -88.5t-1 -98.5q0 -122 13.5 -194t52.5 -72q47 0 111 97t108 204q34 -20 54 -58.5t20 -82.5q0 -82 -59 -159.5t-149.5 -124t-180.5 -46.5q-165 0 -222 172 q-101 -174 -323 -174q-106 0 -168 89.5t-62 219.5zM356 999q0 80 60 127.5t176 47.5q76 0 128 -39t52 -91q0 -37 -10 -67t-36 -58.5t-80 -44.5t-132 -16q-77 0 -117.5 40.5t-40.5 100.5zM375 303q0 -65 14.5 -105t42.5 -40q41 0 69.5 45.5t41 115.5t17.5 125t5 101 q0 98 -39 98q-45 0 -81 -56t-53 -132.5t-17 -151.5zM524 999q0 -29 11 -49t30 -20q28 0 47 35t19 75q0 27 -10 44.5t-29 17.5q-31 0 -49.5 -32t-18.5 -71z" />
<glyph unicode="&#xe6;" horiz-adv-x="1343" d="M61 305q0 70 18.5 139.5t59.5 134.5t99 115t143.5 80.5t187.5 30.5q117 0 209 -53q96 55 217 55q134 0 206.5 -63.5t72.5 -155.5q0 -116 -104 -208.5t-283 -98.5q41 -154 178 -154q106 0 215 94.5t160 245.5q71 -63 71 -143q0 -95 -74 -171t-186.5 -114.5t-236.5 -38.5 q-128 0 -234.5 44t-163.5 132q-99 -180 -325 -180q-106 0 -168 89.5t-62 219.5zM375 303q0 -65 14.5 -105t42.5 -40q56 0 94.5 101.5t38.5 266.5q0 119 -39 119q-45 0 -81 -56.5t-53 -133.5t-17 -152zM877 387q89 19 135.5 71.5t46.5 106.5q0 32 -16 52t-44 20 q-50 0 -85 -76t-37 -174z" />
<glyph unicode="&#xe7;" horiz-adv-x="796" d="M61 365q0 80 29 158t82 141t136.5 102t183.5 39q130 0 198 -63.5t68 -147.5q0 -68 -43.5 -116t-116.5 -48q-47 0 -82 21q41 71 41 120q0 62 -61 62q-51 0 -82 -62t-31 -149q0 -70 20.5 -130.5t71 -103.5t123.5 -43q89 0 166 79.5t121 240.5q69 -64 69 -146 q0 -95 -70 -170.5t-176.5 -114t-224.5 -38.5q-26 0 -84 4q6 -18 34.5 -57t51.5 -84t23 -92q0 -103 -65 -158t-152 -55q-76 0 -129 46.5t-53 125.5q0 32 8.5 55.5t17.5 23.5q2 0 6 -4q45 -45 97 -45q33 0 56 19t23 41q0 43 -17 105.5t-17 82.5q0 9 4 25q-103 41 -164.5 125 t-61.5 211z" />
<glyph unicode="&#xe8;" horiz-adv-x="841" d="M61 369q0 80 29.5 157.5t83 140.5t137 101.5t183.5 38.5q134 0 206 -63t72 -156q0 -116 -104 -208.5t-283 -98.5q41 -154 178 -154q106 0 215 94.5t160 245.5q72 -64 72 -143q0 -95 -74 -171t-187 -114.5t-237 -38.5q-89 0 -167.5 22t-143 65t-102.5 116t-38 166z M258 1194q0 30 38.5 51t90.5 21q128 0 196 -91.5t68 -252.5q0 -30 -21 -43t-52 -13q-48 0 -125.5 63t-136 142t-58.5 123zM375 387q89 19 135.5 71.5t46.5 106.5q0 32 -15.5 52t-43.5 20q-50 0 -85.5 -76t-37.5 -174z" />
<glyph unicode="&#xe9;" horiz-adv-x="841" d="M61 369q0 80 29.5 157.5t83 140.5t137 101.5t183.5 38.5q134 0 206 -63t72 -156q0 -116 -104 -208.5t-283 -98.5q41 -154 178 -154q106 0 215 94.5t160 245.5q72 -64 72 -143q0 -95 -74 -171t-187 -114.5t-237 -38.5q-89 0 -167.5 22t-143 65t-102.5 116t-38 166z M371 956q0 49 38 129t89 142.5t84 62.5q75 0 144 -37.5t69 -89.5q0 -40 -72 -112.5t-158.5 -128.5t-126.5 -56q-41 0 -54 20.5t-13 69.5zM375 387q89 19 135.5 71.5t46.5 106.5q0 32 -15.5 52t-43.5 20q-50 0 -85.5 -76t-37.5 -174z" />
<glyph unicode="&#xea;" horiz-adv-x="841" d="M61 369q0 80 29.5 157.5t83 140.5t137 101.5t183.5 38.5q134 0 206 -63t72 -156q0 -116 -104 -208.5t-283 -98.5q41 -154 178 -154q106 0 215 94.5t160 245.5q72 -64 72 -143q0 -95 -74 -171t-187 -114.5t-237 -38.5q-89 0 -167.5 22t-143 65t-102.5 116t-38 166z M158 915q0 38 30 94.5t75 110t107 91.5t119 38q23 0 59.5 -27t70 -60t72.5 -60t65 -27q17 0 32 15q21 -24 21 -50q0 -54 -57.5 -102.5t-135.5 -48.5q-40 0 -74 16t-57 38.5t-43 45.5t-39.5 39t-37.5 16q-46 0 -82.5 -50t-36.5 -79q0 -8 -20 -17t-38 -9q-30 0 -30 26z M375 387q89 19 135.5 71.5t46.5 106.5q0 32 -15.5 52t-43.5 20q-50 0 -85.5 -76t-37.5 -174z" />
<glyph unicode="&#xeb;" horiz-adv-x="841" d="M61 369q0 80 29.5 157.5t83 140.5t137 101.5t183.5 38.5q134 0 206 -63t72 -156q0 -116 -104 -208.5t-283 -98.5q41 -154 178 -154q106 0 215 94.5t160 245.5q72 -64 72 -143q0 -95 -74 -171t-187 -114.5t-237 -38.5q-89 0 -167.5 22t-143 65t-102.5 116t-38 166z M121 979q0 65 56 120.5t140 55.5q56 0 86.5 -35t30.5 -86q0 -63 -47 -111.5t-133 -48.5q-67 0 -100 29.5t-33 75.5zM375 387q89 19 135.5 71.5t46.5 106.5q0 32 -15.5 52t-43.5 20q-50 0 -85.5 -76t-37.5 -174zM522 979q0 65 57 120.5t142 55.5q54 0 85.5 -35.5t31.5 -85.5 q0 -63 -48.5 -111.5t-134.5 -48.5q-67 0 -100 29.5t-33 75.5z" />
<glyph unicode="&#xec;" horiz-adv-x="608" d="M68 1194q0 30 38.5 51t90.5 21q128 0 196 -91.5t68 -252.5q0 -30 -21.5 -43t-52.5 -13q-48 0 -125 63t-135.5 142t-58.5 123zM80 547q0 52 45.5 109t107.5 93.5t111 36.5q44 0 60 -21.5t16 -80.5q0 -12 -9.5 -118t-9.5 -175q0 -223 80 -223q47 0 111.5 96.5t107.5 202.5 q34 -19 54 -57.5t20 -83.5q0 -83 -60 -160.5t-151.5 -123.5t-183.5 -46q-55 0 -100.5 20.5t-76 53t-53.5 80.5t-36 95.5t-20.5 105t-10 102.5t-2.5 94z" />
<glyph unicode="&#xed;" horiz-adv-x="608" d="M80 547q0 52 45.5 109t107.5 93.5t111 36.5q44 0 60 -21.5t16 -80.5q0 -12 -9.5 -118t-9.5 -175q0 -223 80 -223q47 0 111.5 96.5t107.5 202.5q34 -19 54 -57.5t20 -83.5q0 -83 -60 -160.5t-151.5 -123.5t-183.5 -46q-55 0 -100.5 20.5t-76 53t-53.5 80.5t-36 95.5 t-20.5 105t-10 102.5t-2.5 94zM158 956q0 49 38 129t89 142.5t84 62.5q75 0 144 -37.5t69 -89.5q0 -40 -72 -112.5t-158.5 -128.5t-126.5 -56q-41 0 -54 20.5t-13 69.5z" />
<glyph unicode="&#xee;" horiz-adv-x="608" d="M-27 915q0 51 48.5 129.5t128.5 141.5t155 63q28 0 78.5 -43.5t102.5 -87t85 -43.5q18 0 33 15q21 -24 21 -50q0 -54 -57.5 -102.5t-135.5 -48.5q-40 0 -74 16t-57.5 38.5t-43 45.5t-39.5 39t-38 16q-46 0 -82.5 -50t-36.5 -79q0 -8 -19.5 -17t-37.5 -9q-31 0 -31 26z M80 547q0 52 45.5 109t107.5 93.5t111 36.5q44 0 60 -21.5t16 -80.5q0 -12 -9.5 -118t-9.5 -175q0 -223 80 -223q47 0 111.5 96.5t107.5 202.5q34 -19 54 -57.5t20 -83.5q0 -83 -60 -160.5t-151.5 -123.5t-183.5 -46q-55 0 -100.5 20.5t-76 53t-53.5 80.5t-36 95.5 t-20.5 105t-10 102.5t-2.5 94z" />
<glyph unicode="&#xef;" horiz-adv-x="608" d="M-57 979q0 65 56 120.5t140 55.5q56 0 86.5 -35t30.5 -86q0 -63 -47 -111.5t-133 -48.5q-67 0 -100 29.5t-33 75.5zM80 547q0 52 45.5 109t107.5 93.5t111 36.5q44 0 60 -21.5t16 -80.5q0 -12 -9.5 -118t-9.5 -175q0 -223 80 -223q47 0 111.5 96.5t107.5 202.5 q34 -19 54 -57.5t20 -83.5q0 -83 -60 -160.5t-151.5 -123.5t-183.5 -46q-55 0 -100.5 20.5t-76 53t-53.5 80.5t-36 95.5t-20.5 105t-10 102.5t-2.5 94zM344 979q0 65 57 120.5t142 55.5q54 0 85 -35.5t31 -85.5q0 -63 -48 -111.5t-134 -48.5q-67 0 -100 29.5t-33 75.5z" />
<glyph unicode="&#xf0;" d="M55 297q0 69 18.5 137.5t58.5 133.5t97 115t141.5 80.5t184.5 31.5v14q0 28 -4 86q-127 10 -244 10q0 67 29 103t104 36h92q-32 154 -98.5 234t-120.5 80q-20 0 -20 14q0 39 44.5 64.5t111.5 25.5q47 0 85 -3t87.5 -13.5t87 -29.5t72.5 -53.5t55 -82.5q27 -73 30 -219 q123 20 191 69q26 -62 26 -114q0 -47 -16 -77t-47.5 -44.5t-64.5 -19.5t-81 -5h-8q-2 -67 -11 -251.5t-9 -288.5q0 -170 82 -170q32 0 77 53.5t79 116.5t63 129q32 -19 52 -58t20 -82q0 -83 -59 -161t-149 -124t-180 -46q-150 0 -217 186q-97 -186 -329 -186 q-106 0 -168 89.5t-62 219.5zM367 293q0 -65 14.5 -105.5t42.5 -40.5q56 0 95.5 102.5t39.5 266.5q0 119 -41 119q-45 0 -81 -56.5t-53 -133.5t-17 -152z" />
<glyph unicode="&#xf1;" horiz-adv-x="1161" d="M72 543q0 57 46.5 115t107.5 92t108 34q46 0 61 -28.5t15 -73.5q0 -28 -5.5 -104t-5.5 -111q0 -111 43 -111q19 0 46 48.5t58.5 117t68.5 137.5t87.5 117.5t104.5 48.5q47 0 75 -49t36.5 -122.5t15.5 -159t12.5 -159t27 -122.5t58.5 -49q47 0 111 97t108 204 q33 -20 52.5 -58.5t19.5 -82.5q0 -83 -59.5 -161t-151 -124.5t-182.5 -46.5q-69 0 -125 22t-89.5 55.5t-60 72t-40 72t-26 55.5t-22.5 22q-19 0 -42 -31t-48.5 -74.5t-57 -87.5t-78.5 -75t-101 -31q-48 0 -88.5 104t-60 228.5t-19.5 218.5zM236 932q0 58 33.5 97.5 t109.5 39.5q41 0 107 -7t94 -7q99 0 184 61q22 -52 22 -94q0 -66 -43 -108t-120 -42q-53 0 -148 19.5t-133 19.5q-57 0 -100 -28q-6 21 -6 49z" />
<glyph unicode="&#xf2;" horiz-adv-x="862" d="M61 365q0 83 27 160t79 141t138 102.5t193 38.5q95 0 164.5 -47.5t103.5 -121.5t37 -165q171 55 252 178q26 -30 26 -94q0 -92 -88.5 -159.5t-212.5 -90.5q-40 -135 -145 -223t-262 -88q-74 0 -134 31t-98.5 83t-59 118t-20.5 137zM236 1194q0 30 38.5 51t90.5 21 q128 0 196 -91.5t68 -252.5q0 -30 -21.5 -43t-52.5 -13q-48 0 -125 63t-135.5 142t-58.5 123zM381 387q0 -94 24 -160.5t66 -66.5q63 0 88 149q-112 19 -178 78zM424 565q0 -46 34.5 -82t106.5 -43q-3 86 -26 144.5t-62 58.5q-2 0 -6 -1t-6 -1q-18 -6 -29.5 -27.5 t-11.5 -48.5z" />
<glyph unicode="&#xf3;" horiz-adv-x="862" d="M61 365q0 83 27 160t79 141t138 102.5t193 38.5q95 0 164.5 -47.5t103.5 -121.5t37 -165q171 55 252 178q26 -30 26 -94q0 -92 -88.5 -159.5t-212.5 -90.5q-40 -135 -145 -223t-262 -88q-74 0 -134 31t-98.5 83t-59 118t-20.5 137zM254 956q0 49 38 129t89 142.5t84 62.5 q75 0 144 -37.5t69 -89.5q0 -40 -71.5 -112.5t-158 -128.5t-126.5 -56q-42 0 -55 21t-13 69zM381 387q0 -94 24 -160.5t66 -66.5q63 0 88 149q-112 19 -178 78zM424 565q0 -46 34.5 -82t106.5 -43q-3 86 -26 144.5t-62 58.5q-2 0 -6 -1t-6 -1q-18 -6 -29.5 -27.5 t-11.5 -48.5z" />
<glyph unicode="&#xf4;" horiz-adv-x="862" d="M61 365q0 83 27 160t79 141t138 102.5t193 38.5q95 0 164.5 -47.5t103.5 -121.5t37 -165q171 55 252 178q26 -30 26 -94q0 -92 -88.5 -159.5t-212.5 -90.5q-40 -135 -145 -223t-262 -88q-74 0 -134 31t-98.5 83t-59 118t-20.5 137zM84 915q0 51 48.5 129.5t128.5 141.5 t155 63q28 0 78.5 -43.5t102.5 -87t85 -43.5q18 0 33 15q20 -23 20 -50q0 -54 -57 -102.5t-135 -48.5q-40 0 -74 16t-57.5 38.5t-43 45.5t-39.5 39t-38 16q-46 0 -82.5 -50t-36.5 -79q0 -8 -19.5 -17t-37.5 -9q-31 0 -31 26zM381 387q0 -94 24 -160.5t66 -66.5q63 0 88 149 q-112 19 -178 78zM424 565q0 -46 34.5 -82t106.5 -43q-3 86 -26 144.5t-62 58.5q-2 0 -6 -1t-6 -1q-18 -6 -29.5 -27.5t-11.5 -48.5z" />
<glyph unicode="&#xf5;" horiz-adv-x="862" d="M61 365q0 83 27 160t79 141t138 102.5t193 38.5q95 0 164.5 -47.5t103.5 -121.5t37 -165q171 55 252 178q26 -30 26 -94q0 -92 -88.5 -159.5t-212.5 -90.5q-40 -135 -145 -223t-262 -88q-74 0 -134 31t-98.5 83t-59 118t-20.5 137zM172 940q0 58 33.5 97.5t109.5 39.5 q41 0 107 -7t94 -7q99 0 184 61q23 -54 23 -94q0 -65 -43.5 -107t-120.5 -42q-53 0 -147 19.5t-133 19.5q-56 0 -101 -29q-6 21 -6 49zM381 387q0 -94 24 -160.5t66 -66.5q63 0 88 149q-112 19 -178 78zM424 565q0 -46 34.5 -82t106.5 -43q-3 86 -26 144.5t-62 58.5 q-2 0 -6 -1t-6 -1q-18 -6 -29.5 -27.5t-11.5 -48.5z" />
<glyph unicode="&#xf6;" horiz-adv-x="862" d="M61 365q0 83 27 160t79 141t138 102.5t193 38.5q95 0 164.5 -47.5t103.5 -121.5t37 -165q171 55 252 178q26 -30 26 -94q0 -92 -88.5 -159.5t-212.5 -90.5q-40 -135 -145 -223t-262 -88q-74 0 -134 31t-98.5 83t-59 118t-20.5 137zM74 979q0 65 56 120.5t140 55.5 q56 0 86.5 -35t30.5 -86q0 -63 -47 -111.5t-133 -48.5q-67 0 -100 29.5t-33 75.5zM381 387q0 -94 24 -160.5t66 -66.5q63 0 88 149q-112 19 -178 78zM424 565q0 -46 34.5 -82t106.5 -43q-3 86 -26 144.5t-62 58.5q-2 0 -6 -1t-6 -1q-18 -6 -29.5 -27.5t-11.5 -48.5zM475 979 q0 65 57 120.5t142 55.5q54 0 85.5 -35.5t31.5 -85.5q0 -63 -48.5 -111.5t-134.5 -48.5q-67 0 -100 29.5t-33 75.5z" />
<glyph unicode="&#xf7;" horiz-adv-x="960" d="M82 565q0 58 32 94.5t101 36.5q71 0 200 -8t191 -8q146 0 260 31q13 -37 13 -60q0 -40 -23 -68.5t-61 -43t-78 -21t-84 -6.5q-74 0 -255 26.5t-296 26.5zM303 270q0 63 56.5 118.5t142.5 55.5q54 0 85 -34.5t31 -83.5q0 -63 -48 -111.5t-134 -48.5q-67 0 -100 29t-33 75z M358 874q0 64 56.5 119.5t142.5 55.5q54 0 85.5 -35t31.5 -84q0 -63 -48 -111.5t-134 -48.5q-67 0 -100.5 29t-33.5 75z" />
<glyph unicode="&#xf8;" horiz-adv-x="862" d="M55 354q0 81 25.5 156.5t74 138.5t129 103.5t181.5 44.5q47 207 47 311q12 2 35 2q72 0 106.5 -49.5t34.5 -124.5q0 -46 -35 -182q66 -43 103.5 -120.5t40.5 -168.5q172 56 250 178q28 -28 28 -92q0 -93 -88 -161t-213 -91q-36 -124 -128 -209t-230 -98 q-47 -183 -47 -293q-55 10 -96.5 56.5t-41.5 115.5q0 52 19 139q-93 39 -144 133.5t-51 210.5zM375 381q0 -94 24 -161.5t66 -67.5q63 0 88 149q-114 20 -178 80zM418 559q0 -46 34.5 -82t106.5 -43q-3 85 -26 143t-62 58q-2 0 -6 -1t-6 -1q-18 -6 -29.5 -26.5t-11.5 -47.5z " />
<glyph unicode="&#xf9;" d="M84 496v45q0 52 45.5 109t107.5 93.5t111 36.5q76 0 76 -157q0 -55 -11.5 -172.5t-11.5 -161.5q0 -101 41 -101q46 0 87.5 88.5t41.5 180.5q-2 29 -2 75q0 110 60.5 176t163.5 66q39 0 57 -29.5t18 -70.5q0 -38 -7 -151t-7 -171q0 -196 78 -196q47 0 111 96.5t108 202.5 q32 -19 52 -58t20 -82q0 -83 -58.5 -161t-148.5 -124t-180 -46q-151 0 -224 229q-51 -94 -152.5 -161.5t-180.5 -67.5q-40 0 -71.5 18t-51.5 43.5t-34.5 71.5t-21.5 83.5t-11 98.5t-4.5 98t-0.5 99zM334 1194q0 30 38.5 51t90.5 21q128 0 196 -91.5t68 -252.5 q0 -30 -21.5 -43t-52.5 -13q-48 0 -125 63t-135.5 142t-58.5 123z" />
<glyph unicode="&#xfa;" d="M84 496v45q0 52 45.5 109t107.5 93.5t111 36.5q76 0 76 -157q0 -55 -11.5 -172.5t-11.5 -161.5q0 -101 41 -101q46 0 87.5 88.5t41.5 180.5q-2 29 -2 75q0 110 60.5 176t163.5 66q39 0 57 -29.5t18 -70.5q0 -38 -7 -151t-7 -171q0 -196 78 -196q47 0 111 96.5t108 202.5 q32 -19 52 -58t20 -82q0 -83 -58.5 -161t-148.5 -124t-180 -46q-151 0 -224 229q-51 -94 -152.5 -161.5t-180.5 -67.5q-40 0 -71.5 18t-51.5 43.5t-34.5 71.5t-21.5 83.5t-11 98.5t-4.5 98t-0.5 99zM375 956q0 49 38 129t89 142.5t84 62.5q75 0 144 -37.5t69 -89.5 q0 -40 -72 -112.5t-158.5 -128.5t-126.5 -56q-41 0 -54 20.5t-13 69.5z" />
<glyph unicode="&#xfb;" d="M84 496v45q0 52 45.5 109t107.5 93.5t111 36.5q76 0 76 -157q0 -55 -11.5 -172.5t-11.5 -161.5q0 -101 41 -101q46 0 87.5 88.5t41.5 180.5q-2 29 -2 75q0 110 60.5 176t163.5 66q39 0 57 -29.5t18 -70.5q0 -38 -7 -151t-7 -171q0 -196 78 -196q47 0 111 96.5t108 202.5 q32 -19 52 -58t20 -82q0 -83 -58.5 -161t-148.5 -124t-180 -46q-151 0 -224 229q-51 -94 -152.5 -161.5t-180.5 -67.5q-40 0 -71.5 18t-51.5 43.5t-34.5 71.5t-21.5 83.5t-11 98.5t-4.5 98t-0.5 99zM201 915q0 38 30 94.5t75 110t107 91.5t119 38q23 0 59.5 -27t70 -60 t72.5 -60t65 -27q17 0 32 15q21 -24 21 -50q0 -54 -57.5 -102.5t-135.5 -48.5q-40 0 -74 16t-57 38.5t-43 45.5t-39.5 39t-37.5 16q-46 0 -82.5 -50t-36.5 -79q0 -8 -20 -17t-38 -9q-30 0 -30 26z" />
<glyph unicode="&#xfc;" d="M84 496v45q0 52 45.5 109t107.5 93.5t111 36.5q76 0 76 -157q0 -55 -11.5 -172.5t-11.5 -161.5q0 -101 41 -101q46 0 87.5 88.5t41.5 180.5q-2 29 -2 75q0 110 60.5 176t163.5 66q39 0 57 -29.5t18 -70.5q0 -38 -7 -151t-7 -171q0 -196 78 -196q47 0 111 96.5t108 202.5 q32 -19 52 -58t20 -82q0 -83 -58.5 -161t-148.5 -124t-180 -46q-151 0 -224 229q-51 -94 -152.5 -161.5t-180.5 -67.5q-40 0 -71.5 18t-51.5 43.5t-34.5 71.5t-21.5 83.5t-11 98.5t-4.5 98t-0.5 99zM174 979q0 65 56.5 120.5t140.5 55.5q56 0 86 -35t30 -86 q0 -63 -47 -111.5t-133 -48.5q-67 0 -100 29.5t-33 75.5zM575 979q0 65 57 120.5t142 55.5q54 0 85.5 -35.5t31.5 -85.5q0 -63 -48 -111.5t-134 -48.5q-67 0 -100.5 29.5t-33.5 75.5z" />
<glyph unicode="&#xfd;" horiz-adv-x="976" d="M80 461q0 34 1 107t1 112q0 40 84 87.5t180 47.5q74 0 74 -90l-20 -152q-19 -152 -19 -239q0 -133 43 -133q34 0 60.5 29.5t42 78.5t24 105t10.5 116v17q0 59 22 108t55 78t67 44.5t63 15.5q48 0 72 -26t24 -62q0 -228 17.5 -478t17.5 -305q0 -594 -369 -594h-20 q-173 4 -260.5 78.5t-87.5 185.5q0 132 112.5 249.5t294.5 148.5q2 47 2 143v60q-124 -195 -295 -195q-44 0 -76.5 15t-53.5 46.5t-34.5 68.5t-20.5 94.5t-9 110.5t-2 128zM322 -412q0 -36 12 -58t35 -22q156 0 192 363q-62 -17 -110 -50.5t-75 -74.5t-40.5 -81t-13.5 -77z M397 969q0 49 38 129t89 142.5t84 62.5q75 0 144 -37.5t69 -89.5q0 -40 -71.5 -112.5t-158 -128.5t-126.5 -56q-42 0 -55 21t-13 69z" />
<glyph unicode="&#xfe;" horiz-adv-x="942" d="M-127 -575q0 9 3 11.5t15 2.5q48 0 84 86q76 198 76 803q0 192 -8 446.5t-8 267.5q0 82 9 145t32.5 120.5t63 94t102 58t147.5 21.5q104 0 163.5 -42.5t59.5 -84.5q0 -29 -30 -29q-203 0 -236 -633q104 119 252 119q116 0 179 -87t63 -247q0 -137 -59 -227t-148 -131 q133 7 237 97t170 255q70 -49 70 -145q0 -86 -74 -164t-173.5 -121t-184.5 -43q-44 0 -82.5 4t-78 16t-67.5 30.5t-45.5 49.5t-17.5 72q32 0 62 47.5t46.5 116t16.5 133.5q0 64 -19.5 103.5t-58.5 39.5q-31 0 -55.5 -30t-38.5 -80v-68q0 -225 15.5 -532.5t15.5 -321.5 q0 -73 -50.5 -130t-125.5 -85.5t-156 -28.5q-68 0 -117 20.5t-49 70.5z" />
<glyph unicode="&#xff;" horiz-adv-x="976" d="M80 461q0 34 1 107t1 112q0 40 84 87.5t180 47.5q74 0 74 -90l-20 -152q-19 -152 -19 -239q0 -133 43 -133q34 0 60.5 29.5t42 78.5t24 105t10.5 116v17q0 59 22 108t55 78t67 44.5t63 15.5q48 0 72 -26t24 -62q0 -228 17.5 -478t17.5 -305q0 -594 -369 -594h-20 q-173 4 -260.5 78.5t-87.5 185.5q0 132 112.5 249.5t294.5 148.5q2 47 2 143v60q-124 -195 -295 -195q-44 0 -76.5 15t-53.5 46.5t-34.5 68.5t-20.5 94.5t-9 110.5t-2 128zM156 979q0 65 56 120.5t140 55.5q56 0 86.5 -35t30.5 -86q0 -63 -47 -111.5t-133 -48.5 q-67 0 -100 29.5t-33 75.5zM322 -412q0 -36 12 -58t35 -22q156 0 192 363q-62 -17 -110 -50.5t-75 -74.5t-40.5 -81t-13.5 -77zM557 979q0 65 57 120.5t142 55.5q54 0 85 -35.5t31 -85.5q0 -63 -48 -111.5t-134 -48.5q-67 0 -100 29.5t-33 75.5z" />
<glyph unicode="&#x152;" horiz-adv-x="2086" d="M96 848q0 111 35.5 199.5t94 145.5t139.5 95t166.5 54t179.5 16q52 0 80 -42.5t28 -88.5q0 -26 -8 -37q-18 8 -53 8q-76 0 -131 -81.5t-80 -204t-25 -267.5q0 -151 27 -282t85.5 -218.5t137.5 -87.5q70 0 124.5 80.5t84 207t35.5 278.5q-78 10 -135 10q0 41 21 71.5 t67 30.5h49q-2 131 -22 251t-58 218t-99 156.5t-137 58.5q-54 0 -98 -16q-14 14 -14 31q0 38 60.5 72t133.5 34q266 0 394 -117q120 14 371 61.5t347 47.5q57 0 98.5 -20t62.5 -51.5t30.5 -62.5t9.5 -61q0 -64 -15 -128t-45 -110t-67 -46q-20 0 -28.5 11.5t-8.5 43.5 q0 36 -48.5 49.5t-141.5 13.5q-51 0 -164.5 -5.5t-140.5 -6.5q-58 -119 -58 -403v-43h6q90 -4 130 -4q183 0 256 45q14 -38 14 -70q0 -73 -67 -107t-177 -34q-57 0 -151 16q11 -102 31.5 -188t52.5 -157.5t79.5 -112t106.5 -40.5q76 0 153 78t111 187q76 -95 76 -172 q0 -69 -59 -120.5t-146.5 -75.5t-187.5 -24q-146 0 -260.5 89.5t-192.5 242.5q-82 -155 -188.5 -245.5t-227.5 -90.5q-102 0 -193.5 40.5t-160.5 110.5t-125 161.5t-91 194t-54 207.5t-19 204z" />
<glyph unicode="&#x153;" horiz-adv-x="1347" d="M59 367q0 83 27 160t79 141t138 102.5t193 38.5q142 0 225 -102q115 100 278 100q134 0 206.5 -63.5t72.5 -155.5q0 -70 -35 -128.5t-92.5 -98t-121 -65t-132.5 -38.5q43 -131 172 -131q106 0 215 94.5t160 245.5q72 -64 72 -143q0 -95 -74 -171t-187 -114.5t-237 -38.5 q-225 0 -350 119q-118 -121 -297 -121q-74 0 -134 31t-98.5 83t-59 118t-20.5 137zM379 397q0 -97 23.5 -166t66.5 -69q55 0 82 119q-116 40 -172 116zM422 571q0 -117 141 -174v23q0 93 -23 159t-65 66q-19 0 -31 -12q-22 -19 -22 -62zM881 387q69 12 122.5 58t53.5 114 q0 28 -14.5 52t-45.5 24h-8q-45 -12 -75.5 -85t-32.5 -163z" />
<glyph unicode="&#x178;" horiz-adv-x="2062" d="M0 793q0 106 34.5 213t108.5 207t177 176.5t252 123t323 46.5q117 0 217.5 -26t172.5 -69.5t131.5 -100.5t100 -119.5t72 -125t52.5 -119.5t37 -100.5t30 -69.5t27 -26q50 0 98.5 153.5t48.5 354.5q0 104 -35 184q94 53 187 53q57 0 98.5 -23t63.5 -62t32 -83.5t10 -95.5 q0 -93 -67 -205.5t-162.5 -208t-214.5 -186.5q-14 -91 -14 -152q0 -63 1 -103.5t4 -89.5t9.5 -78.5t17.5 -60.5t27 -47.5t39.5 -27t54.5 -10.5q37 0 50.5 -6t13.5 -23q0 -46 -66.5 -86t-168 -62t-208.5 -22q-133 0 -133 236q0 57 8.5 163.5t8.5 178.5q0 153 -46 314.5 t-125.5 296t-199 220.5t-252.5 86q-107 0 -189 -41t-130 -110.5t-71.5 -152.5t-23.5 -177q0 -116 34 -221t98 -172.5t143 -67.5q45 0 45 -16q0 -7 -10 -17q-52 -52 -123.5 -79t-141.5 -27q-108 0 -194.5 37t-140.5 101.5t-82.5 147.5t-28.5 177zM1266 1716q0 65 56 120.5 t140 55.5q56 0 86.5 -35t30.5 -85q0 -63 -47 -111.5t-133 -48.5q-67 0 -100 29t-33 75zM1667 1716q0 65 57 120.5t142 55.5q54 0 85 -35t31 -85q0 -63 -48 -111.5t-134 -48.5q-67 0 -100 29t-33 75z" />
<glyph unicode="&#x2c6;" d="M258 915q0 51 48.5 129.5t128.5 141.5t155 63q28 0 78.5 -43.5t102.5 -87t85 -43.5q18 0 33 15q20 -23 20 -50q0 -54 -57 -102.5t-135 -48.5q-40 0 -74 16t-57.5 38.5t-43 45.5t-39.5 39t-38 16q-46 0 -82.5 -50t-36.5 -79q0 -8 -19.5 -17t-37.5 -9q-31 0 -31 26z" />
<glyph unicode="&#x2dc;" d="M246 954q0 65 38.5 110.5t125.5 45.5q45 0 118.5 -8t106.5 -8q111 0 209 69q24 -55 24 -106q0 -74 -48 -121t-136 -47q-61 0 -167 21.5t-150 21.5q-67 0 -113 -33q-8 32 -8 55z" />
<glyph unicode="&#x2000;" horiz-adv-x="1028" />
<glyph unicode="&#x2001;" horiz-adv-x="2056" />
<glyph unicode="&#x2002;" horiz-adv-x="1028" />
<glyph unicode="&#x2003;" horiz-adv-x="2056" />
<glyph unicode="&#x2004;" horiz-adv-x="685" />
<glyph unicode="&#x2005;" horiz-adv-x="514" />
<glyph unicode="&#x2006;" horiz-adv-x="342" />
<glyph unicode="&#x2007;" horiz-adv-x="342" />
<glyph unicode="&#x2008;" horiz-adv-x="257" />
<glyph unicode="&#x2009;" horiz-adv-x="411" />
<glyph unicode="&#x200a;" horiz-adv-x="114" />
<glyph unicode="&#x2010;" horiz-adv-x="1089" d="M244 354q0 58 32 94.5t101 36.5q71 0 200 -8t191 -8q146 0 260 31q12 -34 12 -60q0 -52 -41 -85t-92 -43.5t-112 -10.5q-74 0 -255 26.5t-296 26.5z" />
<glyph unicode="&#x2011;" horiz-adv-x="1089" d="M244 354q0 58 32 94.5t101 36.5q71 0 200 -8t191 -8q146 0 260 31q12 -34 12 -60q0 -52 -41 -85t-92 -43.5t-112 -10.5q-74 0 -255 26.5t-296 26.5z" />
<glyph unicode="&#x2012;" horiz-adv-x="1089" d="M244 354q0 58 32 94.5t101 36.5q71 0 200 -8t191 -8q146 0 260 31q12 -34 12 -60q0 -52 -41 -85t-92 -43.5t-112 -10.5q-74 0 -255 26.5t-296 26.5z" />
<glyph unicode="&#x2013;" horiz-adv-x="1187" d="M330 322q0 30 4.5 56.5t16 54t36 43.5t59.5 16q39 0 118 -1.5t118 -1.5q215 0 369 27q16 -41 16 -82q0 -121 -162 -121q-74 0 -267 4.5t-308 4.5z" />
<glyph unicode="&#x2014;" horiz-adv-x="1867" d="M330 322q0 30 4.5 56.5t16 54t36 43.5t59.5 16q1051 0 1262 36q16 -41 16 -82q0 -120 -161 -120q-74 0 -596 -2t-637 -2z" />
<glyph unicode="&#x2018;" horiz-adv-x="671" d="M266 1192q0 28 39.5 98t98.5 132.5t102 62.5q42 0 69 -26t27 -50q0 -16 -14 -16q-20 0 -36 -46t-25 -100.5t-27 -100.5t-41 -46q-81 0 -137 21t-56 71z" />
<glyph unicode="&#x2019;" horiz-adv-x="632" d="M217 1145q0 16 14 16q20 0 35.5 46t25 100.5t27.5 100.5t41 46q191 0 191 -92q0 -28 -39 -98t-98 -132.5t-103 -62.5q-40 0 -67 26t-27 50z" />
<glyph unicode="&#x201a;" horiz-adv-x="557" d="M227 238q0 18 47 18q56 0 118.5 -23t62.5 -53q0 -25 -7.5 -73t-21.5 -105.5t-40.5 -99t-59.5 -41.5q-39 0 -63.5 21.5t-24.5 49.5q0 22 -5.5 157.5t-5.5 148.5z" />
<glyph unicode="&#x201c;" horiz-adv-x="987" d="M266 1192q0 28 39.5 98t98.5 132.5t102 62.5q42 0 69 -26t27 -50q0 -16 -14 -16q-20 0 -36 -46t-25 -100.5t-27 -100.5t-41 -46q-81 0 -137 21t-56 71zM582 1161q0 28 39 98t98 132.5t102 62.5q42 0 69.5 -26t27.5 -50q0 -16 -15 -16q-20 0 -36 -46t-25 -100.5 t-27 -100.5t-41 -46q-192 0 -192 92z" />
<glyph unicode="&#x201d;" horiz-adv-x="948" d="M217 1176q0 16 14 16q20 0 35.5 46t25 100.5t27.5 100.5t41 46q191 0 191 -92q0 -28 -39 -98t-98 -132.5t-103 -62.5q-40 0 -67 26t-27 50zM532 1145q0 16 15 16q20 0 35.5 46t25 100.5t27.5 100.5t41 46q190 0 190 -92q0 -28 -39 -98t-97.5 -132.5t-102.5 -62.5 q-40 0 -67.5 26t-27.5 50z" />
<glyph unicode="&#x201e;" horiz-adv-x="886" d="M227 238q0 18 47 18q56 0 118.5 -23t62.5 -53q0 -25 -7.5 -73t-21.5 -105.5t-40.5 -99t-59.5 -41.5q-39 0 -63.5 21.5t-24.5 49.5q0 22 -5.5 157.5t-5.5 148.5zM557 238q0 18 47 18q56 0 118 -23t62 -53q0 -22 -12 -73.5t-31 -108.5t-48 -100t-58 -43q-26 0 -48 17 t-22 42q0 22 -4 166.5t-4 157.5z" />
<glyph unicode="&#x2022;" horiz-adv-x="688" d="M262 352q0 69 61.5 129t153.5 60q60 0 93.5 -38.5t33.5 -92.5q0 -68 -51.5 -120t-144.5 -52q-72 0 -109 32.5t-37 81.5z" />
<glyph unicode="&#x2026;" horiz-adv-x="1587" d="M268 92q0 63 56.5 118.5t142.5 55.5q54 0 85.5 -35.5t31.5 -85.5q0 -61 -48.5 -109t-134.5 -48q-67 0 -100 29t-33 75zM711 92q0 63 56 118.5t140 55.5q56 0 86.5 -35t30.5 -86q0 -63 -47 -110t-133 -47q-67 0 -100 29t-33 75zM1167 92q0 63 57.5 118.5t141.5 55.5 q54 0 85.5 -35.5t31.5 -85.5q0 -62 -47 -109.5t-133 -47.5q-67 0 -101.5 29t-34.5 75z" />
<glyph unicode="&#x202f;" horiz-adv-x="411" />
<glyph unicode="&#x2039;" horiz-adv-x="667" d="M260 375q0 50 65 128.5t142.5 136.5t114.5 58q24 0 24 -30q0 -19 -8 -38.5t-16 -19.5q-28 0 -82 -56.5t-54 -92.5t58.5 -124.5t87.5 -88.5q10 -10 10 -25q0 -39 -54 -86t-99 -47q-42 0 -88.5 60.5t-73.5 127t-27 97.5z" />
<glyph unicode="&#x203a;" horiz-adv-x="700" d="M252 121q0 19 8 38t16 19q28 0 82 56.5t54 91.5q0 36 -58.5 125.5t-87.5 89.5q-10 10 -10 24q0 38 55 85.5t99 47.5q42 0 88 -60.5t73 -126.5t27 -97q0 -51 -65 -130t-142.5 -136.5t-114.5 -57.5q-24 0 -24 31z" />
<glyph unicode="&#x205f;" horiz-adv-x="514" />
<glyph unicode="&#x20ac;" horiz-adv-x="1327" d="M66 459q0 62 33.5 96.5t131.5 34.5h37q-16 84 -20 131q-110 4 -182 4q0 62 33.5 96.5t131.5 34.5h11q4 306 176 455t518 149q87 0 155 -15t108.5 -37t66.5 -51.5t35.5 -55t9.5 -50.5q0 -87 -53 -140.5t-128 -53.5q-53 0 -104 26q0 95 -39.5 151t-114.5 56 q-60 0 -109.5 -63.5t-79.5 -164t-44 -226.5q107 -7 178 -7q186 0 289 41q10 -25 10 -55q0 -41 -26.5 -69t-74.5 -42t-98 -19t-114 -5q-101 0 -174 8v-35q0 -57 2 -84q91 -6 180 -6q192 0 295 41q10 -25 10 -55q0 -135 -313 -135q-83 0 -156 6q25 -150 84 -242t148 -92 q41 0 72 5.5t66 22t66 51.5t58 89q51 -51 51 -111q0 -76 -91 -128t-276 -52q-91 0 -174 39t-147 107.5t-113.5 154.5t-83.5 187q-140 8 -241 8z" />
<glyph unicode="&#x2122;" horiz-adv-x="1449" d="M205 774q0 83 33 88q3 -18 47 -18q26 0 104.5 9t114.5 9q90 0 90 -65q0 -5 -1 -12l-1 -7q-56 0 -143 -26q9 -48 13 -147t12.5 -158.5t31.5 -59.5q20 0 20 -10q0 -22 -49 -40t-82 -18q-28 0 -41.5 13.5t-13.5 54.5q0 1 8 120.5t8 194.5v21q-40 -12 -73 -12 q-41 0 -59.5 19.5t-18.5 43.5zM594 426q0 100 21 202t56 169t72 67q17 0 32.5 -2.5t37.5 -11t35.5 -30t13.5 -52.5q0 -73 17 -155.5t36 -82.5q10 0 23.5 85.5t37.5 171t60 85.5q48 0 81.5 -23t33.5 -77q0 -138 17.5 -261.5t56.5 -123.5q20 0 20 -10q0 -24 -49 -44t-88 -20 q-41 0 -60.5 64t-19 141t-1 141t-11.5 64q-13 0 -35.5 -131t-22.5 -197q0 -19 -32 -46t-49 -27q-37 0 -64 43.5t-40.5 105t-22 123.5t-15.5 105.5t-14 43.5t-14.5 -20t-13 -59t-5.5 -84q0 -136 41 -258q-21 -9 -57 -9q-28 0 -53 33t-25 80z" />
<glyph unicode="&#x25fc;" horiz-adv-x="839" d="M0 0v840h840v-840h-840z" />
<glyph unicode="&#xfb01;" horiz-adv-x="1286" d="M2 473q0 45 16 71t58 29q0 80 1 265.5t1 291.5q0 81 28 145t69.5 100.5t94 60.5t96 32.5t80.5 8.5q92 0 137.5 -45t45.5 -95q0 -41 -23 -41q-63 0 -110 -58.5t-74.5 -162t-40.5 -229.5t-14 -277h61q257 0 365 47q40 59 108 103.5t121 44.5q44 0 60 -21t16 -81 q0 -12 -8.5 -116t-8.5 -173q0 -228 80 -228q47 0 109.5 95t109.5 204q32 -19 52 -58t20 -83q0 -83 -59.5 -160.5t-151 -123.5t-182.5 -46q-280 0 -299 480q-59 -29 -160 -29q-62 0 -160 10q135 -122 217 -330.5t82 -410.5q0 -193 -76.5 -282t-242.5 -89q-56 0 -100.5 17 t-78.5 55.5t-59.5 88.5t-43 127.5t-29 160t-18.5 199.5t-9.5 231.5t-3.5 269.5q-14 0 -39.5 1t-36.5 1zM375 334q13 -213 42.5 -402.5t71 -309.5t84.5 -120q41 0 41 152q0 107 -22.5 228t-79 250t-137.5 202zM791 963q0 -53 38 -87t115 -34q100 0 154.5 55.5t54.5 128.5 q0 58 -35 98.5t-98 40.5q-97 0 -163 -64t-66 -138z" />
<glyph unicode="&#xfb02;" horiz-adv-x="1388" d="M-4 530l2 21h78q0 82 1 275t1 304q0 81 28.5 145t70 100.5t94.5 61t95.5 32.5t79.5 8q94 0 139.5 -45t45.5 -95q0 -41 -23 -41q-63 0 -110 -58.5t-74.5 -162t-40.5 -230t-14 -278.5q198 21 346 64q-10 123 -10 233q0 102 8.5 182.5t32 159.5t62 131.5t103.5 84.5t152 32 h8q163 -2 248.5 -74t85.5 -215q0 -380 -401 -561v-61q0 -121 14.5 -212.5t51 -151.5t91.5 -60q37 0 72 13t61 30.5t52.5 49t43 55.5t36.5 63t29 59t24 55q32 -19 51.5 -57.5t19.5 -83.5q0 -61 -46.5 -123t-115.5 -107t-149.5 -73.5t-148.5 -28.5q-128 0 -223.5 145.5 t-135.5 397.5q-137 -32 -328 -49q151 -112 244.5 -333t93.5 -439q0 -193 -76.5 -282t-242.5 -89q-63 0 -112 24t-85 67.5t-61.5 118t-42 159.5t-25.5 209.5t-13 251t-5 299.5h-6q-44 0 -60 24.5t-16 54.5zM375 336q19 -331 76.5 -582.5t121.5 -251.5q20 0 31.5 42t11.5 112 q0 106 -23 227.5t-80 250.5t-138 202zM1016 756q250 158 250 418q0 95 -37 100h-4q-71 0 -128.5 -152t-80.5 -366z" />
</font>
</defs>
</svg>
